<svg width="107" height="16" viewBox="0 0 107 16" fill="none" xmlns="http://www.w3.org/2000/svg">
<path fill-rule="evenodd" clip-rule="evenodd" d="M56.6814 15.3764V4.46733H59.707V15.3764H56.6814ZM58.2013 3.06108C57.7515 3.06108 57.3656 2.91193 57.0437 2.61364C56.7264 2.31061 56.5678 1.94839 56.5678 1.52699C56.5678 1.11032 56.7264 0.752841 57.0437 0.454546C57.3656 0.151515 57.7515 0 58.2013 0C58.6511 0 59.0347 0.151515 59.3519 0.454546C59.6739 0.752841 59.8349 1.11032 59.8349 1.52699C59.8349 1.94839 59.6739 2.31061 59.3519 2.61364C59.0347 2.91193 58.6511 3.06108 58.2013 3.06108ZM63.8991 14.9147C64.5715 15.3409 65.3219 15.5539 66.1505 15.5539C66.7377 15.5539 67.2348 15.4569 67.642 15.2628C68.054 15.0686 68.3878 14.8248 68.6434 14.5312C68.9039 14.2329 69.1051 13.9323 69.2471 13.6292H69.375V15.3764H72.3579V0.830933H69.3395V6.29968H69.2471C69.1146 6.00612 68.9204 5.70783 68.6647 5.4048C68.4138 5.09703 68.0824 4.84135 67.6704 4.63775C67.2632 4.42942 66.7542 4.32525 66.1434 4.32525C65.3433 4.32525 64.607 4.53359 63.9346 4.95025C63.267 5.36218 62.732 5.98482 62.3295 6.81815C61.9271 7.64675 61.7258 8.68605 61.7258 9.93605C61.7258 11.1529 61.92 12.1804 62.3082 13.0184C62.7012 13.8518 63.2315 14.4839 63.8991 14.9147ZM68.3452 12.7485C68.009 13.0137 67.597 13.1463 67.1094 13.1463C66.6122 13.1463 66.1932 13.0113 65.8522 12.7414C65.5161 12.4668 65.258 12.088 65.0781 11.6051C64.9029 11.1174 64.8153 10.5563 64.8153 9.92184C64.8153 9.29211 64.9029 8.73813 65.0781 8.25991C65.2533 7.78169 65.5113 7.40764 65.8522 7.13775C66.1932 6.86786 66.6122 6.73292 67.1094 6.73292C67.597 6.73292 68.0113 6.86313 68.3522 7.12355C68.6932 7.38396 68.9536 7.75328 69.1335 8.2315C69.3134 8.70972 69.4034 9.27317 69.4034 9.92184C69.4034 10.5705 69.3111 11.1363 69.1264 11.6193C68.9465 12.1022 68.6861 12.4787 68.3452 12.7485ZM79.8171 15.5895C78.6949 15.5895 77.729 15.3622 76.9194 14.9076C76.1144 14.4484 75.4942 13.7997 75.0586 12.9616C74.623 12.1188 74.4052 11.1221 74.4052 9.97156C74.4052 8.8494 74.623 7.86456 75.0586 7.01702C75.4942 6.16948 76.1073 5.50897 76.898 5.03548C77.6935 4.562 78.6263 4.32526 79.6963 4.32526C80.416 4.32526 81.086 4.44126 81.7063 4.67327C82.3313 4.90054 82.8758 5.24382 83.3398 5.7031C83.8086 6.16238 84.1731 6.74003 84.4336 7.43605C84.694 8.12734 84.8242 8.937 84.8242 9.86503V10.696H77.3952V10.7031C77.3952 11.2429 77.4946 11.7093 77.6935 12.1022C77.8971 12.4952 78.1836 12.7983 78.5529 13.0113C78.9222 13.2244 79.3602 13.3309 79.8668 13.3309C80.203 13.3309 80.5107 13.2836 80.7901 13.1889C81.0695 13.0942 81.3086 12.9522 81.5074 12.7628C81.7063 12.5734 81.8578 12.3414 81.962 12.0667L84.7603 12.2514C84.6182 12.9237 84.327 13.5109 83.8867 14.0128C83.4511 14.5099 82.8876 14.8982 82.1963 15.1775C81.5098 15.4521 80.7167 15.5895 79.8171 15.5895ZM77.7006 7.74855C77.5172 8.07178 77.4163 8.42926 77.3981 8.82099H81.9762C81.9762 8.38539 81.8815 7.9995 81.6921 7.66332C81.5027 7.32715 81.2399 7.06437 80.9037 6.87497C80.5723 6.68084 80.1864 6.58378 79.7461 6.58378C79.2868 6.58378 78.8796 6.69031 78.5245 6.90338C78.1741 7.11171 77.8995 7.39344 77.7006 7.74855ZM88.418 15.5114C88.0297 15.5114 87.6959 15.374 87.4165 15.0994C87.1372 14.8201 86.9975 14.4839 86.9975 14.0909C86.9975 13.7026 87.1372 13.3712 87.4165 13.0966C87.6959 12.8172 88.0297 12.6776 88.418 12.6776C88.8062 12.6776 89.14 12.8172 89.4194 13.0966C89.6987 13.3712 89.8384 13.7026 89.8384 14.0909C89.8384 14.3513 89.7721 14.5904 89.6395 14.8082C89.5117 15.0213 89.3412 15.1918 89.1282 15.3196C88.9151 15.4474 88.6784 15.5114 88.418 15.5114ZM54.8331 6.74002V4.46729H52.6598V3.73576C52.6598 3.36644 52.7474 3.07998 52.9225 2.87638C53.0977 2.66805 53.4079 2.56388 53.8529 2.56388C54.0329 2.56388 54.2081 2.58045 54.3785 2.6136C54.5537 2.64674 54.7005 2.68225 54.8188 2.72013L55.3586 0.447405C55.1692 0.390587 54.8804 0.326666 54.4921 0.255644C54.1086 0.184621 53.6849 0.149109 53.2208 0.149109C52.5343 0.149109 51.9211 0.279317 51.3813 0.539734C50.8416 0.80015 50.4154 1.19078 50.1029 1.71161C49.7952 2.23244 49.6413 2.88822 49.6413 3.67894V4.46729H48.1001V6.74002H49.6413V15.3764H52.6598V6.74002H54.8331ZM40.4759 15.5824C39.7798 15.5824 39.1596 15.4616 38.6151 15.2201C38.0706 14.9739 37.6397 14.6117 37.3224 14.1335C37.0099 13.6505 36.8537 13.0492 36.8537 12.3295C36.8537 11.7235 36.965 11.2145 37.1875 10.8025C37.41 10.3906 37.7131 10.0592 38.0966 9.80821C38.4801 9.55726 38.9157 9.36787 39.4034 9.24003C39.8958 9.11219 40.4119 9.02223 40.9517 8.97014C41.5862 8.90385 42.0975 8.8423 42.4858 8.78548C42.8741 8.72393 43.1558 8.63397 43.331 8.5156C43.5062 8.39723 43.5938 8.22204 43.5938 7.99003V7.94741C43.5938 7.4976 43.4517 7.14959 43.1676 6.90338C42.8883 6.65717 42.4905 6.53406 41.9744 6.53406C41.4299 6.53406 40.9967 6.6548 40.6747 6.89628C40.3528 7.13302 40.1397 7.43132 40.0355 7.79116L37.2372 7.56389C37.3793 6.90101 37.6586 6.3281 38.0753 5.84514C38.492 5.35745 39.0294 4.9834 39.6875 4.72298C40.3504 4.45783 41.1174 4.32526 41.9886 4.32526C42.5947 4.32526 43.1747 4.39628 43.7287 4.53832C44.2874 4.68037 44.7822 4.90054 45.2131 5.19884C45.6487 5.49713 45.992 5.88065 46.2429 6.3494C46.4939 6.81342 46.6193 7.36976 46.6193 8.01844V15.3764H43.75V13.8636H43.6648C43.4896 14.2045 43.2552 14.5052 42.9617 14.7656C42.6681 15.0213 42.3153 15.2225 41.9034 15.3693C41.4915 15.5113 41.0156 15.5824 40.4759 15.5824ZM41.3423 13.4943C41.7874 13.4943 42.1804 13.4067 42.5213 13.2315C42.8622 13.0516 43.1297 12.8101 43.3239 12.5071C43.518 12.204 43.6151 11.8608 43.6151 11.4772V10.3196C43.5204 10.3811 43.3902 10.4379 43.2244 10.49C43.0635 10.5374 42.8812 10.5824 42.6776 10.625C42.474 10.6629 42.2704 10.6984 42.0668 10.7315C41.8632 10.7599 41.6785 10.786 41.5128 10.8096C41.1577 10.8617 40.8475 10.9446 40.5824 11.0582C40.3172 11.1718 40.1113 11.3257 39.9645 11.5199C39.8177 11.7093 39.7443 11.946 39.7443 12.2301C39.7443 12.642 39.8935 12.9569 40.1918 13.1747C40.4948 13.3878 40.8783 13.4943 41.3423 13.4943ZM27.9492 15.3764V9.06957C27.9539 8.60082 28.0415 8.20073 28.212 7.86929C28.3872 7.53312 28.6287 7.27743 28.9364 7.10224C29.2489 6.92706 29.6088 6.83946 30.016 6.83946C30.622 6.83946 31.0979 7.02885 31.4435 7.40764C31.7892 7.7817 31.9596 8.30253 31.9549 8.97014V15.3764H34.9805V8.43037C34.9805 7.58283 34.8242 6.85366 34.5117 6.24287C34.1992 5.62734 33.7612 5.15385 33.1978 4.82241C32.6343 4.49098 31.9738 4.32526 31.2163 4.32526C30.4066 4.32526 29.7177 4.51228 29.1495 4.88634C28.5813 5.25565 28.1765 5.75755 27.935 6.39202H27.8072V4.4673H24.9236V15.3764H27.9492ZM17.587 15.5895C16.4838 15.5895 15.5297 15.3551 14.7248 14.8863C13.9246 14.4129 13.3067 13.7547 12.8711 12.9119C12.4355 12.0644 12.2177 11.0819 12.2177 9.96446C12.2177 8.83757 12.4355 7.85272 12.8711 7.00991C13.3067 6.16238 13.9246 5.50423 14.7248 5.03548C15.5297 4.562 16.4838 4.32526 17.587 4.32526C18.6902 4.32526 19.6419 4.562 20.4421 5.03548C21.247 5.50423 21.8673 6.16238 22.3029 7.00991C22.7385 7.85272 22.9563 8.83757 22.9563 9.96446C22.9563 11.0819 22.7385 12.0644 22.3029 12.9119C21.8673 13.7547 21.247 14.4129 20.4421 14.8863C19.6419 15.3551 18.6902 15.5895 17.587 15.5895ZM17.6012 13.2457C18.1031 13.2457 18.5221 13.1037 18.8583 12.8196C19.1945 12.5307 19.4478 12.1378 19.6182 11.6406C19.7934 11.1434 19.881 10.5776 19.881 9.94315C19.881 9.30868 19.7934 8.74287 19.6182 8.24571C19.4478 7.74855 19.1945 7.35556 18.8583 7.06673C18.5221 6.77791 18.1031 6.63349 17.6012 6.63349C17.0945 6.63349 16.6684 6.77791 16.3228 7.06673C15.9819 7.35556 15.7238 7.74855 15.5486 8.24571C15.3782 8.74287 15.2929 9.30868 15.2929 9.94315C15.2929 10.5776 15.3782 11.1434 15.5486 11.6406C15.7238 12.1378 15.9819 12.5307 16.3228 12.8196C16.6684 13.1037 17.0945 13.2457 17.6012 13.2457ZM0 0.830933V15.3764H2.98295V13.6292H3.1179C3.25521 13.9323 3.45407 14.2329 3.71449 14.5312C3.97491 14.8248 4.30871 15.0686 4.71591 15.2628C5.12784 15.4569 5.62737 15.5539 6.21449 15.5539C7.04309 15.5539 7.79119 15.3409 8.45881 14.9147C9.13116 14.4839 9.66146 13.8518 10.0497 13.0184C10.4427 12.1804 10.6392 11.1529 10.6392 9.93605C10.6392 8.68605 10.438 7.64675 10.0355 6.81815C9.63305 5.98482 9.09564 5.36218 8.4233 4.95025C7.75095 4.53359 7.01705 4.32525 6.22159 4.32525C5.6108 4.32525 5.09943 4.42942 4.6875 4.63775C4.2803 4.84135 3.94886 5.09703 3.69318 5.4048C3.44223 5.70783 3.25047 6.00612 3.1179 6.29968H3.02557V0.830933H0ZM3.23153 11.6193C3.05161 11.1363 2.96165 10.5705 2.96165 9.92184C2.96165 9.27317 3.05161 8.70972 3.23153 8.2315C3.41146 7.75328 3.66951 7.38396 4.00568 7.12355C4.34659 6.86313 4.76326 6.73292 5.25568 6.73292C5.75284 6.73292 6.17188 6.86786 6.51278 7.13775C6.85369 7.40764 7.11174 7.78169 7.28693 8.25991C7.46212 8.73813 7.54972 9.29211 7.54972 9.92184C7.54972 10.5563 7.45975 11.1174 7.27983 11.6051C7.10464 12.088 6.84659 12.4668 6.50568 12.7414C6.16477 13.0113 5.74811 13.1463 5.25568 13.1463C4.76799 13.1463 4.35369 13.0137 4.01278 12.7485C3.67188 12.4787 3.41146 12.1022 3.23153 11.6193Z" fill="#0D3339"/>
<path fill-rule="evenodd" clip-rule="evenodd" d="M104.577 4.46729V15.3764H106.701V4.46729H104.577ZM104.698 2.41473C104.963 2.66094 105.281 2.78405 105.65 2.78405C106.019 2.78405 106.334 2.66094 106.594 2.41473C106.86 2.16378 106.992 1.86549 106.992 1.51984C106.992 1.16946 106.86 0.871168 106.594 0.624955C106.334 0.374009 106.019 0.248535 105.65 0.248535C105.281 0.248535 104.963 0.374009 104.698 0.624955C104.438 0.871168 104.307 1.16946 104.307 1.51984C104.307 1.86549 104.438 2.16378 104.698 2.41473ZM99.5934 4.46729V10.8522C99.5981 11.4725 99.4679 11.9839 99.2027 12.3863C98.9423 12.7888 98.6133 13.0894 98.2155 13.2883C97.8225 13.4872 97.4272 13.5866 97.0294 13.5866C96.3713 13.5866 95.8363 13.3664 95.4243 12.9261C95.0124 12.4858 94.8064 11.8939 94.8064 11.1505V4.46729H92.6829V11.4062C92.6829 12.3058 92.8344 13.061 93.1374 13.6718C93.4452 14.2826 93.8666 14.7443 94.4016 15.0568C94.9414 15.3645 95.5616 15.5184 96.2624 15.5184C97.0815 15.5184 97.7657 15.3267 98.315 14.9431C98.8689 14.5549 99.2714 14.0696 99.5223 13.4872H99.636V15.3764H101.724V4.46729H99.5934Z" fill="url(#paint0_linear_92_200)"/>
<defs>
<linearGradient id="paint0_linear_92_200" x1="128.205" y1="28.3764" x2="76.7721" y2="28.6036" gradientUnits="userSpaceOnUse">
<stop stop-color="#00B3FF"/>
<stop offset="0.930545" stop-color="#0038FF"/>
</linearGradient>
</defs>
</svg>
