<svg width="1435" height="353" viewBox="0 0 1435 353" fill="none" xmlns="http://www.w3.org/2000/svg">
<path d="M496.22 352.398C496.22 222.508 601.51 117.218 731.4 117.218C861.29 117.218 966.58 222.508 966.58 352.398" fill="url(#paint0_linear_677_834)"/>
<path d="M1434.14 96.6377L1137.52 331.558H1434.14V96.6377Z" fill="url(#paint1_linear_677_834)"/>
<path opacity="0.4" d="M1434.14 96.6377C1434.14 96.6377 1432.67 116.438 1418.95 126.238C1405.23 136.038 1431.69 142.898 1418.95 158.578C1406.21 174.258 1372.89 166.958 1366.03 178.448C1359.17 189.938 1383.24 235.508 1370.71 253.888C1358.19 272.268 1346.62 273.118 1346.62 273.118L1294.06 207.588L1434.14 96.6477V96.6377Z" fill="url(#paint2_linear_677_834)"/>
<path d="M1138.04 2.70752L1391.7 331.558H1042.37L889.84 281.878L1127.05 2.67752C1129.84 -0.902478 1135.26 -0.89248 1138.04 2.70752Z" fill="#C6CBFF"/>
<path d="M1126.22 2.79143C1131.25 -3.66061 1141.58 2.37875 1138.18 9.81723C1138.11 9.95814 1138.05 10.099 1137.97 10.24C1134.42 16.8933 1127.02 17.6382 1127.02 22.8119C1127.02 39.8228 1163.26 51.9115 1163.26 84.4637C1163.26 117.016 1088.57 119.975 1088.57 154.007C1088.57 188.039 1167 182.855 1167 233.163C1167 283.471 1044.72 329.058 1044.72 329.058L908 263.299L1126.22 2.79143Z" fill="url(#paint3_linear_677_834)"/>
<path d="M226.341 31.8673L473.411 352.177H133.161L0.0605469 345.977L215.641 31.8473C218.361 28.3573 223.641 28.3673 226.341 31.8773V31.8673Z" fill="#C6CBFF"/>
<path d="M216.048 30.7318C220.975 24.4205 231.092 30.3273 227.764 37.6095C227.703 37.7511 227.632 37.8927 227.561 38.0242C224.091 44.5377 216.847 45.2659 216.847 50.3331C216.847 66.9912 252.338 78.8148 252.338 110.675C252.338 142.534 179.192 145.427 179.192 178.733C179.192 212.039 256 206.972 256 256.208C256 305.444 136.255 350.058 136.255 350.058L0 346.093L216.058 30.7318H216.048Z" fill="url(#paint4_linear_677_834)"/>
<path d="M0.689453 211.248C0.689453 211.248 31.6094 178.808 82.8994 218.318C134.199 257.828 118.609 246.158 148.029 237.858C177.449 229.548 173.289 217.908 206.979 241.198C240.669 264.488 293.909 232.718 333.829 255.258C373.759 277.798 412.359 303.738 423.709 302.198C528.469 288.058 622.469 350.168 622.469 350.168H0.689453V211.248Z" fill="#414195"/>
<path d="M355.31 245.728H353.43C355.97 245.228 357.89 242.988 357.89 240.308C357.89 238.788 357.27 237.408 356.27 236.408C355.27 235.408 353.89 234.788 352.37 234.788H348.48V231.258H349.47V228.978H344.76V231.258H345.75V234.788H337.1V233.978H335.44V232.508C335.44 231.558 334.59 230.818 333.62 230.988C332.86 231.118 332.35 231.828 332.35 232.598V233.978H330.7V234.788H328.58V231.948H326.15V234.788H319.15V231.768C319.15 230.218 317.9 228.968 316.35 228.968H297.61C296.62 228.968 295.83 229.788 295.88 230.788C295.93 231.728 296.77 232.428 297.71 232.428H304.49C305.99 232.428 307.22 233.648 307.22 235.148V239.608C307.22 239.998 306.9 240.308 306.52 240.308H297.39C296.56 240.308 295.88 240.988 295.88 241.818V246.388C295.88 247.908 296.55 249.268 297.6 250.208C297.58 250.328 297.57 250.458 297.56 250.578H291.76V235.428C291.76 233.448 290.16 231.848 288.18 231.848H219.79C217.82 231.848 216.21 233.448 216.21 235.428V247.968H212.66V235.428C212.66 233.448 211.06 231.848 209.08 231.848H140.69C138.71 231.848 137.11 233.448 137.11 235.428V247.968H135.04V249.438H137.11V252.238H138.47C138.47 253.788 139.72 255.038 141.27 255.038C142.82 255.038 144.07 253.788 144.07 252.238H146.28C146.28 253.788 147.53 255.038 149.08 255.038C150.63 255.038 151.88 253.788 151.88 252.238H197.5C197.5 253.788 198.75 255.038 200.3 255.038C201.85 255.038 203.1 253.788 203.1 252.238H205.31C205.31 253.788 206.57 255.038 208.11 255.038C209.65 255.038 210.91 253.788 210.91 252.238H212.68V249.438H216.23V252.238H217.59C217.59 253.788 218.84 255.038 220.39 255.038C221.94 255.038 223.19 253.788 223.19 252.238H225.4C225.4 253.788 226.66 255.038 228.2 255.038C229.74 255.038 231 253.788 231 252.238H276.62C276.62 253.788 277.88 255.038 279.42 255.038C280.96 255.038 282.22 253.788 282.22 252.238H284.43C284.43 253.788 285.68 255.038 287.23 255.038C288.78 255.038 290.03 253.788 290.03 252.238H297.83C298.4 253.868 299.95 255.038 301.78 255.038C303.87 255.038 305.6 253.508 305.92 251.508H309.66C310.1 253.528 311.9 255.038 314.04 255.038C316.18 255.038 317.99 253.528 318.43 251.508H319.97C320.41 253.528 322.2 255.038 324.35 255.038C326.5 255.038 328.29 253.528 328.73 251.508H331.1C331.54 253.528 333.33 255.038 335.48 255.038C337.63 255.038 339.42 253.528 339.86 251.508H341.41C341.85 253.528 343.64 255.038 345.79 255.038C347.94 255.038 349.73 253.528 350.17 251.508H350.68C350.34 251.998 350.18 252.628 350.33 253.308C350.52 254.158 351.22 254.838 352.08 254.998C353.26 255.218 354.3 254.518 354.63 253.498C360.11 253.468 361.3 252.068 361.3 252.068L355.33 245.748L355.31 245.728ZM186.78 250.578H163V249.438H186.78V250.578ZM265.88 250.578H242.1V249.438H265.88V250.578Z" fill="#FF5050"/>
<path d="M313.44 240.018H313.45C315.157 240.018 316.54 238.634 316.54 236.928V236.918C316.54 235.211 315.157 233.828 313.45 233.828H313.44C311.733 233.828 310.35 235.211 310.35 236.918V236.928C310.35 238.634 311.733 240.018 313.44 240.018Z" fill="white"/>
<path d="M281.99 243.278H282.28C283.716 243.278 284.88 242.116 284.88 240.683C284.88 239.25 283.716 238.088 282.28 238.088H281.99C280.554 238.088 279.39 239.25 279.39 240.683C279.39 242.116 280.554 243.278 281.99 243.278Z" fill="white"/>
<path d="M273.71 243.278H274C275.436 243.278 276.6 242.116 276.6 240.683C276.6 239.25 275.436 238.088 274 238.088H273.71C272.274 238.088 271.11 239.25 271.11 240.683C271.11 242.116 272.274 243.278 273.71 243.278Z" fill="white"/>
<path d="M265.74 243.278H266.03C267.466 243.278 268.63 242.116 268.63 240.683C268.63 239.25 267.466 238.088 266.03 238.088H265.74C264.304 238.088 263.14 239.25 263.14 240.683C263.14 242.116 264.304 243.278 265.74 243.278Z" fill="white"/>
<path d="M257.77 243.278H258.06C259.496 243.278 260.66 242.116 260.66 240.683C260.66 239.25 259.496 238.088 258.06 238.088H257.77C256.334 238.088 255.17 239.25 255.17 240.683C255.17 242.116 256.334 243.278 257.77 243.278Z" fill="white"/>
<path d="M249.8 243.278H250.09C251.526 243.278 252.69 242.116 252.69 240.683C252.69 239.25 251.526 238.088 250.09 238.088H249.8C248.364 238.088 247.2 239.25 247.2 240.683C247.2 242.116 248.364 243.278 249.8 243.278Z" fill="white"/>
<path d="M241.82 243.278H242.11C243.546 243.278 244.71 242.116 244.71 240.683C244.71 239.25 243.546 238.088 242.11 238.088H241.82C240.384 238.088 239.22 239.25 239.22 240.683C239.22 242.116 240.384 243.278 241.82 243.278Z" fill="white"/>
<path d="M233.85 243.278H234.14C235.576 243.278 236.74 242.116 236.74 240.683C236.74 239.25 235.576 238.088 234.14 238.088H233.85C232.414 238.088 231.25 239.25 231.25 240.683C231.25 242.116 232.414 243.278 233.85 243.278Z" fill="white"/>
<path d="M225.88 243.278H226.17C227.606 243.278 228.771 242.116 228.771 240.683C228.771 239.25 227.606 238.088 226.17 238.088H225.88C224.445 238.088 223.28 239.25 223.28 240.683C223.28 242.116 224.445 243.278 225.88 243.278Z" fill="white"/>
<path d="M202.89 243.278H203.18C204.616 243.278 205.78 242.116 205.78 240.683C205.78 239.25 204.616 238.088 203.18 238.088H202.89C201.454 238.088 200.29 239.25 200.29 240.683C200.29 242.116 201.454 243.278 202.89 243.278Z" fill="white"/>
<path d="M194.61 243.278H194.9C196.336 243.278 197.5 242.116 197.5 240.683C197.5 239.25 196.336 238.088 194.9 238.088H194.61C193.174 238.088 192.01 239.25 192.01 240.683C192.01 242.116 193.174 243.278 194.61 243.278Z" fill="white"/>
<path d="M186.64 243.278H186.93C188.366 243.278 189.53 242.116 189.53 240.683C189.53 239.25 188.366 238.088 186.93 238.088H186.64C185.204 238.088 184.04 239.25 184.04 240.683C184.04 242.116 185.204 243.278 186.64 243.278Z" fill="white"/>
<path d="M178.66 243.278H178.95C180.386 243.278 181.55 242.116 181.55 240.683C181.55 239.25 180.386 238.088 178.95 238.088H178.66C177.224 238.088 176.06 239.25 176.06 240.683C176.06 242.116 177.224 243.278 178.66 243.278Z" fill="white"/>
<path d="M170.69 243.278H170.98C172.416 243.278 173.58 242.116 173.58 240.683C173.58 239.25 172.416 238.088 170.98 238.088H170.69C169.254 238.088 168.09 239.25 168.09 240.683C168.09 242.116 169.254 243.278 170.69 243.278Z" fill="white"/>
<path d="M162.72 243.278H163.01C164.446 243.278 165.61 242.116 165.61 240.683C165.61 239.25 164.446 238.088 163.01 238.088H162.72C161.284 238.088 160.12 239.25 160.12 240.683C160.12 242.116 161.284 243.278 162.72 243.278Z" fill="white"/>
<path d="M154.75 243.278H155.04C156.476 243.278 157.64 242.116 157.64 240.683C157.64 239.25 156.476 238.088 155.04 238.088H154.75C153.314 238.088 152.15 239.25 152.15 240.683C152.15 242.116 153.314 243.278 154.75 243.278Z" fill="white"/>
<path d="M146.78 243.278H147.07C148.506 243.278 149.67 242.116 149.67 240.683C149.67 239.25 148.506 238.088 147.07 238.088H146.78C145.344 238.088 144.18 239.25 144.18 240.683C144.18 242.116 145.344 243.278 146.78 243.278Z" fill="white"/>
<path d="M347.86 228.008C348.49 222.018 348.03 215.718 345.17 210.408C342.32 205.098 336.71 201.008 330.69 201.208C326.61 201.348 322.87 203.328 319.03 204.688C315.03 206.108 310.8 206.868 306.56 206.928C304.35 206.958 302.06 206.788 300.1 205.778C296.85 204.098 295.13 200.518 292.57 197.908C286.14 191.328 275.35 191.688 266.65 194.658C262.66 196.018 258.56 197.848 254.41 197.118C251.56 196.618 249.08 194.948 246.69 193.328C239.79 188.638 231.83 183.748 223.67 185.488C219.69 186.338 216.23 188.698 212.61 190.558C207.38 193.258 201.56 194.998 195.68 194.848C189.8 194.688 183.86 192.508 179.79 188.268C180.25 191.278 182.47 193.358 185.24 194.638C190.97 197.298 197.57 198.028 203.74 196.678C209.04 195.518 213.91 192.908 219.07 191.238C224.24 189.568 230.15 188.918 234.89 191.588C238.27 193.488 240.59 196.828 243.66 199.208C251.71 205.468 263.34 204.148 272.89 200.558C275.92 199.418 278.91 198.078 282.12 197.638C285.32 197.198 288.87 197.808 291.14 200.108C293.54 202.528 294.09 206.268 296.27 208.878C298.43 211.468 301.91 212.588 305.26 212.968C314.43 214.008 320.74 208.258 329.48 207.908C332.78 207.778 336.24 208.508 338.8 210.588C340.65 212.088 341.93 214.188 343.07 216.288C345.08 219.968 346.83 223.858 347.55 227.988" fill="url(#paint5_linear_677_834)"/>
<path d="M251.38 274.427C251.927 274.427 252.469 274.447 253.005 274.485C243.057 277.51 235.82 286.776 235.82 297.737V351.477H228.15V297.737C228.15 284.862 238.548 274.427 251.38 274.427Z" fill="#6977FF" stroke="#6977FF"/>
<path d="M179.781 274.427C180.328 274.427 180.869 274.447 181.406 274.485C171.458 277.51 164.221 286.776 164.221 297.737V351.477H156.551V297.737C156.551 284.862 166.949 274.427 179.781 274.427Z" fill="#6977FF" stroke="#6977FF"/>
<path d="M108.191 274.427C108.738 274.427 109.279 274.447 109.816 274.485C99.8679 277.51 92.631 286.776 92.631 297.737V351.477H84.9609V297.737C84.9609 284.862 95.3587 274.427 108.191 274.427Z" fill="#6977FF" stroke="#6977FF"/>
<path d="M36.5904 274.427C37.1373 274.427 37.6788 274.447 38.2153 274.485C28.2673 277.51 21.0304 286.776 21.0304 297.737V351.477H13.3604V297.737C13.3604 284.862 23.7581 274.427 36.5904 274.427Z" fill="#6977FF" stroke="#6977FF"/>
<path d="M287.171 351.977V255.507H275.841V248.807H287.171V246.897H0.0605469V248.807H8.73056V255.507H0.0605469V351.977H12.8506V297.737C12.8506 284.587 23.4705 273.927 36.5805 273.927C49.6905 273.927 60.3105 284.587 60.3105 297.737V351.977H84.4605V297.737C84.4605 284.587 95.0806 273.927 108.191 273.927C121.301 273.927 131.921 284.587 131.921 297.737V351.977H156.071V297.737C156.071 284.587 166.691 273.927 179.801 273.927C192.911 273.927 203.531 284.587 203.531 297.737V351.977H227.681V297.737C227.681 284.587 238.301 273.927 251.411 273.927C264.521 273.927 275.141 284.587 275.141 297.737V351.977H287.171ZM32.8206 255.507H10.7906V248.807H32.8206V255.507ZM56.9206 255.507H34.8906V248.807H56.9206V255.507ZM81.0106 255.507H58.9806V248.807H81.0106V255.507ZM105.111 255.507H83.0805V248.807H105.111V255.507ZM129.201 255.507H107.171V248.807H129.201V255.507ZM153.301 255.507H131.271V248.807H153.301V255.507ZM177.391 255.507H155.361V248.807H177.391V255.507ZM201.491 255.507H179.461V248.807H201.491V255.507ZM225.581 255.507H203.551V248.807H225.581V255.507ZM249.681 255.507H227.651V248.807H249.681V255.507ZM273.771 255.507H251.741V248.807H273.771V255.507Z" fill="#DCE0FF"/>
<path d="M1433.96 172.848C1433.96 172.848 1394.5 131.438 1329.02 181.878C1263.54 232.308 1283.43 217.418 1245.88 206.818C1208.33 196.218 1213.64 181.348 1170.64 211.078C1127.64 240.808 1059.68 200.248 1008.72 229.028C957.75 257.798 908.48 290.908 893.99 288.948C760.27 270.898 640.28 350.178 640.28 350.178H1433.96V172.858V172.848Z" fill="#414195"/>
<path d="M537.169 274.427C537.716 274.427 538.258 274.447 538.794 274.485C528.846 277.51 521.609 286.776 521.609 297.737V351.477H513.939V297.737C513.939 284.862 524.337 274.427 537.169 274.427Z" fill="#6977FF" stroke="#6977FF"/>
<path d="M465.57 274.427C466.117 274.427 466.658 274.447 467.195 274.485C457.247 277.51 450.01 286.776 450.01 297.737V351.477H442.34V297.737C442.34 284.862 452.738 274.427 465.57 274.427Z" fill="#6977FF" stroke="#6977FF"/>
<path d="M393.97 274.427C394.517 274.427 395.059 274.447 395.595 274.485C385.647 277.51 378.41 286.776 378.41 297.737V351.477H370.74V297.737C370.74 284.862 381.138 274.427 393.97 274.427Z" fill="#6977FF" stroke="#6977FF"/>
<path d="M322.37 274.427C322.917 274.427 323.458 274.447 323.995 274.485C314.047 277.51 306.81 286.776 306.81 297.737V351.477H299.14V297.737C299.14 284.862 309.537 274.427 322.37 274.427Z" fill="#6977FF" stroke="#6977FF"/>
<path d="M572.95 351.977V255.507H561.62V248.807H572.95V246.897H285.84V248.807H294.51V255.507H285.84V351.977H298.63V297.737C298.63 284.587 309.25 273.927 322.36 273.927C335.47 273.927 346.09 284.587 346.09 297.737V351.977H370.24V297.737C370.24 284.587 380.86 273.927 393.97 273.927C407.08 273.927 417.7 284.587 417.7 297.737V351.977H441.85V297.737C441.85 284.587 452.47 273.927 465.58 273.927C478.69 273.927 489.31 284.587 489.31 297.737V351.977H513.46V297.737C513.46 284.587 524.08 273.927 537.19 273.927C550.3 273.927 560.92 284.587 560.92 297.737V351.977H572.95ZM318.61 255.507H296.58V248.807H318.61V255.507ZM342.7 255.507H320.67V248.807H342.7V255.507ZM366.8 255.507H344.77V248.807H366.8V255.507ZM390.89 255.507H368.86V248.807H390.89V255.507ZM414.99 255.507H392.96V248.807H414.99V255.507ZM439.08 255.507H417.05V248.807H439.08V255.507ZM463.18 255.507H441.15V248.807H463.18V255.507ZM487.27 255.507H465.24V248.807H487.27V255.507ZM511.37 255.507H489.34V248.807H511.37V255.507ZM535.46 255.507H513.43V248.807H535.46V255.507ZM559.56 255.507H537.53V248.807H559.56V255.507Z" fill="#DCE0FF"/>
<path d="M824 274.427C824.546 274.427 825.088 274.447 825.624 274.485C815.676 277.51 808.439 286.776 808.439 297.737V351.477H800.77V297.737C800.77 284.862 811.167 274.427 824 274.427Z" fill="#6977FF" stroke="#6977FF"/>
<path d="M752.41 274.427C752.957 274.427 753.498 274.447 754.035 274.485C744.087 277.51 736.85 286.776 736.85 297.737V351.477H729.18V297.737C729.18 284.862 739.578 274.427 752.41 274.427Z" fill="#6977FF" stroke="#6977FF"/>
<path d="M680.81 274.427C681.357 274.427 681.899 274.447 682.435 274.485C672.487 277.51 665.25 286.776 665.25 297.737V351.477H657.58V297.737C657.58 284.862 667.978 274.427 680.81 274.427Z" fill="#6977FF" stroke="#6977FF"/>
<path d="M609.21 274.427C609.756 274.427 610.298 274.447 610.834 274.485C600.886 277.51 593.65 286.776 593.65 297.737V351.477H585.979V297.737C585.979 284.862 596.377 274.427 609.21 274.427Z" fill="#6977FF" stroke="#6977FF"/>
<path d="M859.79 351.977V255.507H848.46V248.807H859.79V246.897H572.68V248.807H581.35V255.507H572.68V351.977H585.47V297.737C585.47 284.587 596.09 273.927 609.2 273.927C622.31 273.927 632.93 284.587 632.93 297.737V351.977H657.08V297.737C657.08 284.587 667.7 273.927 680.81 273.927C693.92 273.927 704.54 284.587 704.54 297.737V351.977H728.69V297.737C728.69 284.587 739.31 273.927 752.42 273.927C765.53 273.927 776.15 284.587 776.15 297.737V351.977H800.3V297.737C800.3 284.587 810.92 273.927 824.03 273.927C837.14 273.927 847.76 284.587 847.76 297.737V351.977H859.79ZM605.44 255.507H583.41V248.807H605.44V255.507ZM629.54 255.507H607.51V248.807H629.54V255.507ZM653.63 255.507H631.6V248.807H653.63V255.507ZM677.73 255.507H655.7V248.807H677.73V255.507ZM701.82 255.507H679.79V248.807H701.82V255.507ZM725.92 255.507H703.89V248.807H725.92V255.507ZM750.01 255.507H727.98V248.807H750.01V255.507ZM774.11 255.507H752.08V248.807H774.11V255.507ZM798.2 255.507H776.17V248.807H798.2V255.507ZM822.3 255.507H800.27V248.807H822.3V255.507ZM846.39 255.507H824.36V248.807H846.39V255.507Z" fill="#DCE0FF"/>
<path d="M1111.11 274.427C1111.66 274.427 1112.2 274.447 1112.74 274.485C1102.79 277.51 1095.55 286.776 1095.55 297.737V351.477H1087.88V297.737C1087.88 284.862 1098.28 274.427 1111.11 274.427Z" fill="#6977FF" stroke="#6977FF"/>
<path d="M1039.51 274.427C1040.06 274.427 1040.6 274.447 1041.14 274.485C1031.19 277.51 1023.95 286.776 1023.95 297.737V351.477H1016.28V297.737C1016.28 284.862 1026.68 274.427 1039.51 274.427Z" fill="#6977FF" stroke="#6977FF"/>
<path d="M967.911 274.427C968.458 274.427 968.999 274.447 969.536 274.485C959.588 277.51 952.351 286.776 952.351 297.737V351.477H944.681V297.737C944.681 284.862 955.078 274.427 967.911 274.427Z" fill="#6977FF" stroke="#6977FF"/>
<path d="M896.31 274.427C896.857 274.427 897.399 274.447 897.935 274.485C887.987 277.51 880.75 286.776 880.75 297.737V351.477H873.08V297.737C873.08 284.862 883.478 274.427 896.31 274.427Z" fill="#6977FF" stroke="#6977FF"/>
<path d="M1146.89 351.977V255.507H1135.56V248.807H1146.89V246.897H859.78V248.807H868.45V255.507H859.78V351.977H872.57V297.737C872.57 284.587 883.19 273.927 896.3 273.927C909.41 273.927 920.03 284.587 920.03 297.737V351.977H944.18V297.737C944.18 284.587 954.8 273.927 967.91 273.927C981.02 273.927 991.64 284.587 991.64 297.737V351.977H1015.79V297.737C1015.79 284.587 1026.41 273.927 1039.52 273.927C1052.63 273.927 1063.25 284.587 1063.25 297.737V351.977H1087.4V297.737C1087.4 284.587 1098.02 273.927 1111.13 273.927C1124.24 273.927 1134.86 284.587 1134.86 297.737V351.977H1146.89ZM892.55 255.507H870.52V248.807H892.55V255.507ZM916.64 255.507H894.61V248.807H916.64V255.507ZM940.74 255.507H918.71V248.807H940.74V255.507ZM964.83 255.507H942.8V248.807H964.83V255.507ZM988.93 255.507H966.9V248.807H988.93V255.507ZM1013.02 255.507H990.99V248.807H1013.02V255.507ZM1037.12 255.507H1015.09V248.807H1037.12V255.507ZM1061.21 255.507H1039.18V248.807H1061.21V255.507ZM1085.31 255.507H1063.28V248.807H1085.31V255.507ZM1109.4 255.507H1087.37V248.807H1109.4V255.507ZM1133.5 255.507H1111.47V248.807H1133.5V255.507Z" fill="#DCE0FF"/>
<path d="M1398.22 274.427C1398.77 274.427 1399.31 274.447 1399.85 274.485C1389.9 277.51 1382.66 286.776 1382.66 297.737V351.477H1374.99V297.737C1374.99 284.862 1385.39 274.427 1398.22 274.427Z" fill="#6977FF" stroke="#6977FF"/>
<path d="M1326.62 274.427C1327.17 274.427 1327.71 274.447 1328.25 274.485C1318.3 277.51 1311.06 286.776 1311.06 297.737V351.477H1303.39V297.737C1303.39 284.862 1313.79 274.427 1326.62 274.427Z" fill="#6977FF" stroke="#6977FF"/>
<path d="M1255.02 274.427C1255.57 274.427 1256.11 274.447 1256.64 274.485C1246.7 277.51 1239.46 286.776 1239.46 297.737V351.477H1231.79V297.737C1231.79 284.862 1242.19 274.427 1255.02 274.427Z" fill="#6977FF" stroke="#6977FF"/>
<path d="M1434 351.977V255.507H1422.67V248.807H1434V246.897H1146.89V248.807H1155.56V255.507H1146.89V351.977H1159.68V297.737C1159.68 284.587 1170.3 273.927 1183.41 273.927C1196.52 273.927 1207.14 284.587 1207.14 297.737V351.977H1231.29V297.737C1231.29 284.587 1241.91 273.927 1255.02 273.927C1268.13 273.927 1278.75 284.587 1278.75 297.737V351.977H1302.9V297.737C1302.9 284.587 1313.52 273.927 1326.63 273.927C1339.74 273.927 1350.36 284.587 1350.36 297.737V351.977H1374.51V297.737C1374.51 284.587 1385.13 273.927 1398.24 273.927C1411.35 273.927 1421.97 284.587 1421.97 297.737V351.977H1434ZM1179.66 255.507H1157.63V248.807H1179.66V255.507ZM1203.75 255.507H1181.72V248.807H1203.75V255.507ZM1227.84 255.507H1205.81V248.807H1227.84V255.507ZM1251.94 255.507H1229.91V248.807H1251.94V255.507ZM1276.03 255.507H1254V248.807H1276.03V255.507ZM1300.13 255.507H1278.1V248.807H1300.13V255.507ZM1324.22 255.507H1302.19V248.807H1324.22V255.507ZM1348.32 255.507H1326.29V248.807H1348.32V255.507ZM1372.41 255.507H1350.38V248.807H1372.41V255.507ZM1396.51 255.507H1374.48V248.807H1396.51V255.507ZM1420.6 255.507H1398.57V248.807H1420.6V255.507Z" fill="#DCE0FF"/>
<path d="M1183.42 274.427C1183.97 274.427 1184.51 274.447 1185.04 274.485C1175.1 277.51 1167.86 286.776 1167.86 297.737V351.477H1160.19V297.737C1160.19 284.862 1170.59 274.427 1183.42 274.427Z" fill="#6977FF" stroke="#6977FF"/>
<path d="M588.35 276.607C599.53 276.607 606.6 272.487 606.6 272.487C593.06 272.487 588.35 234.827 588.35 234.817C588.35 234.827 583.64 272.487 570.1 272.487C570.1 272.487 577.16 276.607 588.35 276.607Z" fill="#4D62BD"/>
<path d="M588.349 299.557C604.009 299.557 614.43 291.407 614.43 291.407C596.71 291.407 588.349 262.077 588.349 262.077C588.349 262.077 579.99 291.407 562.27 291.407C562.27 291.407 572.689 299.557 588.349 299.557Z" fill="#4D62BD"/>
<path d="M588.35 319.177C607.12 319.177 619.61 309.407 619.61 309.407C598.37 309.407 588.35 274.237 588.35 274.237C588.35 274.237 578.33 309.407 557.09 309.407C557.09 309.407 569.58 319.177 588.35 319.177Z" fill="#4D62BD"/>
<path d="M588.35 352.808C614.07 352.808 631.19 339.428 631.19 339.428C602.08 339.428 588.35 291.248 588.35 291.248C588.35 291.248 574.62 339.428 545.51 339.428C545.51 339.428 562.62 352.808 588.35 352.808Z" fill="#4D62BD"/>
<path d="M129.561 276.607C140.741 276.607 147.811 272.487 147.811 272.487C134.271 272.487 129.561 234.827 129.561 234.817C129.561 234.827 124.851 272.487 111.311 272.487C111.311 272.487 118.371 276.607 129.561 276.607Z" fill="#4D62BD"/>
<path d="M129.56 299.557C145.22 299.557 155.64 291.407 155.64 291.407C137.92 291.407 129.56 262.077 129.56 262.077C129.56 262.077 121.2 291.407 103.48 291.407C103.48 291.407 113.9 299.557 129.56 299.557Z" fill="#4D62BD"/>
<path d="M129.561 319.177C148.331 319.177 160.821 309.407 160.821 309.407C139.581 309.407 129.561 274.237 129.561 274.237C129.561 274.237 119.541 309.407 98.3008 309.407C98.3008 309.407 110.791 319.177 129.561 319.177Z" fill="#4D62BD"/>
<path d="M129.561 352.808C155.281 352.808 172.401 339.428 172.401 339.428C143.291 339.428 129.561 291.248 129.561 291.248C129.561 291.248 115.831 339.428 86.7207 339.428C86.7207 339.428 103.831 352.808 129.561 352.808Z" fill="#4D62BD"/>
<path d="M243.15 299.768C250.93 299.768 255.85 296.898 255.85 296.898C246.43 296.898 243.15 270.688 243.15 270.678C243.15 270.678 239.87 296.898 230.45 296.898C230.45 296.898 235.37 299.768 243.15 299.768Z" fill="#4D62BD"/>
<path d="M243.15 315.748C254.05 315.748 261.3 310.078 261.3 310.078C248.97 310.078 243.15 289.668 243.15 289.668C243.15 289.668 237.33 310.078 225 310.078C225 310.078 232.25 315.748 243.15 315.748Z" fill="#4D62BD"/>
<path d="M243.15 329.408C256.22 329.408 264.91 322.608 264.91 322.608C250.13 322.608 243.15 298.138 243.15 298.138C243.15 298.138 236.18 322.608 221.39 322.608C221.39 322.608 230.08 329.408 243.15 329.408Z" fill="#4D62BD"/>
<path d="M243.15 352.808C261.05 352.808 272.96 343.498 272.96 343.498C252.7 343.498 243.15 309.968 243.15 309.968C243.15 309.968 233.59 343.498 213.34 343.498C213.34 343.498 225.25 352.808 243.15 352.808Z" fill="#4D62BD"/>
<path d="M69.3006 299.768C77.0806 299.768 82.0006 296.898 82.0006 296.898C72.5806 296.898 69.3006 270.688 69.3006 270.678C69.3006 270.678 66.0206 296.898 56.6006 296.898C56.6006 296.898 61.5206 299.768 69.3006 299.768Z" fill="#4D62BD"/>
<path d="M69.3004 315.748C80.2004 315.748 87.4504 310.078 87.4504 310.078C75.1204 310.078 69.3004 289.668 69.3004 289.668C69.3004 289.668 63.4804 310.078 51.1504 310.078C51.1504 310.078 58.4004 315.748 69.3004 315.748Z" fill="#4D62BD"/>
<path d="M69.3 329.408C82.37 329.408 91.06 322.608 91.06 322.608C76.28 322.608 69.3 298.138 69.3 298.138C69.3 298.138 62.33 322.608 47.54 322.608C47.54 322.608 56.23 329.408 69.3 329.408Z" fill="#4D62BD"/>
<path d="M69.3002 352.808C87.2002 352.808 99.1102 343.498 99.1102 343.498C78.8502 343.498 69.3002 309.968 69.3002 309.968C69.3002 309.968 59.7402 343.498 39.4902 343.498C39.4902 343.498 51.4002 352.808 69.3002 352.808Z" fill="#4D62BD"/>
<path d="M644.241 299.768C652.021 299.768 656.941 296.898 656.941 296.898C647.521 296.898 644.241 270.688 644.241 270.678C644.241 270.678 640.961 296.898 631.541 296.898C631.541 296.898 636.461 299.768 644.241 299.768Z" fill="#4D62BD"/>
<path d="M644.241 315.748C655.141 315.748 662.391 310.078 662.391 310.078C650.061 310.078 644.241 289.668 644.241 289.668C644.241 289.668 638.421 310.078 626.091 310.078C626.091 310.078 633.341 315.748 644.241 315.748Z" fill="#4D62BD"/>
<path d="M644.24 329.408C657.31 329.408 666 322.608 666 322.608C651.22 322.608 644.24 298.138 644.24 298.138C644.24 298.138 637.27 322.608 622.48 322.608C622.48 322.608 631.17 329.408 644.24 329.408Z" fill="#4D62BD"/>
<path d="M644.241 352.808C662.141 352.808 674.051 343.498 674.051 343.498C653.791 343.498 644.241 309.968 644.241 309.968C644.241 309.968 634.681 343.498 614.431 343.498C614.431 343.498 626.341 352.808 644.241 352.808Z" fill="#4D62BD"/>
<path d="M447.64 352.807C480.98 352.807 503.15 335.467 503.15 335.467C465.43 335.467 447.64 273.027 447.64 273.027C447.64 273.027 429.85 335.467 392.13 335.467C392.13 335.467 414.31 352.807 447.64 352.807Z" fill="#4D62BD"/>
<path d="M447.64 314.707C473.36 314.707 490.48 301.327 490.48 301.327C461.37 301.327 447.64 253.147 447.64 253.147C447.64 253.147 433.91 301.327 404.8 301.327C404.8 301.327 421.91 314.707 447.64 314.707Z" fill="#4D62BD"/>
<path d="M447.64 281.078C466.41 281.078 478.9 271.308 478.9 271.308C457.66 271.308 447.64 236.138 447.64 236.138C447.64 236.138 437.62 271.308 416.38 271.308C416.38 271.308 428.87 281.078 447.64 281.078Z" fill="#4D62BD"/>
<path d="M447.64 261.458C463.3 261.458 473.72 253.308 473.72 253.308C456 253.308 447.64 223.978 447.64 223.978C447.64 223.978 439.28 253.308 421.56 253.308C421.56 253.308 431.98 261.458 447.64 261.458Z" fill="#4D62BD"/>
<path d="M447.641 238.498C458.821 238.498 465.891 234.378 465.891 234.378C452.351 234.378 447.641 196.718 447.641 196.708C447.641 196.718 442.931 234.378 429.391 234.378C429.391 234.378 436.451 238.498 447.641 238.498Z" fill="#4D62BD"/>
<path d="M1305.8 276.607C1316.98 276.607 1324.05 272.487 1324.05 272.487C1310.51 272.487 1305.8 234.827 1305.8 234.817C1305.8 234.827 1301.09 272.487 1287.55 272.487C1287.55 272.487 1294.61 276.607 1305.8 276.607Z" fill="#4D62BD"/>
<path d="M1305.8 299.557C1321.46 299.557 1331.88 291.407 1331.88 291.407C1314.16 291.407 1305.8 262.077 1305.8 262.077C1305.8 262.077 1297.44 291.407 1279.72 291.407C1279.72 291.407 1290.14 299.557 1305.8 299.557Z" fill="#4D62BD"/>
<path d="M1305.8 319.177C1324.57 319.177 1337.06 309.407 1337.06 309.407C1315.82 309.407 1305.8 274.237 1305.8 274.237C1305.8 274.237 1295.78 309.407 1274.54 309.407C1274.54 309.407 1287.03 319.177 1305.8 319.177Z" fill="#4D62BD"/>
<path d="M1305.8 352.808C1331.52 352.808 1348.64 339.428 1348.64 339.428C1319.53 339.428 1305.8 291.248 1305.8 291.248C1305.8 291.248 1292.07 339.428 1262.96 339.428C1262.96 339.428 1280.07 352.808 1305.8 352.808Z" fill="#4D62BD"/>
<path d="M846.999 276.607C858.179 276.607 865.249 272.487 865.249 272.487C851.709 272.487 846.999 234.827 846.999 234.817C846.999 234.827 842.289 272.487 828.749 272.487C828.749 272.487 835.809 276.607 846.999 276.607Z" fill="#4D62BD"/>
<path d="M846.999 299.557C862.659 299.557 873.079 291.407 873.079 291.407C855.359 291.407 846.999 262.077 846.999 262.077C846.999 262.077 838.639 291.407 820.919 291.407C820.919 291.407 831.339 299.557 846.999 299.557Z" fill="#4D62BD"/>
<path d="M846.999 319.177C865.769 319.177 878.259 309.407 878.259 309.407C857.019 309.407 846.999 274.237 846.999 274.237C846.999 274.237 836.979 309.407 815.739 309.407C815.739 309.407 828.229 319.177 846.999 319.177Z" fill="#4D62BD"/>
<path d="M846.999 352.808C872.719 352.808 889.839 339.428 889.839 339.428C860.729 339.428 846.999 291.248 846.999 291.248C846.999 291.248 833.269 339.428 804.159 339.428C804.159 339.428 821.269 352.808 846.999 352.808Z" fill="#4D62BD"/>
<path d="M960.599 299.768C968.379 299.768 973.299 296.898 973.299 296.898C963.879 296.898 960.599 270.688 960.599 270.678C960.599 270.678 957.319 296.898 947.899 296.898C947.899 296.898 952.819 299.768 960.599 299.768Z" fill="#4D62BD"/>
<path d="M960.599 315.748C971.499 315.748 978.749 310.078 978.749 310.078C966.419 310.078 960.599 289.668 960.599 289.668C960.599 289.668 954.779 310.078 942.449 310.078C942.449 310.078 949.699 315.748 960.599 315.748Z" fill="#4D62BD"/>
<path d="M960.599 329.408C973.669 329.408 982.359 322.608 982.359 322.608C967.579 322.608 960.599 298.138 960.599 298.138C960.599 298.138 953.629 322.608 938.839 322.608C938.839 322.608 947.529 329.408 960.599 329.408Z" fill="#4D62BD"/>
<path d="M960.599 352.808C978.499 352.808 990.409 343.498 990.409 343.498C970.149 343.498 960.599 309.968 960.599 309.968C960.599 309.968 951.039 343.498 930.789 343.498C930.789 343.498 942.699 352.808 960.599 352.808Z" fill="#4D62BD"/>
<path d="M786.749 299.768C794.529 299.768 799.449 296.898 799.449 296.898C790.029 296.898 786.749 270.688 786.749 270.678C786.749 270.678 783.469 296.898 774.049 296.898C774.049 296.898 778.969 299.768 786.749 299.768Z" fill="#4D62BD"/>
<path d="M786.75 315.748C797.65 315.748 804.9 310.078 804.9 310.078C792.57 310.078 786.75 289.668 786.75 289.668C786.75 289.668 780.93 310.078 768.6 310.078C768.6 310.078 775.85 315.748 786.75 315.748Z" fill="#4D62BD"/>
<path d="M786.75 329.408C799.82 329.408 808.51 322.608 808.51 322.608C793.73 322.608 786.75 298.138 786.75 298.138C786.75 298.138 779.78 322.608 764.99 322.608C764.99 322.608 773.68 329.408 786.75 329.408Z" fill="#4D62BD"/>
<path d="M786.75 352.808C804.65 352.808 816.56 343.498 816.56 343.498C796.3 343.498 786.75 309.968 786.75 309.968C786.75 309.968 777.189 343.498 756.939 343.498C756.939 343.498 768.85 352.808 786.75 352.808Z" fill="#4D62BD"/>
<path d="M1361.69 299.768C1369.47 299.768 1374.39 296.898 1374.39 296.898C1364.97 296.898 1361.69 270.688 1361.69 270.678C1361.69 270.678 1358.41 296.898 1348.99 296.898C1348.99 296.898 1353.91 299.768 1361.69 299.768Z" fill="#4D62BD"/>
<path d="M1361.69 315.748C1372.59 315.748 1379.84 310.078 1379.84 310.078C1367.51 310.078 1361.69 289.668 1361.69 289.668C1361.69 289.668 1355.87 310.078 1343.54 310.078C1343.54 310.078 1350.79 315.748 1361.69 315.748Z" fill="#4D62BD"/>
<path d="M1361.69 329.408C1374.76 329.408 1383.45 322.608 1383.45 322.608C1368.67 322.608 1361.69 298.138 1361.69 298.138C1361.69 298.138 1354.72 322.608 1339.93 322.608C1339.93 322.608 1348.62 329.408 1361.69 329.408Z" fill="#4D62BD"/>
<path d="M1361.69 352.808C1379.59 352.808 1391.5 343.498 1391.5 343.498C1371.24 343.498 1361.69 309.968 1361.69 309.968C1361.69 309.968 1352.13 343.498 1331.88 343.498C1331.88 343.498 1343.79 352.808 1361.69 352.808Z" fill="#4D62BD"/>
<path d="M1165.09 238.498C1176.27 238.498 1183.34 234.378 1183.34 234.378C1169.8 234.378 1165.09 196.718 1165.09 196.708C1165.09 196.718 1160.38 234.378 1146.84 234.378C1146.84 234.378 1153.9 238.498 1165.09 238.498Z" fill="#4D62BD"/>
<path d="M1165.09 261.458C1180.75 261.458 1191.17 253.308 1191.17 253.308C1173.45 253.308 1165.09 223.978 1165.09 223.978C1165.09 223.978 1156.73 253.308 1139.01 253.308C1139.01 253.308 1149.43 261.458 1165.09 261.458Z" fill="#4D62BD"/>
<path d="M1165.09 281.078C1183.86 281.078 1196.35 271.308 1196.35 271.308C1175.11 271.308 1165.09 236.138 1165.09 236.138C1165.09 236.138 1155.07 271.308 1133.83 271.308C1133.83 271.308 1146.32 281.078 1165.09 281.078Z" fill="#4D62BD"/>
<path d="M1165.09 314.707C1190.81 314.707 1207.93 301.327 1207.93 301.327C1178.82 301.327 1165.09 253.147 1165.09 253.147C1165.09 253.147 1151.36 301.327 1122.25 301.327C1122.25 301.327 1139.36 314.707 1165.09 314.707Z" fill="#4D62BD"/>
<path d="M1165.09 352.807C1198.43 352.807 1220.6 335.467 1220.6 335.467C1182.88 335.467 1165.09 273.027 1165.09 273.027C1165.09 273.027 1147.3 335.467 1109.58 335.467C1109.58 335.467 1131.76 352.807 1165.09 352.807Z" fill="#4D62BD"/>
<defs>
<linearGradient id="paint0_linear_677_834" x1="662.2" y1="103.158" x2="744.91" y2="380.428" gradientUnits="userSpaceOnUse">
<stop offset="0.3" stop-color="#FFB8BF"/>
<stop offset="0.53" stop-color="#FFB0BD"/>
<stop offset="0.87" stop-color="#FF9CBA"/>
<stop offset="1" stop-color="#FF92B9"/>
</linearGradient>
<linearGradient id="paint1_linear_677_834" x1="1285.83" y1="333.028" x2="1285.83" y2="115.088" gradientUnits="userSpaceOnUse">
<stop stop-color="white"/>
<stop offset="0.01" stop-color="#FAFBFD"/>
<stop offset="0.15" stop-color="#D6D8F4"/>
<stop offset="0.29" stop-color="#B8BCEC"/>
<stop offset="0.44" stop-color="#A0A6E5"/>
<stop offset="0.6" stop-color="#8F97E1"/>
<stop offset="0.78" stop-color="#868DDE"/>
<stop offset="1" stop-color="#838BDE"/>
</linearGradient>
<linearGradient id="paint2_linear_677_834" x1="1352.22" y1="147.398" x2="1405.99" y2="200.208" gradientUnits="userSpaceOnUse">
<stop stop-color="white" stop-opacity="0"/>
<stop offset="0.08" stop-color="white" stop-opacity="0.0144"/>
<stop offset="0.28" stop-color="white" stop-opacity="0.1444"/>
<stop offset="0.46" stop-color="white" stop-opacity="0.36"/>
<stop offset="0.63" stop-color="white" stop-opacity="0.5929"/>
<stop offset="0.78" stop-color="white" stop-opacity="0.81"/>
<stop offset="0.91" stop-color="white" stop-opacity="0.9409"/>
<stop offset="1" stop-color="white"/>
</linearGradient>
<linearGradient id="paint3_linear_677_834" x1="1037.5" y1="0.0576172" x2="1037.5" y2="329.058" gradientUnits="userSpaceOnUse">
<stop stop-color="#6977FF"/>
<stop offset="1" stop-color="#BFC5FF"/>
</linearGradient>
<linearGradient id="paint4_linear_677_834" x1="128" y1="28.0576" x2="128" y2="350.058" gradientUnits="userSpaceOnUse">
<stop stop-color="#6977FF"/>
<stop offset="1" stop-color="#BFC5FF"/>
</linearGradient>
<linearGradient id="paint5_linear_677_834" x1="179.78" y1="206.568" x2="348.1" y2="206.568" gradientUnits="userSpaceOnUse">
<stop stop-color="white" stop-opacity="0"/>
<stop offset="0.09" stop-color="white" stop-opacity="0.01"/>
<stop offset="0.27" stop-color="white" stop-opacity="0.0441"/>
<stop offset="0.51" stop-color="white" stop-opacity="0.2025"/>
<stop offset="0.81" stop-color="white" stop-opacity="0.5929"/>
<stop offset="1" stop-color="white"/>
</linearGradient>
</defs>
</svg>
