<?xml version="1.0" encoding="UTF-8"?>
<svg id="Layer_1" data-name="Layer 1" xmlns="http://www.w3.org/2000/svg" viewBox="0 0 412 412">
  <defs>
    <style>
      .cls-1 {
        fill: #ffdd35;
      }

      .cls-1, .cls-2, .cls-3, .cls-4, .cls-5, .cls-6, .cls-7, .cls-8, .cls-9, .cls-10, .cls-11, .cls-12, .cls-13, .cls-14, .cls-15, .cls-16, .cls-17 {
        stroke-width: 0px;
      }

      .cls-2 {
        fill: #37ff91;
      }

      .cls-3 {
        fill: #000090;
      }

      .cls-4 {
        fill: #e8ecdf;
      }

      .cls-5 {
        fill: #262626;
      }

      .cls-6 {
        fill: #393630;
      }

      .cls-7 {
        fill: #ff3030;
      }

      .cls-8 {
        fill: #5f93ff;
      }

      .cls-9 {
        fill: #ffcf75;
      }

      .cls-10 {
        fill: #3f2037;
      }

      .cls-11 {
        fill: #ffb000;
      }

      .cls-12 {
        fill: #782fb2;
      }

      .cls-18 {
        opacity: .5;
      }

      .cls-13 {
        fill: #a531ff;
      }

      .cls-14 {
        fill: #490068;
      }

      .cls-15 {
        fill: #1a1918;
      }

      .cls-16 {
        fill: #494949;
      }

      .cls-17 {
        fill: #fff;
      }
    </style>
  </defs>
  <circle class="cls-16" cx="210.82" cy="229.5" r="169"/>
  <g>
    <path class="cls-1" d="M109.54,309.32s-26.26-22.1-10.73-58.17c15.54-36.07,60.93-41.4,104.63-41.41,66.67-.02,146.31,22.93,93.18,99.58,0,0-66.15,43.75-187.08,0Z"/>
    <path class="cls-11" d="M175.31,266.12c-.84,0-1.62-.54-1.9-1.38-4.87-15.09-18.32-24.58-18.46-24.67-.9-.63-1.13-1.87-.5-2.77.63-.9,1.87-1.13,2.77-.5.6.41,14.68,10.32,19.98,26.73.34,1.05-.24,2.17-1.28,2.51-.2.07-.41.1-.61.1Z"/>
    <path class="cls-11" d="M203.59,292.94c-.66,0-1.3-.32-1.68-.92-17.39-27.08-69.12-34.93-69.65-35-1.09-.16-1.84-1.17-1.68-2.26.16-1.09,1.17-1.84,2.26-1.68,2.2.32,54.05,8.18,72.42,36.8.59.93.33,2.16-.6,2.76-.33.21-.71.32-1.08.32Z"/>
    <path class="cls-1" d="M382.96,378.21l-13.54,3.29c-106.7,25.96-218.06,26.11-324.83.44l-15.55-3.74s3.56-44.15,24.92-52.7c8.63-3.46,28.42-13.3,48.95-23.81,28.69-14.69,58.81-30.67,61.88-32.31.17-.09.26-.14.26-.14l2.71.61c3.38.76,6.78,1.41,10.19,1.95,3.37.54,6.75.98,10.14,1.32,18.68,1.83,37.58.55,55.93-3.85.03,0,.06-.01.09-.02,0,0,23.15,11.93,48.96,24.92,3.3,1.66,6.65,3.35,10,5.02,22.82,11.42,45.67,22.58,54.98,26.31,21.36,8.55,24.92,52.7,24.92,52.7Z"/>
    <g>
      <path class="cls-11" d="M222.42,322.01c-19.47,0-35.63-5.13-47.1-10.39-18.15-8.34-28.5-18.54-28.93-18.97-.73-.73-.73-1.9,0-2.63.73-.73,1.9-.73,2.63,0,.1.1,10.39,10.24,27.98,18.29,16.17,7.4,42.03,14.51,73.37,6.35,1-.26,2.01.34,2.27,1.33.26,1-.34,2.01-1.33,2.27-10.24,2.67-19.93,3.76-28.9,3.76Z"/>
      <path class="cls-11" d="M213.25,339.96c-6.28,0-13.17-.63-20.62-2.18-1.01-.21-1.65-1.2-1.44-2.2.21-1.01,1.2-1.65,2.2-1.44,36.79,7.68,59.79-8.45,60.02-8.61.84-.6,2-.41,2.6.43.6.84.41,2-.43,2.6-.79.57-16.27,11.42-42.33,11.42Z"/>
    </g>
    <g>
      <g>
        <path class="cls-13" d="M245.9,278.26s-6.94,21.82-38.84,21.82c-37.2,0-45.96-19.83-45.96-19.83,3.23-8.57,5.45-16.5,6.95-23.59h0c2.76-12.99,3.14-23.2,2.98-29.45l65.36-2.59c.61,5.53,1.59,12.05,2.7,18.6,2.95,17.41,6.8,35.05,6.8,35.05Z"/>
        <path class="cls-10" d="M239.1,243.22c-10.13,7.04-32.26,17.52-71.03,13.44,2.76-12.99,3.14-23.2,2.98-29.45l65.36-2.59c.61,5.53,1.59,12.05,2.7,18.6Z"/>
      </g>
      <g>
        <path class="cls-13" d="M146.09,141.97s-20.23-27.53-35.96-11.24c-15.73,16.29,14.61,73.04,42.14,60.68l-6.18-49.44Z"/>
        <path class="cls-12" d="M136.45,174.5c-.69,0-1.28-.51-1.38-1.2-2.66-19.13-17.86-30.87-18.02-30.98-.61-.47-.73-1.34-.27-1.96s1.34-.73,1.96-.27c.66.5,16.28,12.57,19.09,32.82.11.77-.43,1.47-1.19,1.58-.07,0-.13.01-.19.01Z"/>
        <path class="cls-12" d="M132.21,160.76c-.45,0-.89-.22-1.16-.61-2.03-3-8.1-3.31-10.26-3.17-.78.06-1.43-.54-1.48-1.31-.05-.77.54-1.43,1.31-1.48.38-.02,9.42-.53,12.75,4.4.43.64.26,1.51-.37,1.94-.24.16-.51.24-.78.24Z"/>
      </g>
      <g>
        <path class="cls-13" d="M269.31,141.97s20.23-27.53,35.96-11.24c15.73,16.29-14.61,73.04-42.14,60.68l6.18-49.44Z"/>
        <path class="cls-12" d="M278.96,174.5c-.06,0-.13,0-.19-.01-.76-.11-1.3-.81-1.19-1.58,2.82-20.26,18.43-32.32,19.09-32.83.62-.47,1.49-.35,1.96.27.47.61.35,1.49-.27,1.96-.15.12-15.36,11.9-18.02,30.98-.1.7-.7,1.21-1.38,1.21Z"/>
        <path class="cls-12" d="M283.19,160.76c-.27,0-.54-.08-.78-.24-.64-.43-.81-1.3-.37-1.94,3.33-4.93,12.37-4.42,12.75-4.4.77.05,1.35.71,1.31,1.48-.05.77-.72,1.36-1.48,1.31-2.17-.13-8.24.18-10.26,3.17-.27.4-.71.61-1.16.61Z"/>
      </g>
      <path class="cls-13" d="M224.76,61.72c-56.58-13.8-107.79,37.34-95.03,94.17,9.01,40.11,28.77,90.69,77.33,91.83,50.61,1.19,70.91-53.91,78.14-95.72,6.61-38.26-15.69-75.93-52.59-88.03-2.56-.84-5.17-1.59-7.85-2.24Z"/>
      <path class="cls-5" d="M211.1,190.48c-2.4,0-5.04-.63-7.94-1.89-.82-.35-1.3-1.2-1.18-2.09l4.05-31.07c.14-1.09,1.15-1.86,2.23-1.72,1.09.14,1.86,1.14,1.72,2.23l-3.85,29.54c3.97,1.45,7.03,1.33,9.56-.38.91-.62,2.15-.37,2.77.54.62.91.37,2.15-.54,2.77-2.04,1.38-4.3,2.06-6.82,2.07Z"/>
      <path class="cls-5" d="M207.4,210.96c-11.42,0-20.09-4.72-20.24-4.8-.96-.54-1.31-1.75-.77-2.71.54-.96,1.75-1.31,2.71-.77.97.54,23.04,12.43,42.15-5.24.81-.75,2.07-.7,2.82.11.75.81.7,2.07-.11,2.82-8.86,8.2-18.41,10.6-26.56,10.6Z"/>
      <path class="cls-5" d="M210.64,222.36c-4.51,0-8.13-1.1-8.38-1.18-1.05-.33-1.64-1.45-1.31-2.5.33-1.05,1.44-1.63,2.49-1.31h0c.09.03,8.93,2.7,15.15-.82.96-.54,2.17-.2,2.72.75.54.96.2,2.18-.75,2.72-3.18,1.8-6.77,2.34-9.92,2.34Z"/>
      <path class="cls-14" d="M166.53,119.77c4.29-2.31,10.56-5.15,16.65-6.04,3.27-.48,5.33-3.77,4.22-6.89l-.23-.63c-.81-2.25-3.04-3.66-5.42-3.41-5.44.58-15.07,2.48-21.36,8.75-1.36,1.36-1.83,3.37-1.26,5.21h0c.98,3.1,4.53,4.55,7.39,3.02Z"/>
      <path class="cls-14" d="M251.05,133.77c-4.29-2.31-10.56-5.15-16.65-6.04-3.27-.48-5.33-3.77-4.22-6.89l.23-.63c.81-2.25,3.04-3.66,5.42-3.41,5.44.58,15.07,2.48,21.36,8.75,1.36,1.36,1.83,3.37,1.26,5.21h0c-.98,3.1-4.53,4.55-7.39,3.02Z"/>
      <g class="cls-18">
        <path class="cls-12" d="M183.14,169.62c0,4.89-9.03,8.85-20.17,8.85s-20.17-3.96-20.17-8.85,9.03-8.85,20.17-8.85,20.17,3.96,20.17,8.85Z"/>
      </g>
      <g class="cls-18">
        <path class="cls-12" d="M278.01,169.62c0,4.89-9.03,8.85-20.17,8.85s-20.17-3.96-20.17-8.85,9.03-8.85,20.17-8.85,20.17,3.96,20.17,8.85Z"/>
      </g>
      <path class="cls-14" d="M131.83,164.61s-10.63-58.55-7.34-71.94c3.28-13.39,10.14-10.94,10.14-10.94,0,0-56.44-22.72-27.93-49.35,20.63-19.27,43.49-2.28,43.49-2.28,0,0-10.87-16.3,5.84-21.86,20.83-6.94,29.37,17.4,29.37,17.4,0,0-.84-12,16.09-11.28,23.47.99,9.37,3.85,34.82,14.43,25.45,10.58,63.91,15.95,50.04,58.6,0,0,18.67-.82-4.56,75.28h0c-6-8.34-9-18.46-8.51-28.72.38-7.87.34-16.99-1.27-22.6,0,0-14.55-10.16-13.88-25.04,0,0-51.24,30.41-98.51,3.31,0,0,2.98,17.52-11.9,20.17,0,0-4.86,11.4-6.46,27.61-.93,9.4-3.93,18.48-8.95,26.48l-.47.74Z"/>
      <path class="cls-14" d="M281.61,60.63s8.1-27.63,21.17-20.56c9.33,5.05-12.41,26.07-12.41,26.07,0,0,18.29-9.89,27.32-2.92,9.02,6.97-14.92,15.2-28.72,12.84-13.8-2.36-7.35-15.43-7.35-15.43Z"/>
      <g>
        <path class="cls-14" d="M184.55,146.42c.09,5.4-1.9,9.82-4.45,9.86-2.55.04-4.7-4.3-4.79-9.7-.09-5.4,1.9-9.82,4.45-9.86,2.55-.04,4.7,4.3,4.79,9.7Z"/>
        <path class="cls-3" d="M232.83,146.42c-.09,5.4,1.9,9.82,4.45,9.86,2.55.04,4.7-4.3,4.79-9.7.09-5.4-1.9-9.82-4.45-9.86-2.55-.04-4.7,4.3-4.79,9.7Z"/>
      </g>
    </g>
    <path class="cls-17" d="M154.27,323.63v81.37h-3.99v-81.37c0-.65.15-1.25.39-1.73.37-.72.95-1.19,1.6-1.19.96,0,1.77,1,1.95,2.34.03.19.04.38.04.58Z"/>
    <path class="cls-17" d="M265.13,323.63v81.37h-3.99v-81.37c0-1.61.89-2.92,1.99-2.92.88,0,1.63.85,1.89,2.01.07.28.11.59.11.92Z"/>
  </g>
  <polygon class="cls-9" points="133.32 154 200.32 154 198.32 140 138.32 140 133.32 154"/>
  <polygon class="cls-8" points="134.32 169 195.32 169 198.32 155 133.32 155 134.32 169"/>
  <polygon class="cls-7" points="141.32 139 198.24 139 193.24 132 150.32 133 141.32 139"/>
  <polygon class="cls-2" points="149.32 190 167.24 190 179.24 185 140.32 185 149.32 190"/>
  <polygon class="cls-7" points="140.32 184 180.32 184 194.32 170 135.32 170 140.32 184"/>
  <polygon class="cls-9" points="281.32 154 214.32 154 216.32 140 276.32 140 281.32 154"/>
  <polygon class="cls-8" points="280.32 169 219.32 169 216.32 155 281.32 155 280.32 169"/>
  <polygon class="cls-7" points="273.32 139 216.4 139 221.4 132 264.32 133 273.32 139"/>
  <polygon class="cls-2" points="265.32 190 247.4 190 235.4 185 274.32 185 265.32 190"/>
  <polygon class="cls-7" points="274.32 184 234.32 184 220.32 170 279.32 170 274.32 184"/>
  <g id="_909nGU" data-name="909nGU">
    <g>
      <path class="cls-15" d="M287.16,149.2c.03.22.07.44.1.66-.16.48-.43.95-.47,1.44-.16,1.98-.25,3.97-.37,5.95-2.07,1.06-2.83,2.8-3.14,5.08-.62,4.47-1.26,8.97-2.42,13.31-2.68,10.02-9.54,15.45-19.72,16.53-10.63,1.13-20.73-.86-29.85-6.53-8.96-5.57-14.21-14.03-17.33-23.94-.6-1.91-1.1-3.85-1.7-5.76-.85-2.73-2.62-4.17-5.05-4.19-2.5-.02-4.33,1.45-5.19,4.24-.97,3.19-1.58,6.52-2.89,9.56-6.56,15.25-18.18,24.05-34.56,26.6-1.01.16-2.04.2-3.06.3-1.26-.1-2.51-.27-3.77-.28-.8,0-1.61.2-2.42.32-13.23-.8-19.94-7.92-22.43-18.7-.9-3.89-1.39-7.88-1.92-11.84-.27-1.98-.98-3.46-2.76-4.51-.6-.36-1.09-1.34-1.16-2.08-.17-1.78-.13-3.6,0-5.39.03-.46.62-1.19,1.06-1.27,1.72-.35,3.03-1.23,4.06-2.58.56-.73,1.13-1.48,1.54-2.3,4-7.95,11.03-11.58,19.27-13.36,6.62-1.43,13.38-1.29,20.11-1.32,25.22-.1,50.45-.19,75.68-.2,6.5,0,12.9.9,19.01,3.29,5.59,2.19,10.02,5.74,12.81,11.18,1.06,2.06,2.3,4.03,4.59,5,.21.07.42.14.63.21.33.06.66.11.99.17.12.13.24.26.36.4ZM219.73,164.1c.31.68.63,1.35.94,2.03,1.74,4.32,4.35,8.04,7.72,11.24.51.43,1.01.86,1.52,1.29.07.13.1.31.21.4,5.22,4.48,11.24,7.25,18.01,8.42,1.45.22,2.91.44,4.36.66,2.89-.05,5.8.14,8.65-.23,2.4-.3,4.84-.97,7.04-1.97,3.14-1.42,5.57-3.76,6.6-7.24.22-.46.44-.92.66-1.39.58-4.01,1.16-8.01,1.75-12.02.03-.41.06-.82.09-1.23,0-2.8-.01-5.6-.02-8.39-.03-.5-.06-.99-.08-1.49-.13-3.12-.71-6.13-2.15-8.93-.28-.35-.56-.7-.84-1.04-1.08-1.31-1.99-2.84-3.28-3.9-4.54-3.71-9.95-5.39-15.67-6.19-6.24-.87-12.48-.48-18.71.17-3.93.41-7.86.81-11.56,2.31-3.62,1.47-6.47,3.72-7.59,7.68-.12.4-.23.81-.35,1.21-1.14,2.9-.61,5.81-.05,8.72.05.41.1.82.15,1.23.87,2.88,1.74,5.77,2.61,8.65ZM197.18,155.46c.05-.42.1-.83.16-1.25.6-2.91,1.07-5.81-.04-8.71-.12-.4-.24-.81-.35-1.21-.6-1.18-1.04-2.47-1.81-3.51-2.67-3.61-6.69-4.92-10.81-5.61-7.45-1.23-14.97-1.96-22.55-1.34-5.86.48-11.46,1.86-16.46,5.07-2.09,1.34-4.18,2.8-5.18,5.27-.28.38-.57.76-.85,1.14-1.46,2.78-1.99,5.78-2.12,8.87-.02.43-.05.86-.07,1.29-.01,3.06-.03,6.12-.04,9.18-.02.21-.04.42-.05.63-.05.45-.18.91-.12,1.34.36,2.44.74,4.88,1.16,7.3.18,1.06.5,2.09.75,3.13.25.55.51,1.1.76,1.64.09.33.13.69.28,1,1.74,3.54,4.55,5.89,8.24,7.13,4.48,1.49,9.11,1.74,13.78,1.33,1.45-.22,2.89-.44,4.34-.66,1.34-.3,2.7-.51,4.02-.91,5.39-1.61,10.34-4.04,14.43-8.01l1.3-1.2c3.54-3.32,6.15-7.27,7.98-11.75.22-.51.45-1.02.67-1.53.87-2.88,1.73-5.75,2.6-8.63ZM207.12,136.65c-1.69,0-3.38.02-5.07,0-1.06-.02-1.37.44-1.08,1.44.75,2.55,1.42,5.13,2.24,7.65.15.46.88,1.01,1.37,1.05,1.73.13,3.48.12,5.22,0,.46-.03,1.14-.54,1.28-.97.82-2.53,1.5-5.1,2.25-7.65.31-1.05.03-1.55-1.13-1.52-1.69.04-3.38.01-5.07.01Z"/>
      <path class="cls-6" d="M286.42,157.26c.12-1.99.21-3.97.37-5.95.04-.49.31-.96.47-1.44.03,1.93.12,3.87.03,5.79-.02.54-.57,1.07-.87,1.6Z"/>
      <path class="cls-6" d="M155.33,192.49c.81-.11,1.61-.33,2.42-.32,1.26.02,2.51.18,3.77.28-2.06.01-4.12.02-6.18.03Z"/>
      <path class="cls-6" d="M285.81,148.64c-.21-.07-.42-.14-.63-.21.21.07.42.14.63.21Z"/>
      <path class="cls-6" d="M287.16,149.2c-.12-.13-.24-.26-.36-.4.12.13.24.26.36.4Z"/>
      <path class="cls-4" d="M274.11,144.4c-.11,0-.21.02-.32.02.11,0,.21-.02.32-.02Z"/>
    </g>
  </g>
</svg>