<svg width="392" height="430" viewBox="0 0 392 430" fill="none" xmlns="http://www.w3.org/2000/svg">
<g clip-path="url(#clip0_1023_1525)">
<path d="M156.615 284C163.169 283.951 169.754 284.037 176.308 284V303.714H186.154V244.571H205.846V284H215.692V274.143C218.966 274.143 222.265 274.143 225.538 274.143C225.588 280.704 225.501 287.296 225.538 293.863C228.812 293.875 232.111 293.832 235.391 293.863C235.415 297.141 235.372 300.443 235.391 303.72H245.237C245.274 300.443 245.182 297.141 245.237 293.863C255.071 293.912 264.942 293.789 274.775 293.863C274.831 297.141 274.738 300.449 274.775 303.726C278.049 303.763 281.354 303.671 284.628 303.726C284.702 313.571 284.554 323.453 284.628 333.298C281.354 333.353 278.055 333.261 274.782 333.298V343.155H264.935V353.012H127.077V343.155H117.231V333.298C113.957 333.261 110.658 333.353 107.385 333.298C107.434 326.737 107.335 320.145 107.385 313.584C110.658 313.528 113.963 313.621 117.237 313.584C117.274 310.306 117.181 306.998 117.237 303.72C123.791 303.671 130.375 303.751 136.929 303.72C136.985 306.998 136.892 310.3 136.929 313.577H146.775C146.794 310.3 146.751 306.998 146.775 303.72C150.049 303.696 153.348 303.739 156.628 303.72C156.658 297.159 156.572 290.567 156.628 284H156.615ZM235.385 323.428C235.36 320.151 235.403 316.849 235.385 313.571H215.692V323.428C222.246 323.465 228.831 323.379 235.385 323.428C235.434 329.99 235.348 336.582 235.385 343.143H245.231V323.428C241.957 323.41 238.658 323.453 235.385 323.428ZM156.615 333.286C153.341 333.341 150.043 333.249 146.769 333.286V343.143H156.615C156.652 339.865 156.56 336.563 156.615 333.286C159.889 333.23 163.188 333.323 166.461 333.286V323.428H156.615C156.578 326.706 156.671 330.008 156.615 333.286Z" fill="#002A14"/>
<path d="M176.308 234.714C176.332 231.437 176.289 228.134 176.308 224.857H215.692C215.711 228.134 215.668 231.437 215.692 234.714C202.585 234.813 189.415 234.813 176.308 234.714Z" fill="#002A14"/>
<path d="M205.846 86.8573C205.846 90.1348 205.846 93.4369 205.846 96.7206C209.12 96.7575 212.425 96.6651 215.698 96.7206C215.754 99.9981 215.662 103.306 215.698 106.584C218.972 106.621 222.277 106.528 225.551 106.584C225.6 113.145 225.514 119.737 225.551 126.298H166.474C166.511 119.737 166.425 113.145 166.474 106.584C169.748 106.528 173.052 106.621 176.326 106.584C176.363 103.306 176.271 99.9981 176.326 96.7206C179.6 96.6651 182.905 96.7575 186.178 96.7206C186.178 93.4431 186.166 90.1409 186.178 86.8573C192.726 86.808 199.323 86.808 205.871 86.8573H205.846Z" fill="#002A14"/>
<path d="M245.231 175.571C245.286 178.849 245.194 182.157 245.231 185.435C248.505 185.472 251.809 185.379 255.083 185.435C255.157 195.279 255.028 205.161 255.083 215.012C251.809 215.025 248.511 214.981 245.231 215.012C245.175 211.735 245.268 208.433 245.231 205.155H235.385V175.584C238.658 175.584 241.957 175.584 245.231 175.584V175.571Z" fill="#002A14"/>
<path d="M146.769 175.571C150.043 175.571 153.342 175.571 156.615 175.571V205.143H146.769C146.732 208.42 146.825 211.722 146.769 215C143.495 214.975 140.197 215.018 136.917 215C136.979 205.155 136.843 195.273 136.917 185.422C140.191 185.367 143.495 185.459 146.769 185.422C146.806 182.145 146.714 178.837 146.769 175.559V175.571Z" fill="#002A14"/>
<path d="M205.846 155.857C205.895 162.412 205.895 169.017 205.846 175.572C199.298 175.621 192.702 175.621 186.154 175.572C186.105 169.017 186.105 162.412 186.154 155.857C192.702 155.808 199.298 155.808 205.846 155.857Z" fill="#002A14"/>
<path d="M166.461 215C166.332 188.725 166.56 162.419 166.461 136.143H225.538C225.44 162.419 225.668 188.725 225.538 215C205.858 215.043 186.141 215.043 166.461 215ZM186.154 155.857C182.88 155.882 179.581 155.839 176.308 155.857V175.572C179.581 175.59 182.88 175.547 186.154 175.572C186.178 178.849 186.135 182.151 186.154 185.429H205.846C205.865 182.151 205.821 178.849 205.846 175.572C209.12 175.547 212.418 175.59 215.692 175.572V155.857C212.418 155.839 209.12 155.882 205.846 155.857C205.821 152.58 205.865 149.278 205.846 146H186.154C186.135 149.278 186.178 152.58 186.154 155.857Z" fill="#002A14"/>
<path d="M166.462 106.572C166.412 113.133 166.498 119.725 166.462 126.286H225.538C225.502 119.725 225.588 113.133 225.538 106.572C228.812 106.627 232.111 106.535 235.385 106.572V165.714H245.231C245.268 168.992 245.175 172.294 245.231 175.572C241.957 175.572 238.658 175.572 235.385 175.572V205.143H245.231C245.268 208.42 245.175 211.723 245.231 215C238.677 215.049 232.092 214.988 225.538 215C225.668 188.725 225.44 162.418 225.538 136.143H166.462C166.56 162.418 166.332 188.725 166.462 215C159.908 214.988 153.323 215.049 146.769 215C146.825 211.723 146.732 208.42 146.769 205.143H156.615V175.572C153.342 175.572 150.043 175.572 146.769 175.572C146.825 172.294 146.732 168.992 146.769 165.714H156.615V106.572C159.889 106.535 163.188 106.627 166.462 106.572Z" fill="#76EDB9"/>
<path d="M225.539 274.143H235.391C235.422 280.704 235.336 287.296 235.391 293.857C232.117 293.833 228.819 293.876 225.539 293.857C225.508 287.296 225.594 280.704 225.539 274.137V274.143Z" fill="#76EDB9"/>
<path d="M284.615 333.286C284.64 336.563 284.597 339.866 284.615 343.149H324.006V353H264.929V343.143H274.775V333.286C278.049 333.249 281.348 333.341 284.622 333.286H284.615Z" fill="#76EDB9"/>
<path d="M215.692 96.7141C218.966 96.7695 222.271 96.6771 225.545 96.7141C225.557 99.9916 225.514 103.294 225.545 106.577C222.271 106.522 218.966 106.614 215.692 106.577C215.655 103.3 215.748 99.9916 215.692 96.7141Z" fill="#76EDB9"/>
<path d="M107.385 333.286C110.659 333.341 113.957 333.249 117.231 333.286V343.143H127.077V353H87.6924V343.143H107.385C107.403 339.866 107.36 336.563 107.385 333.286Z" fill="#76EDB9"/>
<path d="M146.769 175.571C146.714 178.849 146.806 182.157 146.769 185.435C143.495 185.472 140.191 185.379 136.917 185.435C136.941 182.157 136.898 178.855 136.917 175.571H146.769Z" fill="#76EDB9"/>
<path d="M176.308 96.7141C176.252 99.9916 176.345 103.3 176.308 106.577C173.034 106.614 169.729 106.522 166.455 106.577C166.48 103.3 166.437 99.9977 166.455 96.7141C169.729 96.6771 173.034 96.7695 176.308 96.7141Z" fill="#76EDB9"/>
<path d="M107.385 313.572C107.335 320.133 107.434 326.725 107.385 333.286C104.111 333.23 100.812 333.323 97.5386 333.286V313.572C100.812 313.535 104.111 313.627 107.385 313.572Z" fill="#76EDB9"/>
<path d="M205.846 86.8573C209.12 86.8819 212.418 86.8388 215.698 86.8573C215.735 90.1348 215.643 93.4431 215.698 96.7206C212.425 96.6651 209.12 96.7576 205.846 96.7206C205.846 93.4431 205.846 90.141 205.846 86.8573Z" fill="#76EDB9"/>
<path d="M245.231 175.572H255.083C255.095 178.849 255.052 182.151 255.083 185.429C251.809 185.373 248.505 185.466 245.231 185.429C245.194 182.151 245.286 178.843 245.231 175.565V175.572Z" fill="#76EDB9"/>
<path d="M136.923 185.429C136.849 195.273 136.978 205.155 136.923 215.006C140.197 215.019 143.495 214.975 146.775 215.006C146.72 218.284 146.812 221.586 146.775 224.863H136.929V234.721H127.083V185.435C130.357 185.398 133.655 185.49 136.929 185.435L136.923 185.429Z" fill="#76EDB9"/>
<path d="M255.077 185.428C258.351 185.484 261.649 185.391 264.923 185.428V234.714H255.077V224.857H245.231C245.194 221.58 245.286 218.277 245.231 215C248.505 214.975 251.803 215.018 255.083 215C255.021 205.155 255.157 195.273 255.083 185.422L255.077 185.428Z" fill="#76EDB9"/>
<path d="M225.538 215C225.508 221.561 225.557 228.153 225.538 234.72C222.265 234.733 218.966 234.69 215.686 234.72C215.662 231.443 215.705 228.141 215.686 224.863H176.302C176.283 228.141 176.326 231.443 176.302 234.72C173.028 234.696 169.729 234.739 166.449 234.72C166.431 228.159 166.486 221.567 166.449 215C186.129 215.043 205.846 215.043 225.526 215H225.538Z" fill="#76EDB9"/>
<path d="M186.154 86.8573C186.148 90.1348 186.154 93.4369 186.154 96.7206C182.88 96.7575 179.575 96.6651 176.301 96.7206C176.357 93.4431 176.265 90.1348 176.301 86.8573C179.575 86.8449 182.874 86.8881 186.154 86.8573Z" fill="#76EDB9"/>
<path d="M215.692 234.714C215.766 244.559 215.637 254.441 215.692 264.286H225.538C225.557 267.563 225.514 270.865 225.538 274.143C222.265 274.143 218.966 274.143 215.692 274.143V284H205.846V244.571H186.154V303.714H176.308V284C169.754 284.037 163.169 283.951 156.615 284C156.64 280.723 156.597 277.42 156.615 274.143H176.308C176.381 261.008 176.209 247.843 176.308 234.714C189.415 234.813 202.585 234.813 215.692 234.714Z" fill="#76EDB9"/>
<path d="M205.846 77V86.8571C199.298 86.8079 192.702 86.8079 186.154 86.8571C186.16 83.5796 186.154 80.2775 186.154 77H205.846Z" fill="#76EDB9"/>
<path d="M284.615 303.714C287.889 303.77 291.188 303.677 294.461 303.714V333.286C291.188 333.322 287.889 333.23 284.615 333.286C284.541 323.441 284.689 313.559 284.615 303.714Z" fill="#76EDB9"/>
<path d="M156.615 284C156.566 290.561 156.652 297.153 156.615 303.72C153.342 303.733 150.043 303.689 146.763 303.72C146.812 297.159 146.726 290.567 146.763 284C150.037 283.988 153.335 284.031 156.615 284Z" fill="#76EDB9"/>
<path d="M245.231 293.857C245.286 290.58 245.194 287.277 245.231 284H274.769C274.806 287.277 274.714 290.58 274.769 293.857C264.935 293.783 255.065 293.906 245.231 293.857Z" fill="#76EDB9"/>
<path d="M117.231 303.714C117.286 300.437 117.194 297.134 117.231 293.857H136.923C136.96 297.134 136.868 300.437 136.923 303.714C130.369 303.745 123.785 303.665 117.231 303.714Z" fill="#76EDB9"/>
<path d="M245.231 293.857C245.175 297.135 245.268 300.437 245.231 303.714H235.385C235.366 300.437 235.409 297.135 235.385 293.857C238.658 293.882 241.957 293.839 245.231 293.857Z" fill="#76EDB9"/>
<path d="M274.769 293.857C278.043 293.882 281.342 293.839 284.622 293.857C284.634 297.135 284.591 300.437 284.622 303.721C281.348 303.665 278.043 303.758 274.769 303.721C274.732 300.443 274.825 297.135 274.769 293.857Z" fill="#76EDB9"/>
<path d="M117.231 303.714C117.175 306.992 117.268 310.3 117.231 313.578C113.957 313.614 110.652 313.522 107.379 313.578C107.403 310.3 107.36 306.998 107.379 303.714C110.652 303.702 113.951 303.745 117.231 303.714Z" fill="#76EDB9"/>
<path d="M146.769 303.714C146.745 306.992 146.788 310.294 146.769 313.571H136.923C136.886 310.294 136.978 306.992 136.923 303.714C140.197 303.696 143.495 303.739 146.769 303.714Z" fill="#76EDB9"/>
<path d="M77.8462 343.143H68V353H77.8462V343.143Z" fill="#76EDB9"/>
<path d="M235.385 323.428C228.831 323.379 222.246 323.465 215.692 323.428V313.571H235.385C235.403 316.849 235.36 320.151 235.385 323.428C238.659 323.453 241.957 323.41 245.231 323.428V343.143H235.385C235.348 336.582 235.434 329.99 235.385 323.428Z" fill="#76EDB9"/>
<path d="M156.615 333.286C156.671 330.008 156.579 326.706 156.615 323.429H166.462V333.286C163.188 333.323 159.889 333.23 156.615 333.286C156.56 336.563 156.652 339.865 156.615 343.143H146.769V333.286C150.043 333.249 153.342 333.341 156.615 333.286Z" fill="#76EDB9"/>
<path d="M205.846 175.571C205.822 178.849 205.865 182.151 205.846 185.428H186.154C186.135 182.151 186.179 178.849 186.154 175.571C192.702 175.621 199.299 175.621 205.846 175.571Z" fill="#76EDB9"/>
<path d="M205.846 155.857C209.12 155.882 212.418 155.839 215.692 155.857V175.572C212.418 175.59 209.12 175.547 205.846 175.572C205.895 169.017 205.895 162.412 205.846 155.857Z" fill="#76EDB9"/>
<path d="M186.154 155.857C186.105 162.412 186.105 169.017 186.154 175.572C182.88 175.547 179.581 175.59 176.308 175.572V155.857C179.581 155.839 182.88 155.882 186.154 155.857Z" fill="#76EDB9"/>
<path d="M186.154 155.857C186.179 152.58 186.135 149.278 186.154 146H205.846C205.865 149.278 205.822 152.58 205.846 155.857C199.299 155.808 192.702 155.808 186.154 155.857Z" fill="#76EDB9"/>
</g>
<defs>
<clipPath id="clip0_1023_1525">
<rect width="256" height="276" fill="white" transform="translate(68 77)"/>
</clipPath>
</defs>
</svg>
