<svg width="18" height="19" viewBox="0 0 18 19" fill="none" xmlns="http://www.w3.org/2000/svg">
<g clip-path="url(#clip0_26_186)">
<path d="M9 0.500244C4.02918 0.500244 0 4.52998 0 9.50025C0 14.4705 4.02918 18.5002 9 18.5002C13.9708 18.5002 18 14.4705 18 9.50018C18 4.52992 13.9708 0.500244 9 0.500244ZM14.9056 4.85622C15.8731 6.08474 16.4654 7.61918 16.5121 9.28924C14.4927 8.93544 12.7513 8.92475 11.2465 9.16325C11.0559 8.72561 10.8596 8.30039 10.6582 7.88864C12.272 7.22491 13.7193 6.25682 14.9056 4.85622ZM13.87 3.78074C12.8103 5.06716 11.48 5.95252 9.97476 6.55501C9.01118 4.76965 8.02011 3.2818 7.22811 2.19564C7.79681 2.05668 8.3891 1.98247 8.99944 1.98247C10.8573 1.98185 12.5572 2.66078 13.87 3.78074ZM5.76844 2.71367C6.53399 3.7357 7.55268 5.21619 8.54889 7.03139C6.43729 7.61133 4.07533 7.76772 1.6847 7.77445C2.21231 5.53798 3.7389 3.68398 5.76844 2.71367ZM1.48272 9.49957L1.4889 9.25655H1.52937C4.20799 9.25655 6.86746 9.08108 9.25191 8.37849C9.42967 8.74019 9.60459 9.11141 9.77562 9.49339C6.6386 10.4131 4.68277 12.4774 3.34235 14.4417C2.18586 13.1205 1.48272 11.3908 1.48272 9.49957ZM4.43809 15.4689C5.70709 13.5575 7.47557 11.6664 10.3533 10.8721C11.0255 12.5945 11.574 14.4743 11.8642 16.4487C10.9811 16.8155 10.0142 17.018 9.00056 17.018C7.28545 17.018 5.70375 16.4403 4.43809 15.4689ZM13.2469 15.6995C12.9392 13.8956 12.4352 12.1749 11.8282 10.5797C13.1434 10.4126 14.6553 10.4531 16.408 10.7754C16.0576 12.8127 14.8865 14.5728 13.2469 15.6995Z" fill="#B0A3E7"/>
</g>
<defs>
<clipPath id="clip0_26_186">
<rect width="18" height="18" fill="white" transform="translate(0 0.5)"/>
</clipPath>
</defs>
</svg>
