<?xml version="1.0" encoding="UTF-8"?>
<svg id="Layer_1" data-name="Layer 1" xmlns="http://www.w3.org/2000/svg" xmlns:xlink="http://www.w3.org/1999/xlink" viewBox="0 0 600 433">
  <defs>
    <style>
      .cls-1 {
        fill: #f4e1d6;
      }

      .cls-1, .cls-2, .cls-3, .cls-4, .cls-5, .cls-6, .cls-7, .cls-8, .cls-9, .cls-10, .cls-11, .cls-12, .cls-13, .cls-14, .cls-15, .cls-16, .cls-17, .cls-18, .cls-19, .cls-20, .cls-21, .cls-22, .cls-23, .cls-24, .cls-25, .cls-26, .cls-27, .cls-28, .cls-29, .cls-30, .cls-31, .cls-32, .cls-33, .cls-34, .cls-35, .cls-36, .cls-37, .cls-38, .cls-39, .cls-40, .cls-41, .cls-42, .cls-43, .cls-44, .cls-45, .cls-46, .cls-47, .cls-48, .cls-49 {
        stroke-width: 0px;
      }

      .cls-2 {
        fill: #7c2bd5;
      }

      .cls-3 {
        fill: #a000cb;
      }

      .cls-4 {
        fill: #12005d;
      }

      .cls-5 {
        fill: #792f9f;
      }

      .cls-6 {
        fill: #070000;
      }

      .cls-7 {
        fill: #9e60b3;
      }

      .cls-8 {
        fill: #eb87dc;
      }

      .cls-9 {
        fill: url(#linear-gradient);
      }

      .cls-10 {
        fill: #e21ed6;
      }

      .cls-11 {
        fill: url(#linear-gradient-25);
      }

      .cls-12 {
        fill: url(#linear-gradient-11);
      }

      .cls-13 {
        fill: url(#linear-gradient-12);
      }

      .cls-14 {
        fill: url(#linear-gradient-13);
      }

      .cls-15 {
        fill: url(#linear-gradient-10);
      }

      .cls-16 {
        fill: url(#linear-gradient-17);
      }

      .cls-17 {
        fill: url(#linear-gradient-16);
      }

      .cls-18 {
        fill: url(#linear-gradient-19);
      }

      .cls-19 {
        fill: url(#linear-gradient-15);
      }

      .cls-20 {
        fill: url(#linear-gradient-23);
      }

      .cls-21 {
        fill: url(#linear-gradient-21);
      }

      .cls-22 {
        fill: url(#linear-gradient-18);
      }

      .cls-23 {
        fill: url(#linear-gradient-14);
      }

      .cls-24 {
        fill: url(#linear-gradient-22);
      }

      .cls-25 {
        fill: url(#linear-gradient-20);
      }

      .cls-26 {
        fill: url(#linear-gradient-24);
      }

      .cls-27 {
        fill: url(#linear-gradient-26);
      }

      .cls-28 {
        isolation: isolate;
        opacity: .5;
      }

      .cls-28, .cls-48 {
        fill: #fff;
      }

      .cls-29 {
        fill: #8211f4;
      }

      .cls-30 {
        fill: #000;
      }

      .cls-31 {
        fill: #6626cb;
      }

      .cls-32 {
        fill: #7928fe;
      }

      .cls-33 {
        fill: #d600bf;
      }

      .cls-34 {
        fill: #9c2fff;
      }

      .cls-35 {
        fill: #af44c9;
      }

      .cls-36 {
        fill: #5501a1;
      }

      .cls-37 {
        fill: url(#linear-gradient-4);
      }

      .cls-38 {
        fill: url(#linear-gradient-2);
      }

      .cls-39 {
        fill: url(#linear-gradient-3);
      }

      .cls-40 {
        fill: url(#linear-gradient-8);
      }

      .cls-41 {
        fill: url(#linear-gradient-9);
      }

      .cls-42 {
        fill: url(#linear-gradient-7);
      }

      .cls-43 {
        fill: url(#linear-gradient-5);
      }

      .cls-44 {
        fill: url(#linear-gradient-6);
      }

      .cls-45 {
        fill: #ffafec;
      }

      .cls-46 {
        fill: #9845ff;
      }

      .cls-47 {
        fill: #ff93ef;
      }

      .cls-49 {
        fill: #433454;
      }
    </style>
    <linearGradient id="linear-gradient" x1="313.95" y1="946.6" x2="313.95" y2="1140.4" gradientTransform="translate(0 -766)" gradientUnits="userSpaceOnUse">
      <stop offset="0" stop-color="#f4e1d6"/>
      <stop offset="1" stop-color="#af44c9"/>
    </linearGradient>
    <linearGradient id="linear-gradient-2" x1="295.4" y1="1046.9" x2="209.9" y2="882.3" gradientTransform="translate(0 -766)" gradientUnits="userSpaceOnUse">
      <stop offset="0" stop-color="#f4e1d6"/>
      <stop offset="1" stop-color="#fff"/>
    </linearGradient>
    <linearGradient id="linear-gradient-3" x1="185.61" y1="985.2" x2="150.11" y2="917" gradientTransform="translate(0 -766)" gradientUnits="userSpaceOnUse">
      <stop offset="0" stop-color="#f4e1d6"/>
      <stop offset="1" stop-color="#fff"/>
    </linearGradient>
    <linearGradient id="linear-gradient-4" x1="45.35" y1="1133.29" x2="167.45" y2="1133.29" gradientTransform="translate(0 -766)" gradientUnits="userSpaceOnUse">
      <stop offset="0" stop-color="#fff"/>
      <stop offset="1" stop-color="#af44c9"/>
    </linearGradient>
    <linearGradient id="linear-gradient-5" x1="155.9" y1="1064.01" x2="342.4" y2="1064.01" gradientTransform="translate(0 -766)" gradientUnits="userSpaceOnUse">
      <stop offset="0" stop-color="#0b1524"/>
      <stop offset="1" stop-color="#12005d"/>
    </linearGradient>
    <linearGradient id="linear-gradient-6" x1="291.5" y1="1007.6" x2="374.5" y2="1007.6" gradientTransform="translate(0 -766)" gradientUnits="userSpaceOnUse">
      <stop offset="0" stop-color="#12005d"/>
      <stop offset="1" stop-color="#590bc9"/>
    </linearGradient>
    <linearGradient id="linear-gradient-7" x1="172.4" y1="1074.25" x2="410.6" y2="1074.25" gradientTransform="translate(0 -766)" gradientUnits="userSpaceOnUse">
      <stop offset="0" stop-color="#12005d"/>
      <stop offset="1" stop-color="#6e28d3"/>
    </linearGradient>
    <linearGradient id="linear-gradient-8" x1="255.66" y1="1027.92" x2="271.56" y2="1071.72" gradientTransform="translate(0 -766)" gradientUnits="userSpaceOnUse">
      <stop offset="0" stop-color="#12005d"/>
      <stop offset="1" stop-color="#9f6787"/>
    </linearGradient>
    <linearGradient id="linear-gradient-9" x1="146.4" y1="1094.07" x2="178.28" y2="1094.07" gradientTransform="translate(0 -766)" gradientUnits="userSpaceOnUse">
      <stop offset="0" stop-color="#12005d"/>
      <stop offset="1" stop-color="#9845ff"/>
    </linearGradient>
    <linearGradient id="linear-gradient-10" x1="340.05" y1="1065.74" x2="404.45" y2="1015.64" gradientTransform="translate(0 -766)" gradientUnits="userSpaceOnUse">
      <stop offset="0" stop-color="#12005d"/>
      <stop offset="1" stop-color="#dab7c4"/>
    </linearGradient>
    <linearGradient id="linear-gradient-11" x1="363.99" y1="1018.59" x2="388.68" y2="999.3" gradientTransform="translate(0 -766)" gradientUnits="userSpaceOnUse">
      <stop offset="0" stop-color="#12005d"/>
      <stop offset="1" stop-color="#a40ce0"/>
    </linearGradient>
    <linearGradient id="linear-gradient-12" x1="355.31" y1="929" x2="386.21" y2="982.4" gradientTransform="translate(0 -766)" gradientUnits="userSpaceOnUse">
      <stop offset="0" stop-color="#fff"/>
      <stop offset="1" stop-color="#f4e1d6"/>
    </linearGradient>
    <linearGradient id="linear-gradient-13" x1="367.09" y1="945.25" x2="413.49" y2="950.05" gradientTransform="translate(0 -766)" gradientUnits="userSpaceOnUse">
      <stop offset="0" stop-color="#f4e1d6"/>
      <stop offset="1" stop-color="#af44c9"/>
    </linearGradient>
    <linearGradient id="linear-gradient-14" x1="349.09" y1="939.67" x2="369.39" y2="1000.37" gradientTransform="translate(0 -766)" gradientUnits="userSpaceOnUse">
      <stop offset="0" stop-color="#f4e1d6"/>
      <stop offset="1" stop-color="#af44c9"/>
    </linearGradient>
    <linearGradient id="linear-gradient-15" x1="324.73" y1="925.24" x2="339.43" y2="951.64" gradientTransform="translate(0 -766)" gradientUnits="userSpaceOnUse">
      <stop offset="0" stop-color="#8211f4"/>
      <stop offset="1" stop-color="#5501a1"/>
    </linearGradient>
    <linearGradient id="linear-gradient-16" x1="263.3" y1="850.6" x2="296.7" y2="850.6" gradientTransform="translate(0 -766)" gradientUnits="userSpaceOnUse">
      <stop offset="0" stop-color="#f4e1d6"/>
      <stop offset="1" stop-color="#af44c9"/>
    </linearGradient>
    <linearGradient id="linear-gradient-17" x1="367.85" y1="1019.27" x2="453.32" y2="952.79" gradientTransform="translate(0 -766)" gradientUnits="userSpaceOnUse">
      <stop offset="0" stop-color="#5501a1"/>
      <stop offset="1" stop-color="#8211f4"/>
    </linearGradient>
    <linearGradient id="linear-gradient-18" x1="481.93" y1="944.46" x2="447.03" y2="1004.86" gradientTransform="translate(0 -766)" gradientUnits="userSpaceOnUse">
      <stop offset="0" stop-color="#8211f4"/>
      <stop offset="1" stop-color="#5501a1"/>
    </linearGradient>
    <linearGradient id="linear-gradient-19" x1="456.1" y1="1092.2" x2="420.7" y2="1023.9" gradientTransform="translate(0 -766)" gradientUnits="userSpaceOnUse">
      <stop offset="0" stop-color="#f4e1d6"/>
      <stop offset="1" stop-color="#fff"/>
    </linearGradient>
    <linearGradient id="linear-gradient-20" x1="508.99" y1="1077.49" x2="418.89" y2="1144.59" gradientTransform="translate(0 -766)" gradientUnits="userSpaceOnUse">
      <stop offset="0" stop-color="#f4e1d6"/>
      <stop offset="1" stop-color="#af44c9"/>
    </linearGradient>
    <linearGradient id="linear-gradient-21" x1="335.2" y1="996.75" x2="410.66" y2="996.75" gradientTransform="translate(0 -766)" gradientUnits="userSpaceOnUse">
      <stop offset="0" stop-color="#12005d"/>
      <stop offset="1" stop-color="#af44c9"/>
    </linearGradient>
    <linearGradient id="linear-gradient-22" x1="346.4" y1="986.25" x2="389" y2="986.25" gradientTransform="translate(0 -766)" gradientUnits="userSpaceOnUse">
      <stop offset="0" stop-color="#12005d"/>
      <stop offset="1" stop-color="#af44c9"/>
    </linearGradient>
    <linearGradient id="linear-gradient-23" x1="256.5" y1="978.57" x2="361.38" y2="978.57" gradientTransform="translate(0 -766)" gradientUnits="userSpaceOnUse">
      <stop offset="0" stop-color="#12005d"/>
      <stop offset="1" stop-color="#070000"/>
    </linearGradient>
    <linearGradient id="linear-gradient-24" x1="371.61" y1="964.65" x2="406.61" y2="972.55" gradientTransform="translate(0 -766)" gradientUnits="userSpaceOnUse">
      <stop offset="0" stop-color="#ff93ef"/>
      <stop offset="1" stop-color="#d63ab7"/>
    </linearGradient>
    <linearGradient id="linear-gradient-25" x1="523.5" y1="1025.74" x2="543.9" y2="1025.64" gradientTransform="translate(0 -766)" gradientUnits="userSpaceOnUse">
      <stop offset="0" stop-color="#cd31ff"/>
      <stop offset="1" stop-color="#12005d"/>
    </linearGradient>
    <linearGradient id="linear-gradient-26" x1="519.44" y1="1006.97" x2="519.44" y2="951.51" gradientTransform="translate(0 -766)" gradientUnits="userSpaceOnUse">
      <stop offset="0" stop-color="#fff" stop-opacity=".1"/>
      <stop offset="1" stop-color="#fff" stop-opacity=".5"/>
    </linearGradient>
  </defs>
  <path class="cls-9" d="M314,409.9c105.8,0,191.5-85.7,191.5-191.4S419.7,27,314,27,122.4,112.7,122.4,218.4s85.8,191.4,191.5,191.4l.1.1Z"/>
  <path class="cls-48" d="M340.9,62.8h-9c-2.3,0-4.3-1.9-4.3-4.3v-10.6c2.5-.3,4.5-2.4,4.5-5s-2.3-5.1-5.1-5.1-5.1,2.3-5.1,5.1,2,4.8,4.5,5v10.6c0,3,2.4,5.4,5.4,5.4h9c2.3,0,4.3,1.9,4.3,4.3v24.8c0,.3.3.6.6.6s.6-.3.6-.6v-24.8c0-3-2.4-5.4-5.4-5.4Z"/>
  <path class="cls-1" d="M516.3,25.5c-14.4,0-26,11.6-26,26-1.2-.4-2.5-.6-3.9-.6-7.4,0-13.3,6-13.3,13.3s5.6,12.9,12.6,13.3h30.7c14.4,0,26-11.7,26-26s-11.7-26-26-26h-.1Z"/>
  <path class="cls-1" d="M516.8,433c7.7,0,13.9-6.2,13.9-13.9s-6.2-13.9-13.9-13.9-13.9,6.2-13.9,13.9,6.2,13.9,13.9,13.9Z"/>
  <path class="cls-38" d="M442.9,158.9c-9.4,0-18.5,1.2-27.2,3.5-9.7-47-51.3-56.3-101.2-56.3s-75.4,10.7-88.3,53c-9.6-4.8-30.8-13.5-42.3-13.5-39,0-70.5,31.6-70.5,70.5s.8,12.4,2.4,18.2c-1.7-.1-3.5-.2-5.2-.2-39,0-70.5,31.6-70.5,70.5s31.6,70.5,70.5,70.5h332.3c59.7,0,108.1-48.4,108.1-108.1s-48.4-108.1-108.1-108.1h0Z"/>
  <path class="cls-35" d="M352.2,293.4l-98.8,5.6c-2.5,6.3-3.8,13.1-3.8,20.3,0,24.4,15.7,45,37.6,52.5-4.5-20.9,10.8-70.7,65.1-78.4h-.1Z"/>
  <path class="cls-1" d="M111.1,375c-39.2,0-71.1-31.8-71.1-70.9s31.9-70.9,71.1-70.9,3,0,4.5.1c-1.5-5.7-2.2-11.6-2.2-17.6,0-39.1,31.9-70.9,71.1-70.9s.6.3.6.6-.3.6-.6.6c-38.6,0-69.9,31.3-69.9,69.7s.8,12.2,2.4,18c0,.2,0,.4-.1.5s-.3.2-.5.2c-1.7-.1-3.5-.2-5.2-.2-38.6,0-69.9,31.3-69.9,69.7s31.4,69.7,69.9,69.7.6.3.6.6-.3.6-.6.6h0l-.1.2Z"/>
  <path class="cls-48" d="M175.8,123.1c0-2.8-2.3-5.1-5.1-5.1s-5.1,2.3-5.1,5.1,2,4.8,4.5,5v38.1c0,.3.3.6.6.6s.6-.3.6-.6v-38.1c2.5-.3,4.5-2.4,4.5-5Z"/>
  <path class="cls-1" d="M227.3,36.5c0-4-3.3-7.3-7.3-7.3s-7.3,3.3-7.3,7.3,2.8,6.8,6.5,7.2v19.2c0,.5.4.8.8.8s.8-.4.8-.8v-19.2c3.6-.4,6.5-3.5,6.5-7.2Z"/>
  <path class="cls-48" d="M197.6,151c-.3,0-.6-.3-.6-.6v-33c0-3.5,2.8-6.3,6.3-6.3h6.3c2.8,0,5.2-2.3,5.2-5.2v-51.7c0-.3.3-.6.6-.6s.6.3.6.6v51.7c0,3.5-2.8,6.3-6.3,6.3h-6.3c-2.8,0-5.2,2.3-5.2,5.2v33c0,.3-.3.6-.6.6Z"/>
  <path class="cls-48" d="M352.2,293.4s-.4,0-1.1.3c-.4,0-.8.2-1.3.3-.2,0-.5.2-.8.2s-.6.2-.9.3c-1.3.4-2.8,1-4.4,1.9-.4.2-.8.4-1.3.7-.4.2-.8.5-1.3.8-.4.3-.9.6-1.3.9s-.9.6-1.3,1-.9.7-1.3,1.1c-.2.2-.4.4-.7.6l-.6.6c-.2.2-.4.4-.6.7-.2.2-.4.4-.6.7-.4.5-.8.9-1.2,1.4-.8,1-1.5,2.1-2.2,3.2s-1.3,2.3-1.9,3.6c-1.1,2.5-1.9,5.3-2.4,8.1-.4,2.9-.5,5.8-.2,8.7.3,2.9,1.1,5.7,2.3,8.4.6,1.3,1.3,2.6,2,3.8.8,1.2,1.6,2.3,2.5,3.4,1.8,2.1,3.8,3.9,5.9,5.4s4.2,2.7,6.2,3.7c.3.1.5.2.8.4.3.1.5.2.8.3.5.2,1,.4,1.5.6s1,.4,1.4.5c.5.2.9.3,1.4.5.9.3,1.7.5,2.5.8.8.2,1.5.4,2.1.6.7.1,1.2.3,1.7.4s.9.2,1.3.3c.7.1,1.1.2,1.1.2h-2.4c-.5,0-1.1,0-1.8-.2-.7,0-1.4-.2-2.2-.3-.4,0-.8-.1-1.3-.2-.4,0-.9-.2-1.4-.3-1.9-.4-3.9-1-6.2-1.8-2.2-.8-4.6-1.9-6.9-3.4-2.3-1.4-4.6-3.3-6.7-5.5-1-1.1-2-2.3-2.9-3.6-.9-1.3-1.6-2.7-2.3-4.1-1.3-2.9-2.2-6.1-2.6-9.3-.2-1.6-.3-3.2-.2-4.8,0-1.6.2-3.2.5-4.8.3-1.6.7-3.1,1.2-4.6.2-.7.5-1.5.8-2.2s.6-1.4,1-2.1c.7-1.3,1.4-2.6,2.2-3.8.8-1.2,1.7-2.3,2.6-3.3,1.8-2.1,3.9-3.7,5.8-5,2-1.3,4-2.3,5.8-2.9,1.8-.7,3.4-1.1,4.8-1.4.3,0,.7-.1.9-.2.3,0,.6,0,.8-.1.5,0,1-.1,1.3-.1h1.1v-.4Z"/>
  <path class="cls-35" d="M454.2,394.6c-18.3,0-35.8-6.9-49.2-19.3h-100.1c-30.9,0-56-25.1-56-56s.3-.6.6-.6.6.3.6.6c0,30.2,24.6,54.8,54.8,54.8h100.3c.1,0,.3,0,.4.2,13.2,12.4,30.4,19.2,48.5,19.2s43.3-10.4,56.8-28.4c.2-.3.6-.3.8-.1.3.2.3.5.1.8-6.6,8.8-15.2,16-24.9,21-10.2,5.2-21.2,7.9-32.8,7.9l.1-.1Z"/>
  <path class="cls-35" d="M541,221.7c0-51.4-41.7-93.1-93.2-93.1s-93.2,41.7-93.2,93.1l178.2,38.2c5.2-11.6,8.2-24.6,8.2-38.2h0Z"/>
  <path class="cls-35" d="M527.3,376.9c-.2,0-.4,0-.5-.2-.2-.3-.1-.6.1-.8,5.2-3.6,21.3-19.3,36.8-41.2,13.7-19.3,30.9-49.1,35-81.1,0-.3.3-.5.6-.5s.5.3.5.6c-4.2,32.3-21.5,62.2-35.2,81.6-15.6,22-31.9,37.9-37.1,41.5,0,0-.2.1-.3.1h.1Z"/>
  <path class="cls-39" d="M184.1,287.4c39.3,0,71.2-31.8,71.2-71.1s-31.9-71.1-71.2-71.1-71.2,31.8-71.2,71.1,31.9,71.1,71.2,71.1Z"/>
  <path class="cls-1" d="M131.9,168.4h-.3c-14.7-7.4-20.6-20.9-23-31-2.6-10.9-1.8-21.2-.6-23.5.1-.3.5-.4.8-.3s.4.5.3.8c-.9,1.9-1.9,11.9.7,22.7,2.3,9.8,8.1,23,22.4,30.2.3.1.4.5.3.8-.1.2-.3.3-.5.3h-.1Z"/>
  <path class="cls-1" d="M121.3,104.9c19.1,0,34.5-15.5,34.5-34.5s-15.5-34.5-34.5-34.5-34.5,15.5-34.5,34.5,15.5,34.5,34.5,34.5Z"/>
  <path class="cls-35" d="M172.1,71.4c-6.8.4-13.2,1.7-19.3,3.6v-1c0-19.3-15.7-35.1-35.1-35.1s-12.5,1.7-17.7,4.8l-2.5-4c-.2-.3-.5-.3-.8-.2-11.8,7.2-19,19.5-19.5,33.2-3.8.3-7.7.4-11.8.3-.3,0-.6.2-.6.6,0,.3.2.6.6.6h3.4c2.8,0,5.6-.1,8.3-.3v.3c0,22.3,18.2,40.5,40.5,40.5s15.4-2.2,21.9-6.4c.3-.2.3-.5.2-.8l-2.7-4.3c8.9-5.9,14.9-15.8,15.6-27,6.1-2,12.6-3.3,19.4-3.7.3,0,.6-.3.5-.6,0-.3-.3-.6-.6-.5h.2ZM151.7,75.5c-2.9,1-5.8,2.1-8.5,3.3-1.1-5-3.2-10.3-6.2-15.3l10.2-6.3c2.9,5,4.6,10.8,4.6,17s0,.9,0,1.3h-.1ZM136.5,102.4l-8.6-13.9c4.3-2.9,9.2-5.7,14.4-8.1,1.8,9.5-.2,17.8-5.8,22ZM89.5,93l10.2-6.3c3.4,5.3,7.5,9.8,11.9,13.1-2.9,2.6-5,4.8-6.2,6.1-6.5-2.5-12.1-7.1-15.9-12.8h0v-.1ZM83.8,74.1v-1c3.1-.5,6.2-1.1,9.1-1.9,1.2,4.8,3.3,9.7,6.2,14.4l-10.2,6.4c-3.2-5.2-5.1-11.3-5.1-17.9ZM100.1,85c-2.9-4.7-4.9-9.5-6.1-14.1,4.5-1.3,8.8-2.9,12.7-5,1.5-.8,2.9-1.6,4.3-2.4l6.6,10.6-17.5,10.9h0ZM118.2,75.1l8.1,13.1c-5.5,3.7-10.2,7.5-13.8,10.7-4.4-3.2-8.5-7.7-11.9-12.9l17.5-10.9h.1ZM99.9,45.8l10.5,16.9c-4.9,3-10.6,5.4-16.7,7.2-2.4-10.5-.3-19.9,6.2-24.1h0ZM112,62.9c5.2-3.3,9.6-7.3,13.1-11.7,3.8,3.2,7.3,7.2,10.3,11.8l-16.8,10.5s-6.6-10.6-6.6-10.6ZM111.4,62l-10.5-16.9c2-1,4.2-1.5,6.6-1.5,5.3,0,11.3,2.5,16.7,6.9-3.4,4.4-7.8,8.3-12.8,11.5h0ZM92.6,70.1c-2.8.8-5.8,1.4-8.8,1.9.6-9.2,4.8-17.4,11.3-23.2-3.6,5.2-4.4,12.9-2.5,21.3ZM112.6,100.4c5.1,3.6,10.6,5.7,15.7,5.7s.6,0,1,0c-3.6,1.3-7.4,2-11.5,2s-7.6-.7-11.1-1.9c1.2-1.3,3.3-3.4,6-5.8h-.1ZM128.2,104.9c-4.7,0-9.9-2-14.7-5.4,3.5-3.1,8-6.8,13.4-10.4l8.6,13.9s-.1,0-.2.1c-2.1,1.2-4.5,1.9-7.2,1.9h0l.1-.1ZM127.3,87.5l-8.1-13,16.8-10.5c3,5,5.1,10.3,6.2,15.2-5.4,2.5-10.4,5.3-14.8,8.3h-.1ZM146.5,56.1l-10.2,6.3c-3-4.8-6.6-8.9-10.5-12.2,1.8-2.4,3.3-4.9,4.5-7.6h0c6.7,2.7,12.4,7.5,16.2,13.5h0ZM129.3,42.2c-1.2,2.6-2.7,5.1-4.4,7.4-5.6-4.5-11.8-7.1-17.5-7.1s-1.8,0-2.6.2c4-1.6,8.3-2.5,12.9-2.5s7.9.7,11.5,2h.1ZM96.8,40.9l2.2,3.6c-9.3,5.9-15.7,16.1-16.4,27.7-1.4.2-2.9.4-4.3.5.5-13.1,7.3-24.8,18.5-31.8ZM117.7,113.6c-21.7,0-39.4-17.7-39.4-39.4s0-.3,0-.4c1.5-.1,2.9-.3,4.3-.5v.8c0,6.8,1.9,13.1,5.3,18.5-.1.2-.2.4,0,.6.1.2.3.3.5.3s0,0,.1,0c4,6.1,9.9,10.8,16.8,13.4h0c3.8,1.4,8,2.2,12.3,2.2,6.7,0,12.9-1.9,18.3-5.1,0,0,.1,0,.2-.1l2.3,3.8c-6.2,3.9-13.4,5.9-20.8,5.9h.1ZM141.4,98.4c2.7-4.8,3.3-11.4,2-18.5,2.6-1.2,5.4-2.3,8.2-3.2-.6,8.5-4.4,16.1-10.2,21.7h0Z"/>
  <path class="cls-1" d="M82.5,218.9c-12.2,0-22-3.1-29-6.6-15.2-7.5-24.7-20-26.6-26.4,0-.3,0-.6.4-.7.3,0,.6,0,.7.4,1.4,4.9,9.6,17.6,26,25.7,12.1,6,32.2,10.8,59.4.3.3-.1.6,0,.7.3s0,.6-.3.7c-11.8,4.6-22.2,6.3-31.3,6.3Z"/>
  <path class="cls-1" d="M322.1,67.8c-.3,0-.5-.2-.6-.5-2-25-11.7-43.2-28.7-54.2-22.1-14.2-49.7-11.5-59.6-7.9-.3.1-.6,0-.7-.3-.1-.3,0-.6.3-.7,10.1-3.6,38.1-6.4,60.6,8,17.3,11.1,27.1,29.7,29.2,55,0,.3-.2.6-.5.6h0Z"/>
  <path class="cls-34" d="M192.8,77.9c-.9.7-2.2.8-3.2.2-1.3-.8-1.7-2.5-.8-3.8l16.4-25.7c.8-1.3,2.5-1.7,3.8-.8,1.3.8,1.7,2.5.9,3.8l-16.4,25.7c-.2.3-.4.5-.6.7l-.1-.1Z"/>
  <path class="cls-35" d="M217,52.9c-5.1,0-9.7-1.6-13.3-4.7-9.5-8.1-9.4-23.9.2-35.2,5.6-6.6,13.6-10.5,21.4-10.5s9.7,1.6,13.3,4.7c9.5,8.1,9.4,23.9-.2,35.2-5.6,6.6-13.6,10.5-21.4,10.5ZM225.3,6.8c-6.5,0-13.3,3.4-18.1,9-8.1,9.5-8.4,22.5-.7,29.1,2.8,2.4,6.5,3.7,10.5,3.7,6.5,0,13.3-3.4,18.1-9,8.1-9.5,8.4-22.5.7-29.1-2.8-2.4-6.5-3.7-10.5-3.7Z"/>
  <path class="cls-48" d="M215.4,50.5c-5.1,0-9.7-1.6-13.3-4.7-9.5-8.1-9.4-23.9.2-35.2C207.9,4,215.9.1,223.7.1s9.7,1.6,13.3,4.7c9.5,8.1,9.5,23.9-.2,35.2-5.6,6.6-13.6,10.5-21.4,10.5ZM223.7,4.3c-6.5,0-13.3,3.4-18.1,9-8.1,9.5-8.4,22.5-.7,29.1,2.8,2.4,6.5,3.7,10.5,3.7,6.5,0,13.3-3.4,18.1-9,8.1-9.5,8.4-22.5.7-29.1-2.8-2.4-6.5-3.7-10.5-3.7Z"/>
  <path class="cls-1" d="M447.8,129.1h-.2c-.3-.1-.4-.4-.3-.7,0-.1,4.1-10.6,12.4-21.4,7.7-10,20.8-22.3,39.3-24.3.3,0,.6.2.6.5s-.2.6-.5.6c-18.1,2-31,14.1-38.5,23.9-8.2,10.7-12.2,21-12.3,21.1,0,.2-.3.4-.5.4h0v-.1Z"/>
  <path class="cls-35" d="M502.2,91.4l-4-15.9,5.7-2.4-.9-4.6-6.2,2.8h0c0,.1-.1.1-.2.1-.3,0-.5.4-.4.7l4.5,17.6c-.9-.3-1.9-.3-3,.2-1.9.8-3.1,2.5-2.5,3.9.5,1.4,2.6,1.9,4.5,1.1,1.7-.7,2.8-2.1,2.6-3.4v-.2h0l-.1.1Z"/>
  <path class="cls-35" d="M547,101.2c-.3,0-.6.1-.7.4h0c0,.1-12.1.1-12.1.1,0-.3-.2-.5-.4-.6-.3,0-.6.1-.7.4l-4.4,18.4c-.6-.6-1.6-1.1-2.7-1.2-2.1-.2-3.9.8-4,2.3-.2,1.5,1.4,2.9,3.4,3.1,2.1.2,3.9-.8,4-2.3v-.2l3.5-14.6h12.1l-3.1,13c-.6-.6-1.6-1.1-2.7-1.2-2.1-.2-3.9.8-4,2.3-.2,1.5,1.4,2.9,3.4,3.1,2.1.2,3.9-.8,4-2.3v-.2l4.7-19.9c0-.3-.1-.6-.4-.7h0l.1.1Z"/>
  <path class="cls-47" d="M205.6,400.2c-4.4,0-9.5-1.2-15.2-3.6-18.7-7.9-38.1-25.8-38.9-28.5,0-.3,0-.6.4-.7.3,0,.6,0,.7.4.6,2,19.5,19.9,38.2,27.8,9.6,4,17.2,4.6,22.7,1.8.3-.1.6,0,.8.2.1.3,0,.6-.2.8-2.4,1.3-5.2,1.9-8.4,1.9l-.1-.1Z"/>
  <path class="cls-6" d="M193.2,367.3c-.6,1.3-5.9,1.3-11.3-.8s3-7,3-7c0,0,9.7,4.4,8.3,7.7v.1Z"/>
  <path class="cls-6" d="M133.8,332.9c-.6,1.3-.6,3.8.8,7.7,1.4,3.9,7.4,0,7.4,0,0,0-5.1-7.3-8.2-7.7h0Z"/>
  <path class="cls-47" d="M149.8,359c-1.6.4-22.4,11.1-28.4,12.3-6.1,1.2-10-25.7-10-25.7,0,0,22.2-10.1,26.4-10.7,4.3-.6,12,24.1,12,24.1h0Z"/>
  <path class="cls-7" d="M181.4,374.4l7.2-13.1-24.2-8.1-6.2,10.6,23.1,10.6h.1Z"/>
  <circle class="cls-30" cx="314" cy="207.8" r="110"/>
  <path class="cls-7" d="M149.8,359s-3.3-10.5-6.7-17.6l-7.2-6s7.1,17,6.5,27c3.9-1.9,6.9-3.3,7.4-3.5h0v.1Z"/>
  <path class="cls-29" d="M127.7,335.9s-2-2.4-3.1-2.7c-5.2-1.6-19.2,9.9-19.2,9.9,0,0-21,.6-29.3,5.4,8.6,2.9,31.6,0,31.6,0l19.9-12.6h.1Z"/>
  <path class="cls-10" d="M53.7,345.1c9.2-1.8,21.3,3.1,22.4,3.4,10.9-3.3,29.7-3.3,30.4-3.2.7,0,21.8-11.6,26-10.1,6.6,6.6,6,15.3,4.3,19.2,2.8,6.5,3.4,12.3,3.9,12.8s-9.9,9-19.5,12.7c-9.6,3.7-39.2,9.5-53.9-1.9-14.7-11.4-19.3-26.6-13.6-32.9Z"/>
  <path class="cls-29" d="M140.7,367.2c-.5-.5-1.1-6.3-3.9-12.8,0,0-1.1-2.2-2.4-1.9-1.3.3-20.6,14.6-23.6,14.7-3.1.1-33.8,0-33.8,0,0,0-2.8,11.3-6.8,12.7,15.4,8.8,36.3,7.9,45.3,4.4,9.6-3.7,25.7-16.6,25.2-17.1h0Z"/>
  <path class="cls-36" d="M80.3,372.9c1.3,0,2.4-.8,2.4-1.7s-1.1-1.7-2.4-1.7-2.4.8-2.4,1.7,1.1,1.7,2.4,1.7Z"/>
  <path class="cls-36" d="M92.3,373.8c1.3,0,2.4-.8,2.4-1.7s-1.1-1.7-2.4-1.7-2.4.8-2.4,1.7,1.1,1.7,2.4,1.7Z"/>
  <path class="cls-36" d="M100.3,373.8c1.3,0,2.4-.8,2.4-1.7s-1.1-1.7-2.4-1.7-2.4.8-2.4,1.7,1.1,1.7,2.4,1.7Z"/>
  <path class="cls-36" d="M113.6,371.3c1.3-.3,2.1-1.3,1.9-2.3-.2-.9-1.5-1.4-2.7-1-1.3.3-2.1,1.3-1.9,2.3.2.9,1.5,1.4,2.7,1Z"/>
  <path class="cls-47" d="M140.9,370.7c-12.3,0-18.9-3.8-20.3-6.7-.5-1.1-.3-2.2.5-3,2.8-2.7,12.7-1.9,28.5,6.2.3.1.4.5.3.8-.1.3-.5.4-.8.2-16.2-8.3-25.1-8.4-27.1-6.4-.5.5-.6,1-.2,1.7,1.6,3.3,10.8,7.3,26.5,5.6.3,0,.6.2.6.5s-.2.6-.5.6c-2.7.3-5.2.4-7.4.4h0l-.1.1Z"/>
  <path class="cls-10" d="M182.8,391.6s-2.8-7.1-2.3-9.6c.5-2.4,4.5-9.4,4.5-9.4l-32.1-7.8-10.6,8.7s-21.9,1.2-33.1,3.1c-2.8.5,23.5,21.2,39.4,21.2s34.2-6.2,34.2-6.2h0Z"/>
  <path class="cls-29" d="M125.5,379.4c6.1-3.2,24.4,1.5,26.7-1.7,3.7-5.4-3.1-12.9-1-15.5,6.2-8.1,31.6,7.7,33.8,10.5-.3,2.1-4.2,6.7-4.5,9.4-.3,2.6,2.6,10,2.6,10,0,0-56.5-2.1-57.5-12.6h0l-.1-.1Z"/>
  <path class="cls-48" d="M98.9,390.1c0-.6-4.5-10.1,2.7-12.3,14.4-4.4,40.5,7.1,50.5,8.7,8.1,1.3,27,0,30.4,4.7,2.4,3.3,1,11.6,1,11.6l-84.6-12.6v-.1Z"/>
  <path class="cls-6" d="M99,389.5c1.5-6.7,16.3-5.7,25.1-3.5s25.1,6.8,28.9,6.8,26.2-.8,30.2,7.5c3.5,7.3-11.9,11.1-34.9,8.6-26.6-2.9-50.8-12.7-49.3-19.4h0Z"/>
  <path class="cls-37" d="M97.9,386.7s-30.1-5.4-41.2-21.2c-7.6-10.9-3-20.3-3-20.3,0,0-4.4-1.2-6.3,2.1-3.3,5.7-4.1,16.5,9.2,28.1,14.2,12.4,42.3,14.2,42.3,14.2l-1.1-2.9h.1Z"/>
  <path class="cls-47" d="M99.9,372.7h0c-.3,0-.4-.3-.5-.5,0-.2-2.4-22.1-8.6-26.8-.3-.2-.3-.6-.1-.8.2-.3.6-.3.8-.1,5.5,4.1,8.1,19.8,8.8,25.5,2.2-5.1,7.6-19.1,4.7-26.7-.1-.3,0-.6.3-.7s.6,0,.7.2c.4.6,10.5,14.9,7.9,27.1,0,.3-.4.5-.7.4-.3,0-.5-.4-.4-.7,1.8-8.6-3.1-18.5-5.9-23.3,1.2,10.2-6,25.4-6.3,26.1,0,.2-.3.3-.5.3h-.2Z"/>
  <path class="cls-47" d="M95.9,359.3h-1.1c-4.4-.5-6.3-3.3-6.6-5.7-.4-3.1,1.5-6.1,4.9-7.4,5.9-2.4,14.9,1.1,15.3,1.2.3.1.4.4.3.7-.1.3-.4.4-.7.3,0,0-9.1-3.4-14.5-1.2-2.9,1.2-4.6,3.6-4.2,6.2.3,2,1.9,4.2,5.6,4.7,7.2.8,13.7-8.5,13.7-8.6.2-.3.5-.3.8-.1.3.2.3.5.2.8-.3.4-6.4,9.2-13.7,9.2h0v-.1Z"/>
  <path class="cls-47" d="M109.8,351.6h-.3c-.1,0-12.2-7.4-18.8-11.9-8.8-5.9-13.7-12.3-13-17,.3-1.9,1.5-3.4,3.4-4,3.6-1.2,8.7.9,12.9,5.2,8.3,8.7,14.4,22.9,14.5,23,.1.3,0,.6-.3.8-.3.1-.6,0-.8-.3,0-.1-6-14.2-14.2-22.7-4.7-4.9-9.3-5.7-11.7-4.9-1.5.5-2.4,1.6-2.6,3.1-.2,1.6,0,7.4,12.5,15.9,6.6,4.5,18.7,11.8,18.8,11.8.3.2.4.5.2.8-.1.2-.3.3-.5.3h0l-.1-.1Z"/>
  <path class="cls-29" d="M75.6,358.6c-1.4-3.1-2.7-6.1-2.2-8,.3-.8.9-1.5,1.7-2,.3-.2.4-.5.2-.8-.2-.3-.5-.4-.8-.2-3.7,2.2-2.9,7-2,12.6s2,11.9-.7,17.6c-.1.3,0,.6.3.8h.2c.2,0,.4-.1.5-.3,2.9-6,1.7-12.8.8-18.2-.3-1.6-.5-3-.6-4.4.4,1.1.9,2.3,1.5,3.5,1.7,3.8,3.4,7.7,2.2,10.4-.1.3,0,.6.3.8h.2c.2,0,.4-.1.5-.4,1.3-3.2-.5-7.3-2.2-11.3h0l.1-.1Z"/>
  <path class="cls-46" d="M372.1,233.7s-42.9-5.2-84.1-10.2c-36.7-5.8-66.9-8.9-72.9-5-13.9,9.1-23.5,56.7-40,91.6-1.5,3.2-6.5,28.4-10.3,31.1s29.2,20.3,30.8,18.5,33.9-55,35.5-64.6,6.1-27.5,6.1-27.5c0,0,1.7.2,3,0,1.2-.2,2.8-1.7,2.8-1.7,0,0,3.1,3.4,4.4,3.8,1.3.4,14.5,1.4,19.5,4.5s97.8,2.2,100.4.9c2.6-1.4,4.8-41.2,4.8-41.2v-.2Z"/>
  <path class="cls-43" d="M370,260.4c-6.3-.6-113-26.7-127.9-23.9-5.7,1.1-12.6,12-13.1,13.4s.2,2.2,0,3.3c-.2,1-9.9,24.2-11.9,28.9-6.2,14.5-33.6,72.9-33.6,72.9,6.1,3.1,11.3,5.3,12,4.6,1.6-1.8,33.9-55,35.5-64.6s6.1-27.5,6.1-27.5c0,0,1.7.2,3,0,1.2-.2,2.8-1.7,2.8-1.7,0,0,3.1,3.4,4.4,3.8,1.3.4,14.5,1.4,19.5,4.5s97.8,2.2,100.4.9c1-.5,1.9-6.9,2.7-14.5h0l.1-.1Z"/>
  <path class="cls-4" d="M183.6,355.6h-.2c-.3-.1-.4-.5-.3-.8.3-.6,27.4-58.5,33.6-72.9,2.3-5.3,11.6-27.7,11.8-28.8v-1c-.1-.6-.3-1.4,0-2.3.5-1.3,7.5-12.6,13.5-13.8,11-2.1,69.6,11.1,104.7,18.9,12.6,2.8,21.7,4.9,23.4,5,.3,0,.5.3.5.6s-.3.5-.6.5c-1.8-.2-10.9-2.2-23.5-5-32.7-7.3-93.5-20.9-104.2-18.9-5.3,1-12.1,11.5-12.7,13-.2.7-.1,1.2,0,1.7,0,.4.2.9,0,1.4-.2,1.2-10.4,25.5-11.9,29-6.2,14.4-33.3,72.4-33.6,73,0,.2-.3.3-.5.3h0v.1Z"/>
  <path class="cls-4" d="M244.2,242.2c-.1-.3-.5-.4-.8-.3-.3.1-.4.5-.3.8,2.9,6.1,2.2,16.9-.4,21.7v.2c.6-5.4-.8-16-2.2-19.1-.1-.3-.5-.4-.8-.3-.3.1-.4.5-.3.8,1.7,3.7,3,17.7,1.6,20.6-.3.2-.6.4-1,.4h-2.5c-1-2.5-4.5-11-5.7-12-.3-.2-.6-.1-.8.1-.2.3-.1.6.1.8.7.5,3.3,6.4,5.4,11.8,0,.2.3.4.5.4h3.1c.6,0,1.1-.3,1.6-.7h0c.7-.5,1.3-1.3,1.9-2.4,2.8-5.2,3.6-16.2.4-22.7l.2-.1Z"/>
  <path class="cls-44" d="M291.5,231.1s32.8,9.9,31.7,21l33.9-14.8-65.6-6.2h0Z"/>
  <path class="cls-4" d="M196.9,360.3s-2.7,6.2-3.7,7c-.4-2.6-26.3-9.3-30.4-9.3-3.8-4.6,3.1-8.2,3.1-8.2,0,0,23.3,3.9,25.8,5.2,3.8,2,5.2,5.3,5.2,5.3h0Z"/>
  <path class="cls-6" d="M298.2,327.5c-8.2,0-19-1.1-31.1-3.1-17.3-2.9-32-7.1-36.8-10.4-10.5-7.3-10.7-16.5-9-23,0-.3.4-.5.7-.4.3,0,.5.4.4.7-1.6,6.1-1.3,14.8,8.6,21.7,4.6,3.2,19.2,7.3,36.3,10.2,18.4,3.1,34,3.9,41.5,2.2,2.5-.6,4.1-1.4,4.7-2.5.2-.3.5-.4.8-.2.3.2.4.5.2.8-.8,1.4-2.5,2.4-5.4,3.1-2.7.6-6.4.9-10.9.9h0Z"/>
  <path class="cls-6" d="M168,361.9c.9-.1-1.2-6.3-2.4-7.6-1.2-1.2-9.2,3.2-9.2,3.2,0,0,7.4,5,11.6,4.4h0Z"/>
  <path class="cls-46" d="M145.4,329.1c104.2-35.8,123.2-74.4,141.9-80.6,9.7-3.2,84.9-14.9,84.9-14.9l60.8,15.6s-56.5,40.6-74.5,43.4c-18,2.7-49.6,3.4-49.6,3.4,0,0-10.7,5.3-13.2,5.9s-12,.2-12,.2c0,0-.3,3.2-2.1,4.4-1.8,1.2-5.1,2-5.1,2,0,0-26.8,22.5-35.3,25.2s-74.5,23.8-78.4,25.8c-8.4-7.2-17.4-30.5-17.4-30.5h0v.1Z"/>
  <path class="cls-42" d="M283.7,302.1s9.4.4,12-.2c2.5-.6,13.2-5.9,13.2-5.9,0,0,31.6-.7,49.6-3.4,10.5-1.6,34.3-16.2,52.1-28l-3.1-4.2c-4.5,1-80.7,9.9-103.7,19.6-10.6,4.4-45,40.4-61.4,47.6-16,7-48.1,20.4-70,28.5,19.5-6.6,62.1-20.2,68.8-22.4,8.5-2.7,35.3-25.2,35.3-25.2,0,0,3.3-.8,5.1-2,1.8-1.2,2.1-4.4,2.1-4.4h0Z"/>
  <path class="cls-46" d="M276.5,254.9c-3.3.3-9.7,5.1-11.3,6.3-1.6,1.2-19.9,18.7-19.9,18.7l20.1-6.5,11.1-18.6v.1Z"/>
  <path class="cls-4" d="M213.7,342.6c-2.2.7-11.2,6.5-13,6.6s-16.2,2.9-17.2,3.2c5.4-4.8,30.1-9.8,30.1-9.8h.1Z"/>
  <path class="cls-4" d="M133.8,332.9c.5-2.6,8.7-5.3,10-5.3s3,1,3,1c0,0,13.1,34.1,21.1,33.3l-14.9,3.2c-4.7-1.7-16.4-31.3-19.2-32.2h0Z"/>
  <path class="cls-4" d="M162.7,360.2c-.2,0-.5-.1-.5-.4-.1-.3,0-.6.4-.7,20.5-7.1,60.1-23.4,79.6-32,8.9-3.9,23.4-16.6,36.2-27.8,10.9-9.6,20.4-17.8,25.2-19.9,18.5-7.8,71.1-15,93.6-18.1,5.4-.7,9.3-1.3,10.2-1.5.3,0,.6.1.7.4s-.1.6-.4.7c-.9.2-4.7.7-10.3,1.5-22.4,3.1-75,10.3-93.3,18-4.7,2-14.5,10.6-24.9,19.7-12.8,11.2-27.4,24-36.4,27.9-19.5,8.6-59.1,24.9-79.6,32h-.2l-.3.2Z"/>
  <path class="cls-40" d="M278.4,253.6c-16.1,13.7-8,46-29.6,60.4,10.1-10.3,15.8-50.9,29.6-60.4Z"/>
  <path class="cls-41" d="M147.5,330.8c1.3-1.1,24.7-12.5,30.2-5.1s-27.8,7-30.2,7.2,0-2.1,0-2.1Z"/>
  <path class="cls-4" d="M290.1,302.9c-3.1,0-6.3-.2-6.5-.2-.3,0-.6-.3-.5-.6,0-.3.3-.6.6-.5,2.7.1,10,.4,11.8-.2,3.1-1,10.8-5,19-9.4,11.1-5.9,22.6-11.9,26.5-12.4.3,0,.6.2.6.5s-.2.6-.5.6c-3.7.5-15.6,6.7-26.1,12.3-8.2,4.3-16,8.4-19.2,9.4-1,.3-3.3.4-5.7.4h0v.1Z"/>
  <path class="cls-15" d="M401.8,261.6c-2,2.4-58.8,33.2-80.6,34,12.2-.5,31.1-2.1,37.2-3.1,9.3-1.4,28.8-12.9,45.6-23.7l-2.2-7.2h0Z"/>
  <path class="cls-12" d="M359.1,246.2l34.6-6.6-3.3-1.3-13.8-3.5-17.5,11.4h0Z"/>
  <path class="cls-1" d="M86.4,415s60.5-35,97.5-2.3c-31,36.5-97.5,2.3-97.5,2.3Z"/>
  <path class="cls-47" d="M108.5,408.3h-.1c-9.3-2.1-15.2-6.2-17.6-12.2-5-12.8,7.5-31,14.2-40.8,1.8-2.6,3.2-4.7,3.6-5.7.1-.3.5-.4.7-.3.3.1.4.5.3.7-.5,1.1-1.8,3.1-3.8,5.9-6.6,9.6-18.9,27.5-14.1,39.7,2.2,5.6,7.8,9.5,16.7,11.5.3,0,.5.4.4.7,0,.3-.3.4-.6.4h0l.3.1Z"/>
  <path class="cls-47" d="M91.9,372.7c-.3,0-.5-.2-.6-.5-1.2-10.5-5.7-14.9-10.8-20-.6-.6-1.3-1.3-2-2,2.7,9.3,1.9,20.6,1.9,21.1,0,.3-.3.6-.6.5-.3,0-.6-.3-.5-.6,0-.1.9-13.6-2.6-23.1,0-.3,0-.5.2-.7.2-.1.5,0,.7.1,1.2,1.4,2.5,2.6,3.7,3.8,5.1,5.1,9.9,9.9,11.1,20.7,0,.3-.2.6-.5.6h0v.1Z"/>
  <path class="cls-36" d="M159.5,372c0-.9-1-1.8-2.3-1.8s-2.4.6-2.5,1.6c0,.9,1,1.8,2.3,1.8s2.4-.6,2.5-1.6Z"/>
  <path class="cls-36" d="M158.7,380.3c.2-.9-.7-1.9-2-2.2s-2.5.2-2.7,1.2c-.2.9.7,1.9,2,2.2,1.3.3,2.5-.2,2.7-1.2Z"/>
  <path class="cls-36" d="M146.2,381.8c.2-.9-.7-1.9-2-2.2-1.3-.3-2.5.2-2.7,1.2-.2.9.7,1.9,2,2.2,1.3.3,2.5-.2,2.7-1.2Z"/>
  <path class="cls-48" d="M175.5,381.7c.2-2-1.9-3.7-4.6-4s-5.1,1.1-5.3,3.1,1.9,3.7,4.6,4c2.7.2,5.1-1.1,5.3-3.1Z"/>
  <path class="cls-47" d="M143.9,381.9c-.2,0-.4-.1-.5-.4s-3.1-7.4-11.4-7.2h0c-.3,0-.6-.3-.6-.6s.2-.6.6-.6h.3c8.9,0,12.2,7.9,12.2,7.9.1.3,0,.6-.3.7h-.2l-.1.2Z"/>
  <path class="cls-47" d="M156.4,380.4c-.1,0-.3,0-.4-.1,0,0-7.6-6.2-13.4-6.2s-.2,0-.3,0c-.3,0-.6-.2-.6-.6,0-.3.2-.6.6-.6h.3c6.2,0,13.8,6.2,14.2,6.4.2.2.3.6,0,.8-.1.1-.3.2-.4.2h0v.1Z"/>
  <path class="cls-47" d="M143.9,372.7c-.2,0-.4-.1-.5-.3-.1-.3,0-.6.3-.8,3.1-1.5,13.1-.4,13.5-.3.3,0,.5.3.5.6s-.3.5-.6.5c-2.8-.3-10.6-.9-12.9.2h-.3v.1Z"/>
  <path class="cls-6" d="M314,323.8h-.3c-.3-.2-.3-.5-.2-.8.8-1.3-.9-2.9-2.6-4-9-6.3-37.5-14.3-64.9-18.3-14.9-2.2-28.3-3-38.7-2.4-12,.7-19.7,3.2-22.9,7.5-.2.3-.6.3-.8.1-.3-.2-.3-.5-.1-.8,8.9-11.9,46.8-7.8,62.7-5.5,28,4.1,56.1,12,65.4,18.5,3,2.1,3.9,3.9,2.9,5.6-.1.2-.3.3-.5.3v-.2Z"/>
  <path class="cls-6" d="M191.1,269.1h-.3c-21.7-14.3-27.1-29.7-27.8-40.1-.9-12.4,4.5-24.9,14.9-34.1,23.2-20.7,69.3-33.4,102.9-42.8,21.7-6,40.4-11.2,39.9-15.4,0-.3.2-.6.5-.6s.6.2.6.5c.6,4.9-13.5,9.1-40.7,16.6-33.5,9.3-79.4,22-102.4,42.5-10.1,9-15.4,21.1-14.5,33.2.7,10.1,6.1,25.1,27.3,39.2.3.2.3.5.2.8-.1.2-.3.3-.5.3h0l-.1-.1Z"/>
  <path class="cls-8" d="M379.4,93.1c.2-1.4,0-2.8-.9-3.9-1.8-2.4-5.4-6.3-9.7-5.9-6.3.5-8.1,11.5-1,15.3,4.2,2.3,7.3,1.2,9.1,0,1.2-.7,1.9-2,2.1-3.3l.4-2.2Z"/>
  <path class="cls-13" d="M365.4,145.7s-31.7,70.1-19.3,91.2c15.1,2.7,41.7.9,51.4,9.9,15.5-14.4,2.2-96.9,2.2-96.9,0,0-23.6,4-34.3-4.2h0Z"/>
  <path class="cls-14" d="M369.5,155.2c5.3,20.5,37.9,27.2,41.5,52.9-4.8-13.6-39-36.4-41.5-52.9h0Z"/>
  <path class="cls-23" d="M370.8,155.1c-6,14.5-17.8,39.6-10.4,63.4l-22.3,6s27.9-71.3,32.8-69.3h0l-.1-.1Z"/>
  <path class="cls-32" d="M378.5,130.1s-17.6,2.2-15.6,13c1.3,6.7,9.2,16,35,12.1,14.7-2.2,21.2-19.8,21.2-19.8l-40.6-5.3Z"/>
  <path class="cls-29" d="M366.3,132.1c-1.5-.1-35.7,8.1-40.4,15.2-3.2,4.9-13.5,48.7-19.5,74.8l50.6,13.4c2.7-2.9-16.1-33.8,13.7-80.4-4.9-9.5-4.4-23-4.4-23h0Z"/>
  <path class="cls-29" d="M334.4,141.7s-28.4,11.1-46.2,24.9c-15.8,12.2,28,51.8,28,51.8l18.2-76.7h0Z"/>
  <path class="cls-19" d="M345.3,212.5c-9.5-32.4-2.1-53.8,13.7-75.8l3-3.8c-9.6,2.2-32.4,8.7-36.1,14.4-3.2,4.8-13.1,46.6-19.1,73l38.5-7.8h0Z"/>
  <path class="cls-10" d="M359.7,136.6c0-.3-.3-.5-.7-.5-.1,0-6.2,1.1-15.3,3.7,2.4-1.8,4.4-2.5,4.7-2.6.3,0,.5-.4.4-.7,0-.3-.4-.5-.7-.4-.3,0-3.6,1.2-7,4.5-12.8,3.9-30.4,10.8-46.2,22.1-.3.2-.3.5-.1.8.1.2.3.2.5.2s.2,0,.3-.1c14.9-10.6,31.5-17.3,44-21.3-4,4.8-7.5,12.9-5.7,26.5,0,.3.3.5.6.5s0,0,0,0c.3,0,.5-.3.5-.6-2-14.7,2.4-22.8,6.7-27,10.3-3.2,17.4-4.4,17.6-4.4.3,0,.5-.3.5-.7h-.1Z"/>
  <path class="cls-45" d="M268.8,98.6c-15.7,42.5-29.3,64.8-30.6,72.9-1.4,8.1.6,24.5.6,24.5,0,0,19.9,16.9,31,1.3,7.5-10.5,16.5-74.7,16.4-95.4l-17.4-3.3h0Z"/>
  <path class="cls-45" d="M264.4,112s-3.6-2.5-3.7-7.6c-.1-5-3-27.9-2.3-29.3.7-1.4,7.1-3.6,7.1-3.6,0,0,.3-4.5,1.4-5.5s6.6-.4,6.6-.4c0,0,1.2-4.5,3.8-5.3,2.6-.8,4,.9,4,.9l12.5,19.2,4,4.4c-.8,2.8-1.7,22.6-13.1,27.8-8.4,3.8-20.2-.7-20.2-.7h0l-.1.1Z"/>
  <path class="cls-7" d="M256.5,129.3c4.4,6.7,17,17.1,26.7,7.7,0,0-3.4,10.1-14.1,8.5-12.3-1.9-12.6-16.3-12.6-16.3h0v.1Z"/>
  <path class="cls-47" d="M284.2,58.1s.1-7,3-7.4c2.9-.5,3.3,3.2,3.3,3.2l-6.4,4.2h.1Z"/>
  <path class="cls-7" d="M282.5,106.3c-.2,0-.3,0-.4-.2-4.9-5.2-1.8-11-1.7-11,.2-.3.5-.4.8-.2s.4.5.2.8c-.1.2-2.7,5.1,1.6,9.7.2.2.2.6,0,.8-.1.1-.3.2-.4.2h0l-.1-.1Z"/>
  <path class="cls-6" d="M275.2,99.7l31.8-36.1c1.4-1.6,1.6-3.9.5-5.8l-6.7-10.9h.2l-1-1.2h0v-.2h-.1c-1.2-1.2-3.2-1.3-4.4,0l-33.1,36.5c-1.6,1.7-1.7,4.3-.3,6.2l8.4,11.3c.7.9,1.7,1.3,2.7,1.2l2.2-.3-.6-.3c.2-.1.3-.2.4-.4h0Z"/>
  <path class="cls-35" d="M264.5,82.4l32.2-35.5c1.3-1.5,3.7-1.2,4.7.4l7,11.4c1.1,1.8.9,4.1-.5,5.6l-30.9,35.1c-1.2,1.4-3.5,1.3-4.6-.2l-8.2-10.9c-1.4-1.8-1.2-4.3.3-6h0v.1Z"/>
  <path class="cls-17" d="M272.4,99.3c1.1,1.5,3.3,1.6,4.6.2l19.7-22.3-19.7-8.5-12.4,13.6c-1.5,1.7-1.6,4.2-.3,6l8.2,10.9h0l-.1.1Z"/>
  <path class="cls-47" d="M258.3,75.1v.1c8.8,7.6,13.1,2.7,13.1,1.8,0-2.2-6-5.5-6-5.5,0,0-6.4,2.2-7.1,3.6h0Z"/>
  <path class="cls-47" d="M266.9,66.1c-.1.1-.2.3-.3.5,2.1,9,5.9,8,7.6,6.9,2.3-1.5-.6-7.7-.6-7.7,0,0-5.5-.5-6.6.4h0l-.1-.1Z"/>
  <path class="cls-47" d="M279.4,65c1.6-.7,2.9-2.5,1.8-3.6,0,0-.1-.2-.2-.3-.5-.4-1.8-1.2-3.8-.6-2.6.8-3.8,5.3-3.8,5.3,0,0,3.5.4,5.9-.7l.1-.1Z"/>
  <path class="cls-7" d="M267.2,78.8c-2.6.2-5.3-1.7-5.4-1.8-.3-.2-.6-.1-.8.1-.2.3-.1.6.1.8,0,0,.9.7,2.2,1.2-1.3.3-2.5.3-2.5.3-.3,0-.6.3-.6.6s.3.6.6.6,2.5,0,4.3-.9c.5.1,1.1.2,1.7.2s.3,0,.5,0c.3,0,.6-.3.5-.6,0-.3-.3-.6-.6-.5h0Z"/>
  <path class="cls-7" d="M271.8,74.7c-2.4,0-4.1-3.3-4.2-3.5-.1-.3,0-.6.2-.8.3-.1.6,0,.8.2.5.9,2,3.1,3.4,2.9.3,0,.6.2.7.5,0,.3-.2.6-.5.7-.1,0-.3,0-.4,0Z"/>
  <path class="cls-7" d="M278.7,97.5l11.9-9.4s3.4-5.1,1.5-5.8l-13.4,15.3v-.1Z"/>
  <path class="cls-45" d="M291,107.2s8.4-10.8,8.2-13.6c-.2-2.8-.4-9.4.5-12.1,1-3.3,3.2-7.2,2.6-8.7-.3-.8-1.2-.6-1.2-.6l-8.8,10s-1.3,7.9-4.1,9.7c-.6,5.9,2.9,15.2,2.9,15.2h0l-.1.1Z"/>
  <path class="cls-4" d="M303.9,56.6c.4-.2.6-.9.3-1.5-.3-.6-.9-1-1.3-.8s-.6.9-.3,1.5c.3.6.9,1,1.3.8Z"/>
  <path class="cls-7" d="M279.2,116.3c-.3,0-.5-.2-.6-.5,0-.3.1-.6.4-.7.9-.2,4.6-2.4,6.8-3.8.3-.2.6,0,.8.2.2.3,0,.6-.2.8-.6.4-5.8,3.7-7.2,3.9h-.1l.1.1Z"/>
  <path class="cls-29" d="M252,136s-22.7,29.2-22.9,32.2c-.3,4.7,4.9,8.2,4.9,8.2,0,0-3.8,9.7-2.2,11.7,1.7,1.9,22.9,32.2,33.2,32.7,12.2.7,32.9-10.7,33.9-15.1,1-4.5-6.4-50.2-6.4-50.2,0,0-3-8.3-7.9-9.6-10.4,6.9-32.6-9.8-32.6-9.8v-.1Z"/>
  <path class="cls-10" d="M283.2,137s4.6,13.3,2.3,16c-2.2,2.7-14.4,4.8-22.9-.4-5.9-3.6-10.7-16.7-10.7-16.7l4.5-6.7s5.5,10.1,12.5,12.2c10.9,3.3,14.2-4.5,14.2-4.5l.1.1Z"/>
  <path class="cls-29" d="M282.6,155.3c-.2,0-.4,0-.5-.3-.2-.3-.1-.6.2-.8,1.6-1.1.5-9.2-.8-14.6,0-.3.1-.6.4-.7.3,0,.6.1.7.4.6,2.3,3.2,13.9.3,15.8h-.3v.2Z"/>
  <path class="cls-29" d="M278,156.3c-.3,0-.5-.2-.6-.5,0-.3.1-.6.4-.7,0,0,1-.3.7-6.6-.2-3.4-.7-6.7-.7-6.8,0-.3.2-.6.5-.7.3,0,.6.2.7.5,0,0,.5,3.4.7,6.9.4,6.5-.7,7.6-1.6,7.8h-.1v.1Z"/>
  <path class="cls-10" d="M231.5,188.1c-.2,0-.4-.1-.5-.3-1.3-2.6,2.3-11.1,6.8-21.1,1.5-3.3,3-6.6,3-7.2,0-.3.3-.6.6-.6s.6.3.6.6c0,.8-1,3.1-3.1,7.7-3,6.6-8,17.7-6.8,20.1.1.3,0,.6-.2.8h-.4Z"/>
  <path class="cls-10" d="M269.8,154.9c-.3-.2-.6-.1-.8.1-.6.8-1.5,1.7-2.6,2.7-3.3,3.1-7.7,7.3-8.7,15.8-.2,1.4-.4,4.4-.6,7.9-.4,6.5-1.1,17.2-1.7,18.4-.2.2-.3.4-.2.7,0,.2.3.4.5.4h.2c.8-.3,1.2-2.9,2.3-19.3.2-3.5.4-6.5.6-7.9.8-7.6,4.8-11.7,7.8-14.6-2.2,5.3-6.1,16.3-6.5,17.7,0,.3.1.6.4.7h.1c.3,0,.5-.2.6-.4.7-2.5,7-19.3,7.6-20.1h0c.4-.4.7-.8,1-1.2.2-.3.1-.6-.1-.8h0l.1-.1Z"/>
  <path class="cls-16" d="M395.5,155.4c1.8,14.2-13.8,78.6-2.8,89.4,8.2,8.1,18.2,10.2,18.2,10.2l39.6,9s11.6-4.1,12.8-14c4-31.4-17.5-113.2-17.5-113.2,0,0-9.8-2.9-19-4.6l-31.3,23.3h0v-.1Z"/>
  <path class="cls-29" d="M421.6,116.7c-3.9-2.3-9.1-3.5-13.2-3.7s-1.5,20.9-1.5,20.9c0,0,17.2-12.6,14.7-17.1h0v-.1Z"/>
  <path class="cls-29" d="M360.2,121.1c.6-1.2,10.3-5.6,15.3-5.5,5,0,5.2,17.5,5.2,17.5l-15.1,5s-6.2-12.9-5.5-17h.1Z"/>
  <path class="cls-3" d="M370.8,51c-2.6.7-13.9,10.7-2.1,20.1,11.8,9.4,10.5-16.9,10.5-16.9l-8.4-3.2h0Z"/>
  <path class="cls-45" d="M412.5,98.1l3.4,37.1c-3.8,8.7-33.5,20-38.9,8.8-.4-.8-.5-1.7-.2-2.6,3.1-11.9,2.1-29.1,2.1-29.1l33.7-14.2h-.1Z"/>
  <path class="cls-7" d="M412.5,98.1l-33.7,14.2s.7,12.2-.9,23.1c30.3.7,34.6-37.4,34.6-37.4v.1Z"/>
  <path class="cls-45" d="M385.1,123.4c14,.8,28.8-9.9,28.8-40.4s-16.9-35.3-25-35c-8.1.2-24.3,5.2-21.9,44.3,1,17.2,9.4,30.6,18.2,31.1h-.1Z"/>
  <path class="cls-7" d="M404.7,58.5c-2.9-2.1-17.6-4.6-26.5-7-2.3,1.7-4.5,4-6.4,7.5.7.5,6.7,7.9,11.8,7.3,9.8-1,17.4-8.5,21.1-7.8h0Z"/>
  <path class="cls-7" d="M382.2,96.3c-1.2,0-2.5-.4-3.3-1.8-.4-.9-.4-1.8,0-2.8.7-1.5,2.3-2.7,4.1-3.2.2-8.7-1.8-15.9-1.9-16,0-.3,0-.6.4-.7.3,0,.6,0,.7.4,0,0,2.2,7.7,1.9,16.7,0,.3-.2.5-.4.5-1.6.4-3.1,1.5-3.7,2.7-.2.5-.4,1.1,0,1.8,1,1.9,4.2.8,4.2.8.3-.1.6,0,.7.3s0,.6-.3.7c0,0-1.1.4-2.3.4h0l-.1.2Z"/>
  <path class="cls-33" d="M404,78.5c-.6.9-14.1.5-14.1-3s4.8-2.7,7.1-2.2c4.6,1.1,7.7,4.1,7,5.2Z"/>
  <path class="cls-33" d="M368.4,81.1c3.5-1.9,7.6-4.9,6.7-6.8-1.5-3.1-5.5-.5-7.4,1-2.7,2.5-1.1,5.2.7,5.7h0v.1Z"/>
  <path class="cls-2" d="M393.7,87.8c1.3,0,2.3-1.4,2.2-2.9,0-1.5-1.3-2.6-2.6-2.5-1.3,0-2.3,1.4-2.2,2.9,0,1.5,1.3,2.6,2.6,2.5Z"/>
  <path class="cls-2" d="M375.4,87.6c1,0,1.7-1.2,1.6-2.6,0-1.4-1-2.4-2-2.3-1,0-1.7,1.2-1.6,2.6,0,1.4,1,2.4,2,2.3Z"/>
  <path class="cls-5" d="M382.9,105c-1.6,0-2.7-.2-2.8-.2-.3,0-.5-.4-.5-.7s.4-.5.7-.5c0,0,7.8,1.3,12.1-3.4.2-.2.6-.2.8,0,.2.2.2.6,0,.8-3.1,3.3-7.5,4-10.4,4h.1Z"/>
  <path class="cls-33" d="M415.2,86.5c.9-2,11.1-22,7.5-30.6-3.7-8.6-14.2-6.5-14.2-6.5,0,0,.8-8-2-10.2-4.5-3.4-11-.8-11-.8,0,0,4.8-9.1-1.1-11.4-6.2-2.4-29.9,9.6-27.6,20.9,1.9,9.6,14.2,15.9,22.2,14.9,7-.8,12.8-6,16.8-4.1,6.7,7.2,3.2,26.8,1.8,32.4,4.4,1.8,7.6-4.7,7.6-4.7v.1Z"/>
  <path class="cls-45" d="M408.8,92.9c.1-1.4.8-2.7,1.9-3.6,2.4-1.9,6.8-4.8,10.9-3.4,5.9,2,5,13.2-2.8,15.1-4.6,1.1-7.4-.6-8.9-2.2-.9-1-1.4-2.4-1.2-3.8l.2-2.2-.1.1Z"/>
  <path class="cls-7" d="M412.8,97.1h-.2c-.3-.1-.5-.4-.3-.7,1.4-3.8,3.6-5.4,5.2-6,1.8-.7,3.7-.5,4.4,0,.3.2.4.5.2.8-.2.3-.5.4-.8.2-.3-.2-1.8-.5-3.4.1-2,.7-3.5,2.6-4.5,5.3,0,.2-.3.4-.5.4h0l-.1-.1Z"/>
  <path class="cls-36" d="M411.1,53.1c-.2,0-.5-.1-.5-.4-.1-.3,0-.6.3-.7,8.5-3.1,10.6-6.1,10.6-7.2,0-.4-.3-.6-.7-.7-1.9-.5-6.1,1.3-9.6,6.9-.2.3-.5.3-.8.2s-.3-.5-.2-.8c4.1-6.5,8.8-8,10.9-7.4.9.3,1.5.9,1.6,1.8,0,2-2.8,5.3-11.3,8.4h-.2l-.1-.1Z"/>
  <path class="cls-36" d="M408.6,50.6c-.3,0-.5-.2-.6-.4-2.8-9.7-.2-15,2.8-16.6,1.7-.9,3.5-.5,4.5.8,1.9,2.4,1.6,7.9-5.2,16-.2.2-.6.3-.8,0-.1,0-.2-.2-.2-.4,0,.2-.2.4-.4.5h-.2l.1.1ZM412.7,34.3c-.4,0-.9.1-1.3.3-2.1,1.1-5,5.5-2.2,15.2h0c0-.1,0-.2.1-.3,6-7,6.9-12.4,5.2-14.5-.5-.6-1.1-.9-1.8-.9h0v.2Z"/>
  <path class="cls-47" d="M405.8,59.4h-.3c-.3-.1-.4-.5-.3-.8,0,0,2.8-5.8,3.3-9,0-.3.3-.5.7-.5.3,0,.5.3.5.7-.5,3.4-3.3,9.1-3.4,9.3,0,.2-.3.3-.5.3h0Z"/>
  <path class="cls-10" d="M395.5,155.4s2.5-21.3,6.4-23.9c3.9-2.6,20.8-11.6,19.7-14.7,2.5,1.1,1.2,6.2,1.9,10.2.4,2.4,3.3,2.7,3.3,5.2,0,2.9-11,22.7-31.3,23.3h0v-.1Z"/>
  <path class="cls-10" d="M360.2,121.1c-.2,3.8,5.7,3.3,7,9.2,2.9,13.7,6.4,18.4,3.6,24.8-1.7,1.6-10.5-6.9-11.6-15.6-.8-6.1,3.4-5.7,3.5-7.3,0-1.6-4.4-7.8-2.4-11h0l-.1-.1Z"/>
  <path class="cls-36" d="M457.8,260.8c1.8-2.1,5-7.6,5.4-10.9.8-6,2.2-33.2,2-33.2-34.2,10.5-51.6,35.4-51.6,35.4l44.2,8.6h0v.1Z"/>
  <path class="cls-36" d="M462.6,222.6c-1.4-13.1-4-27.9-6.7-41.3l-21.7-3.6c2.4,12.3,15.9,35.1,28.3,44.9h.1Z"/>
  <path class="cls-22" d="M527.3,204.5c-20-38.8-65.8-63.1-81.6-67.9,0,0-17.7,31.4-9.9,44.9,10.2,17.7,42.7,27.5,42.7,27.5l48.8-4.5h0Z"/>
  <path class="cls-10" d="M399,249.8l.6,3s22.9,5.2,48.8,15.8c.5-.1,1.6-7.8.5-9-1-1.2-44.9-10.5-50-9.8h.1Z"/>
  <path class="cls-29" d="M399.2,155.7h0c-.3,0-.6-.3-.6-.6,0-7.9,5.4-24.9,5.7-25.6,0-.3.4-.5.7-.4.3,0,.5.4.4.7,0,.2-5.5,17.5-5.6,25.2,0,.3-.3.6-.6.6h0v.1Z"/>
  <path class="cls-29" d="M402.9,154.8c-.3,0-.6-.2-.6-.5-.3-5.6,5.9-26.5,6.2-27.3,0-.3.4-.5.7-.4.3,0,.5.4.4.7,0,.2-6.4,21.5-6.1,27,0,.3-.2.6-.5.6h0l-.1-.1Z"/>
  <path class="cls-10" d="M527.8,204.3c-11.5-22.4-36.4-40.1-50.2-48.7-11.7-7.3-23.7-13.1-33.9-16.7.9-1.2,1.6-1.7,2-1.7s.6-.3.6-.6-.3-.6-.6-.6c-.9,0-1.9.8-3.1,2.4-6.8-2.3-12.7-3.6-17.1-3.6s-.6.2-.6.6.3.6.6.6h.7c0,.1,0,10.3-6.5,21.2v-3.3c0-.3-.2-.6-.5-.7-.3,0-.6.2-.7.5-.4,2.7,0,5.4.9,8.1-3,6.3-8.1,10.7-14.9,13.1-.3.1-.5.4-.4.7,0,.2.3.4.5.4h.2c6.8-2.4,11.9-6.7,15.1-12.8,4.1,9.9,14.8,18.2,15.4,18.7.1,0,.2.1.4.1s.3,0,.4-.1c.2-.2.3-.5.1-.7-6-10.5.9-31.4,5.8-39.8.4-.6.7-1.1,1-1.6,10.2,3.6,22.2,9.4,34,16.7,13.7,8.5,38.3,26,49.8,48.2.1.2.3.3.5.3h.3c.3-.1.4-.5.2-.8v.1ZM441.1,140.9c-4.6,8-11,27.3-6.9,38.6-3.5-3.1-10.8-10.2-13.6-17.9l-.7-2.6c7.1-11.3,7.4-22.2,7.4-22.9,4,.3,9,1.4,14.6,3.4-.3.4-.6.9-.9,1.4h.1Z"/>
  <path class="cls-47" d="M388.2,138.5c-.1,0-.2,0-.3-.1-3-2.2-3.2-4.7-2.8-6.3.5-2.3,2.5-4.2,3.5-4.3.3,0,.6.2.7.5,0,.3-.2.6-.5.7-.4,0-2.1,1.4-2.6,3.5-.5,1.9.3,3.6,2.4,5.1.3.2.3.5.1.8-.1.2-.3.2-.5.2v-.1Z"/>
  <path class="cls-47" d="M398.9,250.3h-.3c-2.3-1.5-4.5-3.2-6.4-5.1-7.3-7.1-3.2-36.8,0-60.6,1.8-13,3.3-24.2,2.7-29.1,0-.3.2-.6.5-.6s.6.2.6.5c.6,5.1-.9,16.4-2.7,29.4-3.2,23.5-7.2,52.8-.3,59.6,1.8,1.8,3.9,3.5,6.2,4.9.3.2.3.5.2.8-.1.2-.3.3-.5.3h0v-.1Z"/>
  <path class="cls-47" d="M357.1,236.1c-.1,0-.3,0-.4-.2-.2-.2-.2-.6,0-.8.4-.4-.2-2.9-.8-5.5-2.6-11.5-8.8-38.5,14.4-74.8.2-.3.5-.3.8-.2.3.2.3.5.2.8-23,35.9-16.8,62.6-14.2,74,.9,3.8,1.3,5.7.5,6.5-.1.1-.3.2-.4.2h-.1Z"/>
  <path class="cls-48" d="M414.6,91.6c-1.9,0-3.5,1.6-3.5,3.5s.1,1,.3,1.4l-4.3,4.3c-.5.5-.5,1.3,0,1.7.2.2.5.4.9.4s.6-.1.9-.4l4.3-4.3c.4.2.9.3,1.4.3,1.9,0,3.5-1.6,3.5-3.5s-1.6-3.5-3.5-3.5h0v.1Z"/>
  <path class="cls-36" d="M387.6,59.5h0c-16.8-.5-23.1-7.1-23.4-13.2-.4-7.8,8.8-17,27-19.4.3,0,.6.2.6.5s-.2.6-.5.6c-8.1,1-14.9,3.5-19.7,7.2-4.2,3.2-6.5,7.2-6.3,11,.3,5.6,6.3,11.7,22.3,12.1.3,0,.6.3.6.6s-.3.6-.6.6h0Z"/>
  <path class="cls-6" d="M321.2,137.2c-.3,0-.5-.2-.6-.5-1.3-9.9-32.5-10.1-55.3-10.2-18.5,0-28.2-.3-28.3-3.4-.3-7.2,27.4-29.1,28.6-30,.2-.2.6-.2.8,0,.2.2.2.6,0,.8-7.9,6.2-28.4,23.6-28.1,29.1,0,.3.6,1.4,7.7,1.9,5,.4,12,.4,19.5.4,24.5.1,55,.3,56.4,11.2,0,.3-.2.6-.5.6h0l-.2.1Z"/>
  <path class="cls-35" d="M259.9,99.8c-.4,0-.7-.2-1-.4-.4-.5-.4-1.3.2-1.7l6.1-5c.5-.4,1.3-.4,1.7.2.4.5.4,1.3-.2,1.7l-6.2,5c-.2.2-.5.3-.8.3l.2-.1Z"/>
  <path class="cls-45" d="M425.4,204.5c45.3-2.5,70.6-8.9,78.7-7.8,8.2,1.1,23.2,7.8,23.2,7.8,0,0,10.3,24-7.9,30-12.2,4.1-76.2-6.2-96-12.4l2-17.6h0Z"/>
  <path class="cls-29" d="M460.2,201.6s1.6-7.7,4.2-8,9.7,5,9.7,5c0,0-.3-4.3,2.3-6.4,5.3-4.4,22.4-6.1,41.8,3.3,25.2,12.2,21.8,44,10.3,48.1-11.5,4.1-21.1-8.7-23-8.2s-21.3,3.9-23.2,2.1c-1.9-1.8-6.3-5.7-8.2-5.3-1.9.4-15,4.4-15.3-2.4-.3-6.7,1.4-28.3,1.4-28.3v.1Z"/>
  <path class="cls-10" d="M442.4,203.4l2.3,23.9,14.1,2.7s5.5-6.1,1.4-28.3c-2.8.3-12.9-1.3-17.8,1.7h0Z"/>
  <path class="cls-10" d="M518.9,220.5h0c-6.1-.8-23.9-15.8-26-18.5-.2-.3-.1-.6,0-.8.3-.2.6-.1.8,0,2.2,2.9,19.6,17.3,25.3,18.1.3,0,.5.3.5.6s-.3.5-.6.5v.1Z"/>
  <path class="cls-10" d="M518.4,195c-19.9-9.6-37-7.6-42.4-3.2-1.9,1.6-2.4,4.2-2.5,5.7-2.1-1.5-6.9-4.7-9.2-4.5-2.9.3-4.4,7.1-4.7,8.5,0,.3.1.6.4.7.3,0,.6-.1.7-.4.6-3,2.2-7.4,3.7-7.6,1.9-.2,7.2,3.4,9.2,4.9.6.8,1.8,2.7,3.2,5.1,3.6,6,9,15.1,12.9,17.7,4.2,2.8,20.5,11.4,23.9,11.4s.2,0,.3,0c.3,0,.4-.2.5-.4.5-1.1-1.4-2.8-20.8-14-2.3-1.3-4.4-2.5-4.6-2.7s-.6-.2-.8,0c-.2.2-.2.6,0,.8.3.2,1.7,1,4.8,2.8,5.4,3.1,17.4,10,19.9,12.3-3.4-.7-17.1-7.6-22.7-11.2-3.7-2.4-9-11.4-12.6-17.3-1.4-2.4-2.5-4.3-3.2-5.2,0-.8,0-4.1,2.1-5.8,3.1-2.6,10.6-4.2,20.4-3h.1c15.1,3,23.5,12,25.4,17.3.5,1.2.4,1.9.3,2.1-.2.2-.2.6,0,.8.1,0,.2.1.4.1s.3,0,.4-.2c.6-.8.3-2.2,0-3.2-1.3-3.5-5.9-9.9-14.8-14.3,2.9,1,5.9,2.1,8.9,3.6,14.6,7,19.3,20.7,18.7,31.1-.4,7.9-3.8,14.3-8.3,15.9-.3.1-.5.4-.3.7,0,.2.3.4.5.4h.2c5-1.8,8.6-8.6,9.1-16.9.6-10.8-4.2-24.9-19.3-32.2h0l.2.2Z"/>
  <path class="cls-29" d="M442.7,206.8c-.2,0-.3,0-.4-.2-.2-.2-.2-.6,0-.8,3.4-2.8,17.9-1.9,18.5-1.9.3,0,.6.3.5.6,0,.3-.3.6-.6.5-4.1-.2-15.1-.4-17.7,1.6-.1,0-.2.1-.4.1h0l.1.1Z"/>
  <path class="cls-29" d="M443,210.4c-.2,0-.3,0-.4-.2-.2-.2-.2-.6,0-.8,2.8-2.4,17-1.7,18.7-1.6.3,0,.6.3.5.6s-.3.6-.6.5c-4.3-.2-15.7-.5-17.8,1.3-.1,0-.2.1-.4.1v.1Z"/>
  <path class="cls-29" d="M458.8,229.9s1.9-2.1,2.6-8.2c-4.9,1.8-9.5,3.9-13.6,6.1l11,2.1h0Z"/>
  <path class="cls-7" d="M442.4,203.4l-.5,23.3,2.9.6-2.3-23.9h-.1Z"/>
  <path class="cls-1" d="M542.3,230.4c-36.8-34.9-93.9-25.9-103,25.9-24-6.8-41.7-2-54.6,6.2-1.4-1.9-3.6-3.2-6.2-3.2-4.2,0-7.6,3.4-7.6,7.6s.7,3.6,1.9,5c-10.8,10.3-16.9,21.1-20.6,21.6l26.4,20.2s171.1-15.8,163.7-83.2h0v-.1Z"/>
  <path class="cls-18" d="M454.6,394.4c39.3,0,71.2-31.8,71.2-71.1s-31.9-71.1-71.2-71.1-71.2,31.8-71.2,71.1,31.9,71.1,71.2,71.1h0Z"/>
  <path class="cls-25" d="M493,263.4c12.8,12.9,20.8,30.6,20.8,50.2,0,39.3-31.9,71.1-71.2,71.1s-27.3-4.1-38.4-11.2c12.9,12.9,30.7,20.9,50.4,20.9,39.3,0,71.2-31.8,71.2-71.1s-13.1-47.2-32.7-59.9h-.1Z"/>
  <path class="cls-35" d="M424.5,288.9c-6.2,0-13-.2-20.1-.3-3.7,0-7.5-.2-11.4-.2-.3,0-.6-.3-.6-.6s.3-.6.6-.6h0c3.9,0,7.7.2,11.4.2,28.8.6,51.6,1.2,55.6-7.6,1-2.2,1-4.4-.2-6.7-2.6-5.2-11.9-12.8-41.7-19.5-.3,0-.5-.4-.4-.7s.4-.5.7-.4c24,5.4,38.7,12.3,42.5,20.1,1.3,2.6,1.3,5.2.2,7.7-3.3,7.1-17.3,8.6-36.6,8.6h0Z"/>
  <path class="cls-35" d="M390.4,293.2h-.1c-7.6-1.3-20.2-3.2-32-4.6-.3,0-.5-.3-.5-.6s.3-.5.6-.5c11.8,1.5,24.4,3.3,32,4.7.3,0,.5.4.5.7s-.3.5-.6.5h0l.1-.2Z"/>
  <path class="cls-35" d="M409.2,223.6l-86.7-17.3-49.1,16.7,87.4,19.6,48.5-19h-.1Z"/>
  <path class="cls-4" d="M360.2,245.8l47.7-19.2c.5-.2.9-.6,1-1.2l.3-1.8-48.5,19-.6,3.2h.1Z"/>
  <path class="cls-6" d="M359,245.9l-86.5-19.1c-1-.2-1.7-1.2-1.5-2.2h0c.2-1.1,1.2-1.8,2.3-1.5l86.5,19.1c1,.2,1.7,1.2,1.5,2.2h0c-.2,1.1-1.2,1.8-2.3,1.5Z"/>
  <path class="cls-21" d="M384.7,230.3l-46.8-9.9-28.4,9.9,48.1,10.8,27.1-10c.4-.1.3-.7,0-.8h0Z"/>
  <path class="cls-24" d="M381,219.8l-22.7-4.8h-.9l-14.8,5.2,25,5.3h1l12.6-4.7c.5-.2.4-.8,0-.9h0l-.2-.1Z"/>
  <path class="cls-35" d="M362.8,237.9l-22.1-68.1c-.5-1.4-1.7-2.4-3.2-2.7l-86.2-12.3c-1.5-.2-2.7,1.3-2.2,2.7l23,60.8c.6,1.5,1.8,2.6,3.3,2.9l85.2,18.8c1.3.3,2.5-1,2.1-2.3h0l.1.2Z"/>
  <path class="cls-35" d="M247.9,157.4l1.7-1.9.9,3-2.6-1.1h0Z"/>
  <path class="cls-4" d="M361.2,239.7l-22.1-68.1c-.5-1.4-1.7-2.4-3.2-2.7l-86.2-12.3c-1.5-.2-2.7,1.3-2.2,2.7l23,60.8c.6,1.5,1.8,2.6,3.4,2.9l85.2,18.8c1.3.3,2.5-1,2.1-2.3h0v.2Z"/>
  <path class="cls-35" d="M304.8,208.2c1.9-.8,1.9-5.4,0-10.3-1.9-4.9-5.1-8.3-7-7.5s-1.9,5.4,0,10.3c1.9,4.9,5.1,8.3,7,7.5Z"/>
  <path class="cls-20" d="M361.2,239.7l-4.4-13.6-100.3-43,14.1,37.2c.6,1.5,1.8,2.6,3.4,2.9l85.2,18.8c1.3.3,2.5-1,2.1-2.3h-.1Z"/>
  <path class="cls-4" d="M304.8,208.2c1-.4,1.5-1.9,1.4-3.9l-8.4-3.6c1.9,4.9,5.1,8.3,7,7.5Z"/>
  <path class="cls-46" d="M311.3,243.7c-11.8-6.4-29.5-19.7-34.5-22,0,0-3.9-1.6-8.5-1.3,1,3.3,2.3,7.8,2.3,7.8l40.8,15.4h0l-.1.1Z"/>
  <path class="cls-49" d="M311.3,244.2h-.3c-6.5-3.5-14.5-9-21.7-13.8-5.7-3.8-10.6-7.2-12.8-8.2,0,0-2-.8-4.8-1.1,3.3,2.1,6.7,6.1,7.3,6.7.2.2.2.6,0,.8s-.6.2-.8,0c-1.8-2.2-7.1-7.7-9.8-7.6h0c-.3,0-.6-.2-.6-.5s.2-.6.5-.6h0c4.7-.3,8.6,1.2,8.8,1.3,2.4,1.1,7.3,4.4,13,8.3,7.1,4.8,15.1,10.3,21.6,13.7.3.1.4.5.2.8-.1.2-.3.3-.5.3h0l-.1-.1Z"/>
  <path class="cls-35" d="M374.9,244.2h-.1l-8.9-1c-.7,0-1.2-.7-1.1-1.4,0-.7.7-1.2,1.4-1.1l8.9,1c.7,0,1.2.7,1.1,1.4,0,.6-.6,1.1-1.2,1.1h-.1Z"/>
  <path class="cls-46" d="M332.6,240s16.3-2.6,26,5.7c9.7,8.4-24.6,1.4-24.6,1.4l-1.4-7.2v.1Z"/>
  <path class="cls-6" d="M456.4,293.3c-20.5,0-50.1-3.5-82.3-7.4-67.2-8-143.4-17-151.8,5.5-.1.3-.4.4-.7.3s-.4-.4-.3-.7c2.1-5.7,8.1-9.7,18.3-12.1,8.9-2.1,20.7-3.1,36.2-2.9,28.6.4,64.1,4.6,98.5,8.7,31.4,3.7,61.7,7.3,82.4,7.3s23.9-1.7,26.2-6.2c1.3-2.5,1.3-4.9,0-7.4-10.7-20.9-107.2-34.8-108.2-35-.3,0-.5-.3-.5-.6s.3-.5.6-.5c.2,0,24.7,3.5,50.2,9.6,34.4,8.2,54.2,16.9,58.8,26,1.4,2.8,1.4,5.6,0,8.4-2.6,5-12.6,6.8-27.5,6.8h0l.1.2Z"/>
  <path class="cls-26" d="M391.3,189.8s-15,4.8-16.2,6.3-11.9,10-12.5,11.3,1,3.2,3.2,3.1c2.2,0,12.7-8.8,13.3-9.3.6-.5,8.1-3.1,8.1-3.1l4.1-8.3h0Z"/>
  <path class="cls-45" d="M427.9,204.5c-.8-.1-18.6-14.2-20.4-14.6-1.8-.4-15.8-1-17.7.4-1.9,1.4-8.5,11-9,14.1-.5,2.5,4.7,15.8,5.4,16.1,2.5,1.1,2.9-1.5,2.9-1.5,0,0,.7,1.9,2.4,2.1.9.1,1.9-.8,1.9-.8,0,0,1.2,1.7,2.8,1.6,1.3,0,2-1,2.2-2.6.3-2.9.6-8,.6-8,0,0,8.4,9.8,14.2,12.9,4.3,2.3,11.4.5,13.2-1.2.9-1.7,1.5-18.6,1.5-18.6h0v.1Z"/>
  <path class="cls-7" d="M389.1,219.6c-.3,0-.5-.2-.6-.4-.3-1.2-2.9-11.8-3-13,0-1.3,2.5-4.8,3.2-5.8.2-.3.6-.3.8-.1.3.2.3.6.1.8-1.5,1.9-3,4.4-3,5,0,.9,1.8,8.2,2.9,12.8,0,.3-.1.6-.4.7h-.1.1Z"/>
  <path class="cls-7" d="M393.3,220.9c-.3,0-.6-.2-.6-.5,0-.4-.7-10.8-.7-12,0-1.3,1.8-4.2,2.2-4.8.2-.3.5-.3.8-.2.3.2.4.5.2.8-.8,1.2-2,3.4-2,4.2,0,1.2.7,11.8.7,11.9,0,.3-.2.6-.5.6h-.1Z"/>
  <path class="cls-7" d="M398.9,211.9h-.3c-.3-.2-.4-.5-.2-.8.6-1.1,2.8-4.5,4.2-4.8.3,0,.6.2.7.5,0,.3-.2.6-.5.7-.6,0-2.3,2.3-3.4,4.2-.1.2-.3.3-.5.3h0v-.1Z"/>
  <path class="cls-35" d="M527,267.6c13.4,0,25.1,1.9,33.2,17.4h-63.1s11-17.4,29.9-17.4Z"/>
  <path class="cls-48" d="M575.1,280.5h-.2c-.3-.1-.5-.4-.4-.7,0-.2,5.8-17.8-1.5-23.3-3.9-3-11.3-1.5-18.4,0-5.5,1.1-10.8,2.2-14.2,1-3.3-1.1-4.6-6.5-6-12.3-1.4-5.7-2.8-11.7-6.2-12.3-2.6-.5-6.2,1.1-8.5,5.9-.1.3-.5.4-.8.3-.3-.1-.4-.5-.3-.8,2.6-5.4,6.7-7.2,9.7-6.6,4.1.8,5.6,7.1,7.1,13.2,1.2,5.2,2.5,10.6,5.3,11.5,3.1,1,8.2,0,13.6-1.1,7.4-1.5,15-3,19.3.3,8,6,2.1,23.8,1.9,24.6,0,.2-.3.4-.5.4h0l.1-.1Z"/>
  <path class="cls-31" d="M514,272.4c-.4,0-.7,0-1.1-.3-4-2.4-23.8-14.8-21-24.3,1-3.6,3.3-4.9,5.1-5.4,4.2-1.2,9.2,1.5,11.5,3.6.9.8.9,2.1.1,2.9-.8.8-2.1.9-2.9.1-1.9-1.8-5.4-3.3-7.6-2.7-.7.2-1.6.7-2.2,2.5-1.4,4.8,10.4,14.3,19.2,19.6,1,.6,1.3,1.9.7,2.9-.4.6-1.1,1-1.8,1h0v.1Z"/>
  <path class="cls-11" d="M551.8,241.5h-46.4c-1.8,29.7,13.5,36.5,13.5,36.5h19.8s15.6-9.4,13.2-36.4h0l-.1-.1Z"/>
  <path class="cls-29" d="M564,297.1l13.5,2.7,3.8-14.9-5.9-6.2-7.5,4.2-3.8,14.2h-.1Z"/>
  <path class="cls-10" d="M567.8,296.9l13.6.3.3-13.1-6.4-5.4-7.2,5.1-.3,13.1h0Z"/>
  <path class="cls-48" d="M528.6,245.2c12.8,0,23.2-1.7,23.2-3.7s-10.4-3.7-23.2-3.7-23.2,1.7-23.2,3.7,10.4,3.7,23.2,3.7Z"/>
  <path class="cls-36" d="M509.1,243.5c4.1,1,11.3,1.7,19.6,1.7s15.5-.7,19.6-1.7c-4.1-1-11.3-1.7-19.6-1.7s-15.5.7-19.6,1.7Z"/>
  <path class="cls-48" d="M517.3,244.6h-.3c-.4-.1-.6-.6-.4-.9l2.2-5.8c.1-.4.6-.6.9-.4.4.1.6.6.4.9l-2.2,5.8c-.1.3-.4.5-.7.5l.1-.1Z"/>
  <path class="cls-27" d="M519.2,186.9c21,8.8,15,40.2,13.9,46.6-1.7,10.2-5.7,7.9-6.8,5s2.1-12.8-3.4-20.8c-7.9-11.5-12.2-8.8-17.5-17.9-3.6-6.2.4-18.4,13.7-12.9h.1Z"/>
  <path class="cls-28" d="M514.7,172c3.2-3.6-7.2-17.7-13.2-13.2-5.9,4.5,7.8,19.2,13.2,13.2Z"/>
  <path class="cls-28" d="M499.9,174.1c-3.5-1.9-23.9-13.1-21.3-29.3,1.6-9.9,5.5-15.2,20.9-16,14.1-.7,14.9-24.7-7.4-24.7-23.4,0-36,23.5-31.2,44.4,5,22,28,33.2,36.5,33.2s6.3-5.6,2.6-7.7l-.1.1Z"/>
  <path class="cls-1" d="M544.3,276.4c.1-.4.2-.9.2-1.3,0-2.7-2.2-4.8-4.8-4.8s-4.7,2-4.8,4.6c-2-.2-4-.3-6.1-.3-18.5,0-33.6,7.2-33.6,16s15,16,33.6,16,33.6-7.2,33.6-16-7.3-11.5-18-14.2h-.1Z"/>
</svg>