<svg width="600" height="433" viewBox="0 0 600 433" fill="none" xmlns="http://www.w3.org/2000/svg">
<path d="M313.955 409.879C419.741 409.879 505.497 324.172 505.497 218.447C505.497 112.723 419.741 27.0159 313.955 27.0159C208.169 27.0159 122.413 112.723 122.413 218.447C122.413 324.172 208.169 409.879 313.955 409.879Z" fill="url(#paint0_linear_894_1105)"/>
<path d="M340.932 62.8485H331.927C329.58 62.8485 327.673 60.9394 327.673 58.5967V48.0381C330.21 47.7539 332.183 45.6043 332.183 42.992C332.183 40.1866 329.908 37.9131 327.101 37.9131C324.294 37.9131 322.019 40.1866 322.019 42.992C322.019 45.6043 323.991 47.7539 326.528 48.0381V58.5967C326.528 61.5733 328.953 63.9962 331.931 63.9962H340.935C343.283 63.9962 345.19 65.9053 345.19 68.248V93.0632C345.19 93.3802 345.449 93.6353 345.762 93.6353C346.076 93.6353 346.334 93.3802 346.334 93.0632V68.248C346.334 65.2714 343.91 62.8485 340.932 62.8485Z" fill="white"/>
<path d="M516.292 25.4602C501.936 25.4602 490.296 37.0753 490.255 51.4121C489.02 51.0332 487.707 50.8292 486.347 50.8292C478.976 50.8292 473.005 56.8007 473.005 64.164C473.005 71.5274 478.572 77.0835 485.589 77.477V77.4989H516.292C530.67 77.4989 542.328 65.8473 542.328 51.4777C542.328 37.1081 530.67 25.4565 516.292 25.4565V25.4602Z" fill="#E7DCFF"/>
<path d="M516.824 433C524.481 433 530.688 426.797 530.688 419.144C530.688 411.492 524.481 405.289 516.824 405.289C509.167 405.289 502.96 411.492 502.96 419.144C502.96 426.797 509.167 433 516.824 433Z" fill="#E7DCFF"/>
<path d="M442.866 158.856C433.468 158.856 424.351 160.054 415.657 162.31C405.986 115.327 364.371 80 314.503 80C267.992 80 228.663 110.733 215.733 152.99C206.176 148.155 195.37 145.43 183.928 145.43C144.967 145.43 113.384 176.996 113.384 215.938C113.384 222.248 114.219 228.358 115.772 234.177C114.044 234.049 112.301 233.984 110.544 233.984C71.583 233.984 40 265.55 40 304.492C40 343.433 71.583 375 110.544 375H442.869C502.587 375 551 326.614 551 266.923C551 207.233 502.591 158.848 442.869 158.848L442.866 158.856Z" fill="url(#paint1_linear_894_1105)"/>
<path d="M352.186 293.396L253.37 299.043C250.891 305.328 249.532 312.174 249.532 319.34C249.532 343.697 265.266 364.38 287.128 371.798C282.582 350.94 297.966 301.08 352.186 293.399V293.396Z" fill="#8463BD"/>
<path d="M111.081 375C71.8862 375 40 343.213 40 304.139C40 265.067 71.8862 233.28 111.081 233.28C112.553 233.28 114.05 233.327 115.551 233.421C114.086 227.7 113.347 221.799 113.347 215.861C113.347 176.787 145.233 145 184.427 145C184.744 145 185 145.254 185 145.57C185 145.886 184.744 146.14 184.427 146.14C145.867 146.14 114.495 177.415 114.495 215.857C114.495 221.962 115.292 228.027 116.862 233.893C116.91 234.071 116.869 234.264 116.75 234.405C116.63 234.547 116.451 234.624 116.265 234.613C114.531 234.485 112.786 234.423 111.081 234.423C72.5201 234.423 41.1477 265.699 41.1477 304.139C41.1477 342.581 72.5201 373.856 111.081 373.856C111.398 373.856 111.653 374.114 111.653 374.426C111.653 374.739 111.398 374.996 111.081 374.996V375Z" fill="#E7DCFF"/>
<path d="M175.848 123.103C175.848 120.298 173.574 118.024 170.767 118.024C167.96 118.024 165.685 120.298 165.685 123.103C165.685 125.716 167.657 127.865 170.194 128.149V166.267C170.194 166.584 170.449 166.839 170.767 166.839C171.084 166.839 171.339 166.584 171.339 166.267V128.149C173.876 127.865 175.848 125.716 175.848 123.103Z" fill="white"/>
<path d="M227.265 36.4923C227.265 32.4627 223.995 29.1946 219.963 29.1946C215.931 29.1946 212.661 32.4627 212.661 36.4923C212.661 40.245 215.493 43.331 219.139 43.739V62.947C219.139 63.4025 219.507 63.7705 219.963 63.7705C220.419 63.7705 220.787 63.4025 220.787 62.947V43.739C224.432 43.331 227.265 40.2414 227.265 36.4923Z" fill="#E7DCFF"/>
<path d="M197.572 151.005C197.255 151.005 197 150.75 197 150.433V117.478C197 114.006 199.829 111.179 203.303 111.179H209.646C212.49 111.179 214.801 108.869 214.801 106.027V54.2795C214.801 53.9626 215.056 53.7075 215.373 53.7075C215.69 53.7075 215.945 53.9626 215.945 54.2795V106.027C215.945 109.499 213.12 112.326 209.642 112.326H203.299C200.456 112.326 198.144 114.636 198.144 117.478V150.433C198.144 150.75 197.889 151.005 197.572 151.005Z" fill="white"/>
<path d="M352.186 293.396C352.186 293.396 351.81 293.487 351.106 293.662C350.753 293.738 350.323 293.858 349.823 294.008C349.575 294.081 349.306 294.161 349.021 294.245C348.737 294.339 348.438 294.438 348.121 294.543C346.856 294.977 345.347 295.571 343.71 296.412C343.298 296.616 342.89 296.861 342.459 297.09C342.033 297.327 341.614 297.604 341.176 297.87C340.75 298.154 340.312 298.445 339.864 298.744C339.434 299.068 338.982 299.382 338.548 299.735C338.114 300.092 337.665 300.442 337.239 300.839C337.024 301.036 336.801 301.225 336.586 301.429C336.375 301.637 336.164 301.848 335.948 302.056C335.73 302.264 335.526 302.486 335.318 302.708C335.11 302.931 334.899 303.156 334.687 303.382C334.286 303.856 333.863 304.319 333.48 304.829C332.689 305.823 331.942 306.898 331.253 308.035C330.557 309.172 329.93 310.378 329.368 311.638C328.235 314.152 327.425 316.907 326.962 319.748C326.521 322.598 326.43 325.545 326.802 328.442C327.126 331.342 327.939 334.169 329.073 336.803C329.664 338.111 330.334 339.368 331.071 340.57C331.822 341.766 332.664 342.88 333.531 343.944C335.321 346.032 337.305 347.861 339.386 349.344C341.46 350.838 343.579 352.054 345.62 353.031C345.875 353.151 346.127 353.275 346.378 353.392C346.633 353.501 346.885 353.607 347.133 353.716C347.632 353.927 348.117 354.142 348.602 354.324C349.087 354.51 349.553 354.7 350.016 354.871C350.483 355.031 350.935 355.188 351.373 355.337C352.251 355.636 353.093 355.862 353.862 356.106C354.643 356.314 355.357 356.518 356.01 356.678C356.662 356.827 357.249 356.966 357.756 357.09C358.266 357.206 358.704 357.286 359.057 357.363C359.765 357.512 360.144 357.592 360.144 357.592C360.144 357.592 359.757 357.578 359.032 357.549C358.671 357.531 358.223 357.516 357.698 357.479C357.173 357.439 356.571 357.385 355.893 357.319C355.219 357.246 354.475 357.137 353.658 357.031C353.254 356.973 352.831 356.893 352.397 356.813C351.96 356.729 351.504 356.66 351.045 356.547C349.178 356.164 347.096 355.592 344.884 354.762C342.671 353.938 340.323 352.849 338.001 351.388C335.675 349.941 333.408 348.08 331.348 345.864C330.334 344.742 329.372 343.536 328.497 342.239C327.633 340.938 326.849 339.558 326.171 338.111C324.837 335.211 323.926 332.052 323.543 328.835C323.357 327.225 323.273 325.603 323.324 323.993C323.371 322.383 323.554 320.783 323.827 319.22C324.093 317.653 324.505 316.127 324.994 314.651C325.231 313.912 325.515 313.19 325.792 312.476C326.095 311.773 326.397 311.074 326.744 310.403C327.418 309.055 328.151 307.762 328.982 306.574C329.802 305.383 330.662 304.253 331.596 303.24C333.422 301.178 335.456 299.531 337.436 298.212C339.412 296.879 341.398 295.95 343.188 295.265C344.975 294.565 346.604 294.183 347.939 293.909C348.274 293.847 348.591 293.786 348.886 293.727C349.185 293.68 349.47 293.647 349.732 293.614C350.257 293.541 350.702 293.49 351.063 293.469C351.785 293.418 352.171 293.388 352.171 293.388L352.186 293.396Z" fill="white"/>
<path d="M454.205 394.631C435.89 394.631 418.443 387.764 405.049 375.292H304.947C274.073 375.292 248.959 350.189 248.959 319.337C248.959 319.02 249.214 318.765 249.532 318.765C249.849 318.765 250.104 319.024 250.104 319.337C250.104 349.559 274.704 374.145 304.943 374.145H405.271C405.417 374.145 405.559 374.199 405.665 374.301C418.866 386.671 436.105 393.484 454.205 393.484C476.753 393.484 497.459 383.133 511.013 365.087C511.203 364.832 511.564 364.781 511.815 364.974C512.07 365.164 512.121 365.524 511.928 365.776C505.348 374.538 496.723 381.799 486.986 386.773C476.778 391.986 465.747 394.631 454.205 394.631Z" fill="#8463BD"/>
<path d="M540.997 221.708C540.997 170.271 499.275 128.568 447.804 128.568C396.333 128.568 354.61 170.267 354.61 221.708L532.835 259.873C538.077 248.225 540.994 235.305 540.994 221.708H540.997Z" fill="#8463BD"/>
<path d="M527.316 376.917C527.134 376.917 526.955 376.83 526.842 376.669C526.663 376.407 526.729 376.05 526.991 375.871C532.175 372.315 548.303 356.569 563.833 334.643C577.514 315.329 594.692 285.581 598.855 253.551C598.895 253.238 599.18 253.016 599.497 253.056C599.81 253.096 600.033 253.384 599.993 253.697C595.8 285.96 578.524 315.883 564.77 335.302C549.156 357.345 532.882 373.215 527.64 376.811C527.542 376.881 527.429 376.913 527.316 376.913V376.917Z" fill="#8463BD"/>
<path d="M184.055 287.377C223.353 287.377 255.211 255.537 255.211 216.261C255.211 176.985 223.353 145.146 184.055 145.146C144.756 145.146 112.898 176.985 112.898 216.261C112.898 255.537 144.756 287.377 184.055 287.377Z" fill="url(#paint2_linear_894_1105)"/>
<path d="M131.927 168.434C131.84 168.434 131.752 168.416 131.669 168.372C116.955 160.954 111.031 147.445 108.651 137.418C106.07 126.543 106.883 116.213 108.027 113.958C108.17 113.678 108.516 113.561 108.797 113.707C109.081 113.849 109.194 114.195 109.048 114.479C108.1 116.356 107.196 126.335 109.766 137.159C112.088 146.949 117.863 160.131 132.183 167.352C132.467 167.494 132.58 167.84 132.438 168.121C132.336 168.321 132.135 168.438 131.924 168.438L131.927 168.434Z" fill="#E7DCFF"/>
<path d="M121.297 104.872C140.368 104.872 155.827 89.4209 155.827 70.3614C155.827 51.3019 140.368 35.8511 121.297 35.8511C102.226 35.8511 86.7666 51.3019 86.7666 70.3614C86.7666 89.4209 102.226 104.872 121.297 104.872Z" fill="#E7DCFF"/>
<path d="M172.123 71.4471C165.349 71.8369 158.886 73.1631 152.831 75.0832C152.838 74.7626 152.845 74.4383 152.845 74.114C152.845 54.7676 137.097 39.0317 117.743 39.0317C111.29 39.0317 105.242 40.7806 100.044 43.8301L97.5211 39.7823C97.3534 39.5163 97.0034 39.4325 96.7373 39.5965C84.9258 46.7594 77.7114 59.085 77.2229 72.7842C73.4133 73.1012 69.4834 73.2032 65.4479 73.0684C65.1343 73.0575 64.8646 73.3052 64.8573 73.6222C64.8463 73.9392 65.0942 74.2051 65.4114 74.2124C66.567 74.2489 67.7154 74.2671 68.8564 74.2671C71.6853 74.2671 74.4668 74.1468 77.201 73.9173C77.201 74.0303 77.1937 74.1468 77.1937 74.2598C77.1937 96.6048 95.3848 114.785 117.743 114.785C125.533 114.785 133.101 112.57 139.627 108.384C139.889 108.216 139.969 107.863 139.805 107.597L137.148 103.334C146.036 97.4209 152.083 87.5728 152.78 76.3001C158.868 74.3363 165.371 72.981 172.196 72.5875C172.513 72.5692 172.753 72.2996 172.735 71.9827C172.717 71.6657 172.451 71.4252 172.13 71.4434L172.123 71.4471ZM151.668 75.4585C148.726 76.4385 145.882 77.5534 143.148 78.7703C142.051 73.7497 139.973 68.4959 136.914 63.428L147.1 57.0811C150.02 62.0908 151.697 67.9093 151.697 74.114C151.697 74.5658 151.686 75.0103 151.668 75.4585ZM136.532 102.358L127.885 88.4873C132.208 85.6345 137.053 82.8364 142.328 80.3989C144.078 89.8681 142.157 98.2407 136.532 102.358ZM89.5155 92.9577L99.7011 86.6146C103.128 91.923 107.251 96.3789 111.636 99.6871C108.735 102.325 106.631 104.485 105.446 105.75C98.9173 103.207 93.3652 98.6997 89.5155 92.9614V92.9577ZM83.7848 74.1177C83.7848 73.7898 83.7921 73.4655 83.7994 73.1376C86.9199 72.6494 89.9566 72.0045 92.8913 71.2066C94.0906 75.9649 96.1503 80.8908 99.085 85.6454L88.8921 91.9959C85.6586 86.8004 83.7848 80.6722 83.7848 74.1177ZM100.062 85.037C97.1857 80.3771 95.1588 75.5495 93.9849 70.9079C98.4944 69.6144 102.756 67.9603 106.708 65.9492C108.188 65.195 109.613 64.3971 110.988 63.5555L117.579 74.1286L100.062 85.0406V85.037ZM118.184 75.0978L126.321 88.1521C120.776 91.8866 116.12 95.6757 112.541 98.8673C108.166 95.6174 104.036 91.2052 100.671 86.0061L118.18 75.0978H118.184ZM99.8943 45.7647L110.423 62.6556C105.476 65.6723 99.8651 68.0879 93.7224 69.8367C91.3419 59.3146 93.387 49.9 99.8906 45.7647H99.8943ZM111.961 62.947C117.178 59.6206 121.592 55.6748 125.074 51.2298C128.869 54.396 132.409 58.4219 135.343 63.06L118.552 73.5202L111.961 62.947ZM111.4 62.0471L100.89 45.1927C102.847 44.1799 105.056 43.6625 107.473 43.6625C112.807 43.6625 118.734 46.1947 124.203 50.5267C120.768 54.9643 116.445 58.83 111.396 62.0507L111.4 62.0471ZM92.6361 70.1355C89.8144 70.8933 86.8798 71.5163 83.854 71.9899C84.4264 62.794 88.677 54.5781 95.1551 48.7997C91.5789 53.966 90.7368 61.7338 92.6361 70.1355ZM112.581 100.376C117.717 104.023 123.167 106.089 128.245 106.089C128.57 106.089 128.891 106.074 129.211 106.059C125.628 107.349 121.767 108.052 117.743 108.052C113.718 108.052 110.105 107.393 106.617 106.18C107.856 104.872 109.876 102.828 112.581 100.376ZM128.245 104.941C123.55 104.941 118.392 102.977 113.496 99.5523C117.01 96.4299 121.545 92.7464 126.929 89.1212L135.573 102.984C135.518 103.017 135.464 103.054 135.409 103.086C133.313 104.311 130.907 104.941 128.249 104.941H128.245ZM127.279 87.5145L119.161 74.4893L135.945 64.0328C138.985 69.0716 141.038 74.2853 142.102 79.2403C136.681 81.7251 131.712 84.5888 127.283 87.5108L127.279 87.5145ZM146.506 56.1011L136.317 62.4479C133.276 57.6386 129.667 53.507 125.796 50.2716C127.575 47.8706 129.091 45.3312 130.323 42.6715C130.334 42.6496 130.342 42.6241 130.349 42.5986C137.053 45.2875 142.704 50.053 146.506 56.0938V56.1011ZM129.284 42.1979C128.081 44.7956 126.62 47.2549 124.928 49.5648C119.281 45.0834 113.149 42.5112 107.477 42.5112C106.577 42.5112 105.705 42.5877 104.856 42.7189C108.833 41.083 113.182 40.1758 117.743 40.1758C121.793 40.1758 125.679 40.8899 129.284 42.1942V42.1979ZM96.8466 40.8717L99.0631 44.424C89.7197 50.3154 83.3364 60.4877 82.6948 72.1648C81.2767 72.3689 79.833 72.5401 78.3748 72.6785C78.8852 59.6133 85.695 47.8488 96.8466 40.8717ZM117.743 113.645C96.0155 113.645 78.342 95.9781 78.342 74.2671C78.342 74.1177 78.3457 73.9683 78.3493 73.8189C79.8002 73.6805 81.2329 73.5092 82.651 73.3052C82.6437 73.5748 82.6401 73.8444 82.6401 74.114C82.6401 80.909 84.5831 87.2558 87.9407 92.6335C87.8021 92.8156 87.7803 93.0743 87.9115 93.282C88.0209 93.4569 88.2068 93.5516 88.4 93.5516C88.4401 93.5516 88.4838 93.5443 88.5239 93.5334C92.5668 99.5924 98.447 104.325 105.359 106.941C105.384 106.952 105.41 106.963 105.439 106.97C109.271 108.409 113.419 109.196 117.746 109.196C124.429 109.196 130.681 107.32 136.003 104.066C136.065 104.03 136.127 103.997 136.185 103.961L138.529 107.721C132.299 111.594 125.125 113.638 117.746 113.638L117.743 113.645ZM141.431 98.4046C144.085 93.6135 144.741 87.0408 143.389 79.918C146.025 78.7375 148.766 77.6518 151.602 76.6936C150.961 85.1791 147.184 92.8011 141.431 98.4082V98.4046Z" fill="#8463BD"/>
<path d="M82.5088 218.932C70.2708 218.932 60.5446 215.809 53.5015 212.33C38.2924 204.817 28.8177 192.361 26.9439 185.915C26.8564 185.613 27.0314 185.292 27.334 185.205C27.6402 185.117 27.9574 185.292 28.0449 185.595C29.4703 190.502 37.6909 203.243 54.0082 211.303C66.0712 217.26 86.1616 222.145 113.386 211.579C113.682 211.467 114.013 211.612 114.13 211.907C114.243 212.203 114.097 212.534 113.802 212.651C102.041 217.212 91.5861 218.932 82.5088 218.932Z" fill="#E7DCFF"/>
<path d="M322.07 67.7527C321.775 67.7527 321.523 67.5268 321.498 67.2244C319.478 42.2124 309.836 23.9881 292.844 13.047C270.73 -1.18776 243.152 1.56301 233.258 5.12261C232.959 5.22827 232.631 5.07524 232.525 4.77649C232.42 4.47773 232.573 4.14982 232.872 4.04416C242.937 0.418977 270.996 -2.38644 293.467 12.0815C310.776 23.223 320.59 41.7461 322.642 67.1297C322.668 67.4466 322.431 67.7235 322.117 67.749C322.103 67.749 322.084 67.749 322.07 67.749V67.7527Z" fill="#E7DCFF"/>
<path d="M192.818 77.8887C191.925 78.5992 190.646 78.7012 189.632 78.0563C188.349 77.2438 187.966 75.5424 188.783 74.2599L205.144 48.5703C205.957 47.2878 207.659 46.9052 208.942 47.7213C210.226 48.5338 210.608 50.2353 209.792 51.5178L193.431 77.2074C193.259 77.4734 193.052 77.7029 192.818 77.8887Z" fill="#215FFF"/>
<path d="M217.043 52.9167C211.965 52.9167 207.357 51.2809 203.715 48.184C194.182 40.0774 194.266 24.2796 203.897 12.9668C209.522 6.36135 217.531 2.41919 225.325 2.41919C230.404 2.41919 235.011 4.05508 238.653 7.15197C248.186 15.2585 248.103 31.0563 238.471 42.3691C232.846 48.9746 224.837 52.9167 217.043 52.9167ZM225.325 6.75848C218.789 6.75848 212.016 10.1286 207.207 15.7795C199.129 25.267 198.826 38.3213 206.533 44.8758C209.38 47.295 213.014 48.5738 217.046 48.5738C223.583 48.5738 230.356 45.2037 235.165 39.5527C243.243 30.0653 243.546 17.011 235.839 10.4565C232.992 8.03732 229.357 6.75848 225.325 6.75848Z" fill="#8463BD"/>
<path d="M215.417 50.4976C210.339 50.4976 205.731 48.8617 202.089 45.7648C192.556 37.6582 192.64 21.8604 202.271 10.5476C207.896 3.94216 215.905 0 223.7 0C228.778 0 233.386 1.63589 237.027 4.73278C246.561 12.8393 246.477 28.6371 236.845 39.9499C231.22 46.5554 223.211 50.4976 215.417 50.4976ZM223.7 4.34294C217.163 4.34294 210.39 7.71308 205.581 13.364C197.503 22.8514 197.2 35.9057 204.907 42.4602C207.754 44.8794 211.389 46.1583 215.421 46.1583C221.957 46.1583 228.73 42.7881 233.539 37.1372C241.617 27.6498 241.92 14.5955 234.213 8.04099C231.366 5.62177 227.731 4.34294 223.7 4.34294Z" fill="white"/>
<path d="M447.807 129.144C447.738 129.144 447.669 129.133 447.603 129.108C447.308 128.995 447.158 128.663 447.271 128.368C447.311 128.262 451.354 117.798 459.703 107.01C467.427 97.0274 480.526 84.7018 499.049 82.6907C499.366 82.6579 499.646 82.8838 499.679 83.1971C499.712 83.5104 499.486 83.7946 499.173 83.8274C481.062 85.7948 468.215 97.8873 460.629 107.684C452.379 118.341 448.38 128.67 448.343 128.772C448.256 129.002 448.037 129.14 447.807 129.14V129.144Z" fill="#E7DCFF"/>
<path d="M502.151 91.3583L498.101 75.495L503.759 73.1085L502.84 68.5215L496.628 71.3451L496.654 71.4799C496.599 71.4799 496.541 71.4799 496.486 71.4945C496.18 71.571 495.994 71.8843 496.07 72.1904L500.569 89.8135C499.712 89.522 498.622 89.5512 497.554 89.9702C495.622 90.728 494.499 92.4732 495.046 93.8613C495.593 95.2495 497.601 95.7632 499.533 95.0017C501.251 94.3277 502.322 92.8776 502.158 91.5879C502.169 91.5113 502.169 91.4348 502.147 91.3583H502.151Z" fill="#8463BD"/>
<path d="M547.016 101.181C546.706 101.108 546.4 101.297 546.327 101.607L546.294 101.738H534.151C534.151 101.48 533.976 101.243 533.71 101.181C533.4 101.108 533.094 101.297 533.021 101.607L528.646 120.05C528.027 119.434 527.082 118.983 525.989 118.859C523.925 118.625 522.117 119.638 521.95 121.121C521.782 122.604 523.317 123.999 525.376 124.233C527.44 124.466 529.248 123.453 529.416 121.97C529.426 121.886 529.426 121.806 529.426 121.722L532.893 107.101H545.022L541.956 120.057C541.336 119.438 540.389 118.983 539.291 118.859C537.228 118.625 535.42 119.638 535.252 121.121C535.084 122.604 536.619 123.999 538.679 124.233C540.739 124.466 542.55 123.453 542.718 121.97C542.725 121.905 542.725 121.839 542.725 121.773L547.435 101.873C547.508 101.563 547.319 101.257 547.009 101.185L547.016 101.181Z" fill="#8463BD"/>
<path d="M205.574 400.202C201.178 400.202 196.081 398.993 190.329 396.573C171.656 388.722 152.244 370.731 151.445 368.089C151.354 367.787 151.526 367.466 151.828 367.375C152.131 367.284 152.452 367.455 152.543 367.758C153.152 369.773 172.057 387.651 190.773 395.517C200.354 399.543 207.984 400.14 213.456 397.291C213.736 397.145 214.083 397.255 214.228 397.535C214.374 397.816 214.265 398.162 213.984 398.308C211.556 399.572 208.749 400.202 205.574 400.202Z" fill="#F7BD86"/>
<path d="M193.234 367.295C192.683 368.574 187.299 368.588 181.98 366.544C176.661 364.5 184.977 359.593 184.977 359.593C184.977 359.593 194.667 363.954 193.234 367.295Z" fill="#070000"/>
<path d="M133.79 332.905C133.171 334.166 133.141 336.687 134.574 340.574C136.007 344.458 142.007 340.574 142.007 340.574C142.007 340.574 136.893 333.28 133.787 332.905H133.79Z" fill="#070000"/>
<path d="M149.801 359.035C148.248 359.48 127.429 370.173 121.37 371.332C115.311 372.49 111.381 345.649 111.381 345.649C111.381 345.649 133.568 335.539 137.83 334.952C142.091 334.366 149.801 359.035 149.801 359.035Z" fill="#F7BD86"/>
<path d="M181.364 374.385L188.593 361.243L164.413 353.155L158.237 363.768L181.364 374.385Z" fill="#A86854"/>
<path d="M149.801 359.035C149.801 359.035 146.528 348.557 143.064 341.42L135.861 335.455C135.861 335.455 142.962 352.466 142.397 362.493C146.276 360.642 149.251 359.196 149.801 359.039V359.035Z" fill="#A86854"/>
<path d="M127.662 335.903C127.662 335.903 125.664 333.528 124.567 333.189C119.361 331.582 105.417 343.081 105.417 343.081C105.417 343.081 84.4665 343.66 76.1438 348.51C84.7217 351.432 107.729 348.51 107.729 348.51L127.659 335.907L127.662 335.903Z" fill="#934625"/>
<path d="M53.7493 345.132C62.9069 343.329 75.0865 348.215 76.1437 348.502C87.0365 345.227 105.833 345.227 106.507 345.322C107.182 345.416 128.293 333.761 132.533 335.208C139.087 341.857 138.559 350.481 136.823 354.43C139.605 360.93 140.21 366.697 140.742 367.219C141.274 367.74 130.863 376.218 121.224 379.945C111.585 383.668 82.0239 389.451 67.3726 378.018C52.7213 366.585 48.0951 351.428 53.7493 345.132Z" fill="#FF6D01"/>
<path d="M140.742 367.219C140.21 366.698 139.605 360.93 136.823 354.43C136.823 354.43 135.748 352.259 134.461 352.517C133.174 352.776 113.897 367.084 110.813 367.219C107.729 367.353 77.0115 367.219 77.0115 367.219C77.0115 367.219 74.2482 378.477 70.2527 379.945C85.6039 388.744 106.526 387.851 115.57 384.357C125.209 380.634 141.275 367.743 140.742 367.222V367.219Z" fill="#934625"/>
<path d="M80.2887 372.942C81.6015 372.942 82.6656 372.181 82.6656 371.241C82.6656 370.301 81.6015 369.54 80.2887 369.54C78.976 369.54 77.9119 370.301 77.9119 371.241C77.9119 372.181 78.976 372.942 80.2887 372.942Z" fill="#5C240F"/>
<path d="M92.308 373.809C93.6207 373.809 94.6849 373.048 94.6849 372.108C94.6849 371.168 93.6207 370.406 92.308 370.406C90.9953 370.406 89.9312 371.168 89.9312 372.108C89.9312 373.048 90.9953 373.809 92.308 373.809Z" fill="#5C240F"/>
<path d="M100.277 373.809C101.59 373.809 102.654 373.048 102.654 372.108C102.654 371.168 101.59 370.406 100.277 370.406C98.9643 370.406 97.9001 371.168 97.9001 372.108C97.9001 373.048 98.9643 373.809 100.277 373.809Z" fill="#5C240F"/>
<path d="M113.643 371.337C114.911 371.001 115.744 369.991 115.503 369.083C115.262 368.175 114.038 367.712 112.769 368.048C111.5 368.385 110.667 369.394 110.908 370.302C111.15 371.211 112.374 371.674 113.643 371.337Z" fill="#5C240F"/>
<path d="M140.917 370.669C128.57 370.669 122.001 366.869 120.655 363.998C120.131 362.879 120.305 361.782 121.129 360.984C123.944 358.266 133.834 359.126 149.59 367.175C149.871 367.32 149.984 367.663 149.841 367.947C149.696 368.228 149.353 368.34 149.069 368.195C132.872 359.921 123.966 359.84 121.928 361.808C121.45 362.267 121.374 362.824 121.694 363.509C123.262 366.854 132.533 370.803 148.241 369.106C148.558 369.069 148.839 369.299 148.872 369.616C148.905 369.929 148.678 370.213 148.361 370.246C145.678 370.537 143.199 370.665 140.914 370.665L140.917 370.669Z" fill="#F7BD86"/>
<path d="M182.808 391.553C182.808 391.553 179.964 384.437 180.478 382C180.992 379.559 184.977 372.622 184.977 372.622L152.845 364.785L142.284 373.496C142.284 373.496 120.389 374.72 109.161 376.644C106.387 377.121 132.667 397.798 148.606 397.798C164.544 397.798 182.811 391.553 182.811 391.553H182.808Z" fill="#FF6D01"/>
<path d="M125.522 379.431C131.614 376.203 149.94 380.947 152.207 377.69C155.948 372.308 149.138 364.788 151.183 362.151C157.431 354.095 182.76 369.864 184.977 372.625C184.689 374.76 180.799 379.369 180.478 382.004C180.157 384.638 183.056 392.052 183.056 392.052C183.056 392.052 126.514 389.935 125.522 379.435V379.431Z" fill="#934625"/>
<path d="M98.921 390.088C98.9903 389.52 94.3969 379.978 101.593 377.792C115.989 373.423 142.117 384.918 152.105 386.463C160.202 387.716 179.097 386.368 182.534 391.119C184.93 394.431 183.555 402.727 183.555 402.727L98.921 390.088Z" fill="white"/>
<path d="M98.9901 389.52C100.485 382.852 115.315 383.8 124.053 385.982C132.791 388.164 149.116 392.792 152.973 392.792C156.83 392.792 179.191 391.957 183.176 400.242C186.687 407.544 171.255 411.344 148.303 408.881C121.698 406.024 97.4955 396.191 98.9901 389.523V389.52Z" fill="#070000"/>
<path d="M97.9331 386.66C97.9331 386.66 67.8576 381.293 56.706 365.426C49.0723 354.565 53.7495 345.132 53.7495 345.132C53.7495 345.132 49.3312 343.948 47.4501 347.187C44.1728 352.838 43.3963 363.666 56.6732 375.285C70.8761 387.713 98.9903 389.516 98.9903 389.516L97.9331 386.66Z" fill="url(#paint3_linear_894_1105)"/>
<path d="M99.8907 372.684C99.8579 372.684 99.8251 372.684 99.7923 372.676C99.5407 372.633 99.3439 372.425 99.3184 372.17C99.2965 371.948 96.9196 350.058 90.6749 345.384C90.4197 345.194 90.3686 344.833 90.5582 344.582C90.7478 344.331 91.1087 344.276 91.3602 344.466C96.8795 348.601 99.4387 364.278 100.204 369.984C102.373 364.92 107.805 350.852 104.878 343.285C104.772 343.015 104.885 342.709 105.14 342.575C105.395 342.436 105.713 342.513 105.88 342.746C106.31 343.347 116.343 357.607 113.787 369.798C113.722 370.108 113.419 370.308 113.109 370.243C112.799 370.177 112.599 369.875 112.665 369.565C114.462 361.003 109.551 351.045 106.748 346.265C107.918 356.449 100.747 371.645 100.405 372.359C100.31 372.56 100.106 372.687 99.8871 372.687L99.8907 372.684Z" fill="#F7BD86"/>
<path d="M95.8844 359.309C95.5344 359.309 95.1808 359.29 94.8235 359.247C90.4343 358.733 88.5205 355.986 88.196 353.585C87.7695 350.452 89.7089 347.53 93.132 346.141C98.9831 343.762 108.079 347.231 108.461 347.377C108.757 347.49 108.902 347.821 108.789 348.12C108.676 348.415 108.341 348.561 108.046 348.448C107.955 348.415 98.9904 345.001 93.5622 347.205C90.6385 348.393 88.9798 350.838 89.3334 353.432C89.6032 355.407 91.2181 357.673 94.9584 358.11C102.114 358.944 108.618 349.584 108.684 349.49C108.862 349.227 109.22 349.162 109.482 349.34C109.745 349.519 109.81 349.876 109.632 350.138C109.362 350.528 103.256 359.312 95.8844 359.312V359.309Z" fill="#F7BD86"/>
<path d="M109.821 351.625C109.719 351.625 109.617 351.599 109.526 351.541C109.405 351.468 97.3498 344.163 90.7004 339.682C81.8783 333.736 77.0042 327.392 77.6641 322.714C77.9338 320.794 79.1769 319.34 81.0653 318.728C84.7145 317.548 89.7745 319.595 93.9559 323.942C102.293 332.61 108.348 346.844 108.41 346.99C108.534 347.282 108.396 347.617 108.104 347.741C107.812 347.865 107.477 347.726 107.353 347.435C107.295 347.293 101.32 333.251 93.132 324.736C88.422 319.84 83.8797 319.027 81.4226 319.821C79.9425 320.299 79.0129 321.384 78.8015 322.875C78.5791 324.459 78.8197 330.293 91.342 338.731C97.9659 343.194 110 350.484 110.12 350.557C110.39 350.721 110.477 351.074 110.313 351.344C110.204 351.523 110.014 351.621 109.821 351.621V351.625Z" fill="#F7BD86"/>
<path d="M75.5532 358.583C74.1643 355.436 72.8555 352.459 73.4024 350.535C73.7414 349.705 74.2846 349.034 75.1085 348.546C75.3819 348.386 75.473 348.032 75.309 347.759C75.1486 347.486 74.7949 347.398 74.5215 347.559C70.8323 349.741 71.6379 354.572 72.5675 360.168C73.4935 365.735 74.5434 372.049 71.8275 377.733C71.6926 378.017 71.8129 378.36 72.0973 378.498C72.1775 378.535 72.2613 378.553 72.3452 378.553C72.5602 378.553 72.7644 378.433 72.8628 378.225C75.7355 372.213 74.6054 365.429 73.6977 359.975C73.4352 358.401 73.1909 356.926 73.0488 355.578C73.4643 356.689 73.9747 357.855 74.4997 359.043C76.1584 362.81 77.8754 366.701 76.738 369.455C76.6177 369.747 76.7562 370.082 77.0479 370.206C77.1208 370.235 77.1937 370.25 77.2666 370.25C77.4926 370.25 77.7041 370.115 77.7989 369.896C79.1258 366.69 77.3067 362.569 75.5496 358.583H75.5532Z" fill="#934625"/>
<path d="M372.072 233.67C372.072 233.67 329.16 228.5 287.944 223.446C251.208 217.602 221.038 214.553 215.06 218.448C201.123 227.523 191.597 275.135 175.021 310.003C173.479 313.245 168.543 338.396 164.722 341.121C160.902 343.846 193.916 361.437 195.552 359.593C197.189 357.749 229.452 304.581 231.089 294.97C232.726 285.359 237.228 267.455 237.228 267.455C237.228 267.455 238.967 267.648 240.195 267.455C241.424 267.262 242.959 265.728 242.959 265.728C242.959 265.728 246.028 269.102 247.359 269.51C248.689 269.918 261.886 270.942 266.899 274.009C271.911 277.077 364.733 276.225 367.311 274.862C369.892 273.499 372.072 233.67 372.072 233.67Z" fill="#4278E1"/>
<path d="M370.034 260.409C363.691 259.84 257.074 233.67 242.135 236.482C236.473 237.55 229.551 248.447 229.04 249.879C228.53 251.311 229.244 252.127 229.04 253.151C228.836 254.175 219.183 277.387 217.17 282.087C210.944 296.631 183.57 355.02 183.57 355.02C189.621 358.121 194.918 360.303 195.549 359.593C197.186 357.753 229.448 304.581 231.085 294.97C232.722 285.359 237.224 267.455 237.224 267.455C237.224 267.455 238.963 267.648 240.192 267.455C241.42 267.262 242.955 265.728 242.955 265.728C242.955 265.728 246.025 269.102 247.355 269.51C248.686 269.918 261.883 270.942 266.895 274.009C271.908 277.077 364.73 276.225 367.307 274.862C368.31 274.33 369.254 267.976 370.034 260.412V260.409Z" fill="url(#paint4_linear_894_1105)"/>
<path d="M183.57 355.592C183.49 355.592 183.406 355.574 183.325 355.538C183.037 355.403 182.914 355.061 183.048 354.776C183.322 354.193 210.492 296.231 216.642 281.861C218.92 276.534 228.216 254.127 228.475 253.034C228.537 252.725 228.475 252.4 228.406 252.029C228.289 251.424 228.147 250.67 228.497 249.686C228.956 248.4 235.999 237.054 242.025 235.921C253.031 233.852 311.673 246.986 346.714 254.834C359.305 257.654 368.401 259.691 370.081 259.844C370.398 259.873 370.628 260.15 370.603 260.467C370.573 260.784 370.3 261.017 369.979 260.988C368.222 260.831 359.094 258.787 346.462 255.956C313.802 248.64 253.009 235.025 242.237 237.054C236.904 238.06 230.123 248.549 229.576 250.08C229.328 250.768 229.427 251.278 229.532 251.821C229.616 252.269 229.707 252.736 229.598 253.271C229.368 254.423 219.234 278.724 217.695 282.32C211.538 296.708 184.361 354.689 184.087 355.272C183.989 355.48 183.785 355.603 183.566 355.603L183.57 355.592Z" fill="#3F2628"/>
<path d="M244.187 242.228C244.049 241.944 243.706 241.824 243.422 241.962C243.137 242.101 243.017 242.443 243.156 242.727C246.101 248.823 245.347 259.582 242.755 264.427C242.729 264.478 242.7 264.529 242.671 264.58C243.236 259.221 241.916 248.6 240.516 245.449C240.389 245.161 240.05 245.03 239.758 245.157C239.47 245.285 239.339 245.624 239.466 245.915C241.121 249.635 242.456 263.589 241.1 266.475C240.797 266.686 240.469 266.836 240.115 266.883C239.66 266.945 238.384 266.919 237.622 266.894C236.634 264.409 233.171 255.858 231.942 254.94C231.69 254.75 231.33 254.801 231.14 255.053C230.95 255.304 231.001 255.665 231.253 255.854C231.942 256.375 234.559 262.267 236.692 267.663C236.776 267.874 236.973 268.016 237.199 268.023C237.348 268.031 238.252 268.067 239.084 268.067C239.554 268.067 240.002 268.056 240.272 268.016C240.826 267.94 241.347 267.71 241.843 267.346C241.851 267.342 241.858 267.335 241.865 267.331C242.558 266.817 243.192 266.03 243.764 264.967C246.539 259.782 247.33 248.721 244.187 242.228Z" fill="#3F2628"/>
<path d="M291.455 231.101C291.455 231.101 324.261 240.978 323.171 252.124L357.07 237.288L291.459 231.101H291.455Z" fill="url(#paint5_linear_894_1105)"/>
<path d="M196.916 360.344C196.916 360.344 194.189 366.588 193.234 367.295C192.826 364.705 166.913 358.023 162.816 358.023C158.992 353.454 165.951 349.843 165.951 349.843C165.951 349.843 189.279 353.745 191.732 355.021C195.553 357.003 196.916 360.344 196.916 360.344Z" fill="#3F2628"/>
<path d="M298.152 327.531C289.928 327.531 279.104 326.478 267.067 324.449C249.809 321.534 235.026 317.358 230.283 314.054C219.81 306.76 219.584 297.542 221.239 291.093C221.319 290.787 221.629 290.601 221.939 290.681C222.245 290.762 222.431 291.071 222.351 291.381C220.787 297.476 221.005 306.195 230.94 313.114C235.555 316.331 250.151 320.43 267.256 323.319C285.706 326.434 301.232 327.239 308.789 325.472C311.29 324.886 312.858 324.044 313.452 322.969C313.605 322.692 313.955 322.59 314.232 322.743C314.509 322.896 314.611 323.246 314.458 323.523C313.693 324.915 311.925 325.92 309.052 326.591C306.34 327.225 302.628 327.538 298.152 327.538V327.531Z" fill="#070000"/>
<path d="M167.963 361.943C168.896 361.808 166.786 355.6 165.601 354.376C164.416 353.155 156.378 357.593 156.378 357.593C156.378 357.593 163.771 362.555 167.967 361.943H167.963Z" fill="#070000"/>
<path d="M145.35 329.119C249.532 293.341 268.532 254.681 287.222 248.546C296.938 245.358 372.072 233.666 372.072 233.666L432.912 249.227C432.912 249.227 376.435 289.855 358.43 292.583C340.425 295.309 308.844 295.99 308.844 295.99C308.844 295.99 298.174 301.306 295.633 301.921C293.092 302.534 283.679 302.126 283.679 302.126C283.679 302.126 283.373 305.295 281.532 306.523C279.691 307.751 276.417 308.567 276.417 308.567C276.417 308.567 249.579 331.029 241.121 333.754C232.664 336.479 166.64 357.545 162.75 359.589C154.362 352.43 145.357 329.119 145.357 329.119H145.35Z" fill="#4278E1"/>
<path d="M283.675 302.125C283.675 302.125 293.088 302.533 295.629 301.921C298.17 301.309 308.844 295.99 308.844 295.99C308.844 295.99 340.425 295.309 358.43 292.58C368.973 290.984 392.705 276.392 410.568 264.569L407.47 260.405C402.967 261.429 326.747 270.322 303.726 279.97C293.11 284.418 258.707 320.39 242.339 327.582C226.335 334.61 194.226 347.952 172.334 356.121C191.863 349.493 234.432 335.907 241.11 333.754C249.568 331.028 276.406 308.567 276.406 308.567C276.406 308.567 279.68 307.747 281.521 306.523C283.362 305.295 283.668 302.125 283.668 302.125H283.675Z" fill="url(#paint6_linear_894_1105)"/>
<path d="M276.457 254.929C273.173 255.224 266.76 259.997 265.123 261.225C263.487 262.453 245.259 279.974 245.259 279.974L265.397 273.496L276.457 254.929Z" fill="#4278E1"/>
<path d="M213.718 342.56C211.502 343.274 202.508 349.027 200.733 349.162C198.957 349.297 184.55 352.047 183.57 352.372C189.002 347.526 213.718 342.56 213.718 342.56Z" fill="#3F2628"/>
<path d="M133.79 332.905C134.301 330.347 142.488 327.644 143.815 327.589C145.077 327.535 146.816 328.617 146.816 328.617C146.816 328.617 159.95 362.73 167.96 361.946L153.024 365.116C148.296 363.378 136.656 333.827 133.79 332.909V332.905Z" fill="#3F2628"/>
<path d="M162.743 360.165C162.506 360.165 162.284 360.016 162.2 359.779C162.094 359.48 162.254 359.152 162.553 359.05C183.081 351.935 222.624 335.619 242.109 327.061C251.004 323.155 265.488 310.484 278.265 299.306C289.191 289.745 298.626 281.493 303.507 279.445C322.004 271.692 374.649 264.435 397.131 261.334C402.552 260.587 406.471 260.044 407.346 259.848C407.656 259.778 407.962 259.971 408.031 260.281C408.1 260.591 407.907 260.897 407.597 260.966C406.675 261.174 402.938 261.691 397.284 262.471C374.85 265.564 322.307 272.807 303.948 280.502C299.242 282.477 289.417 291.068 279.02 300.165C266.181 311.398 251.628 324.132 242.572 328.107C223.069 336.672 183.486 353.006 162.932 360.132C162.87 360.154 162.808 360.165 162.743 360.165Z" fill="#3F2628"/>
<path d="M278.43 253.625C262.298 267.302 270.471 299.586 248.85 314.018C258.966 303.765 264.682 263.137 278.43 253.625Z" fill="url(#paint7_linear_894_1105)"/>
<path d="M147.479 330.814C148.762 329.666 172.225 318.35 177.682 325.713C183.139 333.076 149.881 332.734 147.479 332.905C145.077 333.076 147.479 330.814 147.479 330.814Z" fill="url(#paint8_linear_894_1105)"/>
<path d="M290.142 302.869C287.037 302.869 283.876 302.712 283.646 302.701C283.329 302.686 283.085 302.417 283.103 302.1C283.118 301.783 283.384 301.542 283.705 301.557C286.377 301.692 293.697 301.921 295.461 301.378C298.567 300.42 306.31 296.34 314.505 292.019C325.635 286.153 337.144 280.086 341.034 279.613C341.351 279.573 341.635 279.799 341.672 280.112C341.708 280.425 341.486 280.713 341.172 280.75C337.49 281.201 325.562 287.486 315.038 293.031C306.792 297.378 299.005 301.48 295.797 302.471C294.801 302.781 292.487 302.869 290.139 302.869H290.142Z" fill="#3F2628"/>
<path d="M401.815 261.629C399.788 264.041 343.013 294.817 321.22 295.644C333.396 295.174 352.284 293.513 358.427 292.583C367.719 291.177 387.255 279.675 403.988 268.872L401.812 261.629H401.815Z" fill="url(#paint9_linear_894_1105)"/>
<path d="M359.101 246.239L393.661 239.634L390.339 238.34L376.581 234.821L359.101 246.239Z" fill="url(#paint10_linear_894_1105)"/>
<path d="M86.4204 415.016C86.4204 415.016 146.874 379.996 183.949 412.71C152.918 449.188 86.4204 415.016 86.4204 415.016Z" fill="#E7DCFF"/>
<path d="M108.476 408.309C108.432 408.309 108.392 408.305 108.348 408.294C99.034 406.177 93.1283 402.079 90.7915 396.114C85.7753 383.304 98.2721 365.091 104.987 355.308C106.788 352.685 108.206 350.616 108.629 349.595C108.749 349.304 109.085 349.162 109.376 349.282C109.668 349.402 109.81 349.737 109.69 350.029C109.223 351.162 107.841 353.173 105.935 355.957C99.3402 365.564 87.0658 383.45 91.8633 395.695C94.0506 401.284 99.6865 405.146 108.607 407.172C108.917 407.241 109.11 407.551 109.041 407.857C108.979 408.123 108.746 408.305 108.483 408.305L108.476 408.309Z" fill="#F7BD86"/>
<path d="M91.9216 372.684C91.6336 372.684 91.3857 372.469 91.3529 372.177C90.1353 361.724 85.6987 357.286 80.5622 352.153C79.9206 351.512 79.2644 350.856 78.6119 350.182C81.2658 359.516 80.5148 370.767 80.4784 371.284C80.4565 371.601 80.1831 371.835 79.8659 371.816C79.5488 371.795 79.3118 371.521 79.3337 371.204C79.3446 371.069 80.2451 357.563 76.7344 348.116C76.6397 347.857 76.7381 347.57 76.975 347.427C77.212 347.285 77.5146 347.329 77.6968 347.533C78.9144 348.885 80.1649 350.135 81.3752 351.344C86.4424 356.412 91.229 361.196 92.494 372.046C92.5304 372.359 92.3044 372.647 91.9909 372.684C91.969 372.684 91.9471 372.687 91.9253 372.687L91.9216 372.684Z" fill="#F7BD86"/>
<path d="M159.457 371.957C159.508 371.019 158.488 370.2 157.177 370.128C155.866 370.056 154.762 370.758 154.71 371.696C154.658 372.634 155.679 373.453 156.99 373.526C158.3 373.598 159.405 372.895 159.457 371.957Z" fill="#5C240F"/>
<path d="M158.702 380.32C158.9 379.402 158.02 378.433 156.737 378.157C155.454 377.881 154.253 378.402 154.055 379.321C153.857 380.239 154.737 381.208 156.02 381.484C157.303 381.76 158.504 381.239 158.702 380.32Z" fill="#5C240F"/>
<path d="M146.22 381.817C146.418 380.898 145.538 379.93 144.255 379.654C142.972 379.378 141.771 379.898 141.573 380.817C141.375 381.736 142.255 382.704 143.538 382.98C144.822 383.257 146.022 382.736 146.22 381.817Z" fill="#5C240F"/>
<path d="M175.501 381.738C175.677 379.784 173.606 378 170.875 377.754C168.144 377.508 165.787 378.893 165.611 380.847C165.434 382.801 167.506 384.584 170.237 384.83C172.968 385.076 175.325 383.692 175.501 381.738Z" fill="white"/>
<path d="M143.892 381.865C143.666 381.865 143.451 381.73 143.36 381.508C143.236 381.206 140.243 374.112 131.938 374.283C131.935 374.283 131.931 374.283 131.927 374.283C131.614 374.283 131.359 374.032 131.355 373.722C131.348 373.405 131.599 373.143 131.916 373.139C132.015 373.139 132.113 373.139 132.208 373.139C141.092 373.139 144.391 381.002 144.424 381.082C144.544 381.377 144.402 381.708 144.107 381.829C144.038 381.858 143.965 381.872 143.892 381.872V381.865Z" fill="#F7BD86"/>
<path d="M156.374 380.371C156.247 380.371 156.119 380.327 156.01 380.24C155.933 380.178 148.38 374.064 142.569 374.064C142.478 374.064 142.39 374.064 142.299 374.068C141.967 374.068 141.716 373.831 141.705 373.514C141.694 373.197 141.942 372.931 142.259 372.92C142.361 372.92 142.463 372.917 142.565 372.917C148.784 372.917 156.407 379.081 156.731 379.351C156.976 379.551 157.012 379.912 156.812 380.156C156.699 380.295 156.535 380.368 156.367 380.368L156.374 380.371Z" fill="#F7BD86"/>
<path d="M143.892 372.684C143.681 372.684 143.476 372.563 143.374 372.359C143.236 372.075 143.356 371.733 143.64 371.594C146.695 370.111 156.717 371.197 157.14 371.245C157.453 371.281 157.683 371.561 157.647 371.878C157.61 372.192 157.326 372.421 157.012 372.385C154.209 372.075 146.429 371.514 144.14 372.629C144.06 372.669 143.972 372.687 143.888 372.687L143.892 372.684Z" fill="#F7BD86"/>
<path d="M313.955 323.815C313.849 323.815 313.74 323.785 313.645 323.724C313.379 323.552 313.302 323.199 313.474 322.929C314.301 321.643 312.541 320.029 310.918 318.903C301.914 312.651 273.391 304.628 245.988 300.635C231.045 298.46 217.659 297.626 207.284 298.231C195.305 298.927 187.609 301.444 184.412 305.711C184.222 305.966 183.861 306.017 183.61 305.827C183.355 305.638 183.304 305.277 183.493 305.026C192.425 293.104 230.287 297.192 246.152 299.502C274.168 303.583 302.293 311.518 311.574 317.963C314.538 320.022 315.504 321.902 314.44 323.552C314.33 323.724 314.145 323.815 313.955 323.815Z" fill="#070000"/>
<path d="M191.138 269.141C191.028 269.141 190.919 269.112 190.821 269.047C169.148 254.699 163.716 239.346 162.973 228.991C162.079 216.553 167.522 204.114 177.905 194.863C201.13 174.169 247.18 161.417 280.803 152.108C302.483 146.107 321.202 140.923 320.656 136.748C320.615 136.434 320.834 136.146 321.151 136.103C321.465 136.059 321.753 136.281 321.797 136.598C322.445 141.531 308.294 145.688 281.113 153.216C247.596 162.495 201.695 175.204 178.67 195.72C168.558 204.73 163.253 216.829 164.121 228.911C164.846 239.007 170.176 254.003 191.459 268.092C191.721 268.267 191.794 268.624 191.619 268.886C191.51 269.054 191.327 269.145 191.141 269.145L191.138 269.141Z" fill="#070000"/>
<path d="M379.432 93.1324C379.669 91.7589 379.334 90.3525 378.499 89.2304C376.691 86.7966 373.114 82.9418 368.805 83.2807C362.55 83.7725 360.753 94.8084 367.785 98.572C372.003 100.827 375.112 99.8181 376.928 98.6522C378.083 97.9089 378.831 96.6665 379.06 95.3112L379.432 93.1324Z" fill="#E19881"/>
<path d="M365.419 145.707C365.419 145.707 333.732 215.809 346.094 236.923C361.23 239.659 387.758 237.797 397.528 246.786C412.993 232.394 399.701 149.911 399.701 149.911C399.701 149.911 376.082 153.864 365.419 145.707Z" fill="url(#paint11_linear_894_1105)"/>
<path d="M369.538 155.161C374.846 175.626 407.484 182.316 411.082 208.053C406.249 194.488 372.13 171.673 369.538 155.161Z" fill="url(#paint12_linear_894_1105)"/>
<path d="M370.752 155.092C364.708 169.608 352.915 194.711 360.308 218.444L337.968 224.43C337.968 224.43 365.885 153.118 370.752 155.089V155.092Z" fill="url(#paint13_linear_894_1105)"/>
<path d="M378.466 130.142C378.466 130.142 360.818 132.368 362.881 143.127C364.172 149.864 372.072 159.14 397.849 155.245C412.559 153.023 419.048 135.476 419.048 135.476L378.466 130.142Z" fill="#0063BF"/>
<path d="M366.319 132.066C364.803 131.92 330.6 140.202 325.963 147.27C322.737 152.188 312.424 195.924 306.445 222.087L357.063 235.491C359.761 232.62 341.008 201.651 370.748 155.096C365.86 145.63 366.316 132.069 366.316 132.069L366.319 132.066Z" fill="#934625"/>
<path d="M334.388 141.721C334.388 141.721 305.964 152.837 288.178 166.635C272.418 178.858 316.204 218.447 316.204 218.447L334.392 141.725L334.388 141.721Z" fill="#934625"/>
<path d="M345.336 212.49C335.788 180.115 343.221 158.666 359.039 136.671L362.083 132.889C352.459 135.137 329.685 141.593 325.963 147.27C322.81 152.076 312.898 193.92 306.868 220.244L345.336 212.49Z" fill="url(#paint14_linear_894_1105)"/>
<path d="M359.725 136.58C359.673 136.267 359.378 136.055 359.065 136.106C358.919 136.132 352.853 137.156 343.75 139.801C346.174 137.961 348.179 137.294 348.416 137.221C348.719 137.127 348.886 136.806 348.792 136.504C348.697 136.201 348.376 136.034 348.073 136.128C347.76 136.227 344.475 137.32 341.081 140.602C328.289 144.526 310.645 151.401 294.845 162.685C294.587 162.871 294.528 163.228 294.71 163.487C294.823 163.643 294.998 163.727 295.177 163.727C295.294 163.727 295.41 163.691 295.509 163.621C310.423 152.972 326.991 146.279 339.499 142.3C335.489 147.069 331.96 155.223 333.82 168.813C333.86 169.101 334.104 169.309 334.388 169.309C334.414 169.309 334.439 169.309 334.465 169.305C334.778 169.261 334.997 168.974 334.957 168.66C332.952 153.985 337.363 145.907 341.668 141.626C352.014 138.471 359.097 137.272 359.254 137.247C359.568 137.196 359.779 136.901 359.728 136.587L359.725 136.58Z" fill="#FF6D01"/>
<path d="M268.78 98.5906C253.086 141.127 239.499 163.396 238.136 171.502C236.769 179.613 238.785 195.982 238.785 195.982C238.785 195.982 258.678 212.877 269.834 197.25C277.318 186.765 286.344 122.597 286.209 101.87L268.784 98.5906H268.78Z" fill="#FFCAAC"/>
<path d="M264.413 111.994C264.413 111.994 260.796 109.459 260.672 104.427C260.548 99.3955 257.657 76.5477 258.339 75.1159C259.021 73.684 265.433 71.5016 265.433 71.5016C265.433 71.5016 265.776 67.002 266.866 66.0475C267.956 65.0929 273.483 65.6394 273.483 65.6394C273.483 65.6394 274.642 61.1398 277.234 60.3893C279.826 59.6387 281.233 61.26 281.233 61.26L293.748 80.4826L297.765 84.8838C297.014 87.6783 296.063 107.524 284.638 112.727C276.22 116.563 264.416 111.991 264.416 111.991L264.413 111.994Z" fill="#FFCAAC"/>
<path d="M256.491 129.279C260.913 136.012 273.497 146.395 283.238 137.017C283.238 137.017 279.789 147.142 269.108 145.528C256.786 143.666 256.494 129.275 256.494 129.275L256.491 129.279Z" fill="#A86854"/>
<path d="M284.16 58.0941C284.16 58.0941 284.299 51.1425 287.193 50.6834C290.088 50.2243 290.525 53.8823 290.525 53.8823L284.16 58.0941Z" fill="#F7BD86"/>
<path d="M282.498 106.256C282.345 106.256 282.192 106.194 282.079 106.074C277.212 100.849 280.329 95.1038 280.362 95.0455C280.515 94.7686 280.865 94.6703 281.142 94.8233C281.419 94.9763 281.517 95.3261 281.364 95.603C281.251 95.807 278.634 100.689 282.921 105.291C283.136 105.524 283.125 105.885 282.892 106.1C282.782 106.202 282.64 106.253 282.502 106.253L282.498 106.256Z" fill="#A86854"/>
<path d="M275.163 99.7125L306.996 63.5772C308.41 61.9705 308.614 59.6278 307.492 57.8024L300.817 46.9269L301.028 46.8503L300.069 45.75C300.051 45.7282 300.033 45.7063 300.015 45.6845L299.872 45.5205V45.5278C298.691 44.3 296.657 44.2672 295.45 45.5934L262.346 82.0602C260.778 83.7871 260.654 86.3849 262.05 88.254L270.464 99.5157C271.124 100.401 272.159 100.805 273.158 100.718L275.349 100.441L274.733 100.102C274.886 99.9857 275.032 99.8546 275.163 99.7052V99.7125Z" fill="#070000"/>
<path d="M264.529 82.3516L296.712 46.9013C298.031 45.4476 300.376 45.6662 301.404 47.3385L308.418 58.7679C309.508 60.5422 309.311 62.8194 307.933 64.3787L276.99 99.5048C275.754 100.907 273.537 100.82 272.418 99.319L264.241 88.3705C262.885 86.5525 263.005 84.0276 264.529 82.348V82.3516Z" fill="#8463BD"/>
<path d="M272.418 99.3228C273.537 100.82 275.754 100.911 276.99 99.5086L296.664 77.1745L276.924 68.7036L264.533 82.3518C263.009 84.0314 262.885 86.5563 264.245 88.3743L272.422 99.3228H272.418Z" fill="url(#paint15_linear_894_1105)"/>
<path d="M258.339 75.1157C258.325 75.1449 258.314 75.185 258.303 75.2287C267.147 82.8252 271.394 77.9248 271.394 77.0395C271.394 74.7915 265.43 71.5051 265.43 71.5051C265.43 71.5051 259.017 73.6875 258.336 75.1194L258.339 75.1157Z" fill="#F7BD86"/>
<path d="M266.866 66.0511C266.742 66.1604 266.625 66.317 266.52 66.5065C268.638 75.462 272.411 74.4928 274.095 73.378C276.414 71.8441 273.483 65.6394 273.483 65.6394C273.483 65.6394 267.956 65.0929 266.866 66.0474V66.0511Z" fill="#F7BD86"/>
<path d="M279.381 64.9582C280.971 64.2623 282.246 62.4333 281.189 61.3111C281.124 61.2164 281.058 61.1253 280.992 61.0342C280.489 60.6189 279.206 59.821 277.234 60.3893C274.642 61.1399 273.483 65.6395 273.483 65.6395C273.483 65.6395 276.971 66.0075 279.381 64.9582Z" fill="#F7BD86"/>
<path d="M267.154 78.8394C264.518 79.058 261.806 77.1015 261.777 77.0796C261.522 76.8938 261.161 76.9484 260.975 77.2035C260.789 77.4585 260.844 77.8156 261.099 78.005C261.164 78.0524 262.018 78.6681 263.257 79.2037C261.996 79.5098 260.745 79.517 260.727 79.517C260.41 79.517 260.155 79.7757 260.155 80.0891C260.155 80.406 260.41 80.6611 260.727 80.6611C260.833 80.6611 263.268 80.6465 265.029 79.7903C265.576 79.9178 266.152 79.998 266.738 79.998C266.91 79.998 267.077 79.9907 267.249 79.9761C267.566 79.9506 267.799 79.6737 267.774 79.3567C267.748 79.0398 267.468 78.8066 267.154 78.8321V78.8394Z" fill="#A86854"/>
<path d="M271.751 74.6752C269.37 74.6752 267.606 71.3306 267.529 71.1812C267.384 70.9007 267.493 70.5545 267.774 70.4088C268.054 70.2631 268.401 70.3724 268.547 70.6529C268.999 71.5237 270.501 73.7316 271.955 73.513C272.269 73.4656 272.56 73.6842 272.608 73.9939C272.655 74.3072 272.44 74.5987 272.126 74.6461C271.999 74.6643 271.875 74.6752 271.751 74.6752Z" fill="#A86854"/>
<path d="M278.732 97.5264L290.624 88.1082C290.624 88.1082 293.996 83.022 292.17 82.2715L278.732 97.5264Z" fill="#A86854"/>
<path d="M290.967 107.218C290.967 107.218 299.351 96.4371 299.147 93.6317C298.943 90.8263 298.793 84.2645 299.625 81.5538C300.649 78.2128 302.829 74.3945 302.217 72.8971C301.87 72.0482 300.97 72.285 300.97 72.285L292.17 82.2752C292.17 82.2752 290.894 90.2105 288.098 91.9849C287.485 97.9163 290.967 107.222 290.967 107.222V107.218Z" fill="#FFCAAC"/>
<path d="M303.853 56.5574C304.288 56.3671 304.412 55.6898 304.13 55.0445C303.848 54.3992 303.266 54.0304 302.831 54.2207C302.395 54.4109 302.271 55.0883 302.554 55.7335C302.836 56.3788 303.418 56.7477 303.853 56.5574Z" fill="#3F2628"/>
<path d="M279.243 116.33C278.976 116.33 278.739 116.144 278.681 115.874C278.616 115.565 278.816 115.259 279.126 115.197C279.997 115.015 283.741 112.774 285.899 111.404C286.165 111.233 286.523 111.313 286.69 111.579C286.862 111.845 286.781 112.202 286.515 112.369C285.925 112.745 280.726 116.031 279.363 116.319C279.323 116.326 279.283 116.33 279.243 116.33Z" fill="#A86854"/>
<path d="M252.025 136.012C252.025 136.012 229.295 165.221 229.091 168.259C228.774 172.996 234.016 176.501 234.016 176.501C234.016 176.501 230.181 186.221 231.847 188.167C233.513 190.113 254.701 220.331 265.04 220.881C277.285 221.533 297.962 210.184 298.928 205.732C299.898 201.28 292.501 155.486 292.501 155.486C292.501 155.486 289.486 147.233 284.649 145.838C274.245 152.76 252.025 136.012 252.025 136.012Z" fill="#934625"/>
<path d="M283.234 137.021C283.234 137.021 287.791 150.312 285.571 153.044C283.351 155.777 271.201 157.89 262.677 152.687C256.75 149.07 252.025 136.015 252.025 136.015L256.487 129.282C256.487 129.282 261.937 139.389 269.031 141.52C279.932 144.796 283.234 137.021 283.234 137.021Z" fill="#FF6D01"/>
<path d="M282.604 155.329C282.418 155.329 282.239 155.242 282.126 155.078C281.947 154.815 282.017 154.458 282.279 154.28C283.916 153.176 282.801 145.073 281.485 139.67C281.408 139.364 281.598 139.05 281.907 138.977C282.214 138.905 282.527 139.09 282.6 139.4C283.161 141.703 285.812 153.281 282.921 155.231C282.822 155.296 282.709 155.329 282.6 155.329H282.604Z" fill="#934625"/>
<path d="M278.014 156.295C277.748 156.295 277.507 156.109 277.453 155.836C277.391 155.526 277.591 155.223 277.901 155.158C277.912 155.158 278.951 154.87 278.601 148.567C278.415 145.197 277.923 141.841 277.916 141.808C277.868 141.495 278.087 141.204 278.4 141.156C278.714 141.113 279.006 141.328 279.053 141.641C279.057 141.674 279.556 145.08 279.749 148.505C280.114 155.038 279.075 156.094 278.134 156.284C278.094 156.291 278.058 156.295 278.021 156.295H278.014Z" fill="#934625"/>
<path d="M231.548 188.112C231.341 188.112 231.14 187.999 231.038 187.799C229.693 185.179 233.313 176.712 237.815 166.747C239.284 163.494 240.808 160.127 240.804 159.533C240.804 159.216 241.059 158.958 241.377 158.958C241.69 158.958 241.949 159.209 241.949 159.526C241.956 160.328 240.95 162.59 238.858 167.221C235.865 173.848 230.856 184.935 232.055 187.278C232.201 187.558 232.088 187.905 231.807 188.05C231.723 188.094 231.632 188.112 231.545 188.112H231.548Z" fill="#FF6D01"/>
<path d="M269.848 154.852C269.596 154.662 269.236 154.713 269.046 154.968C268.415 155.81 267.511 156.67 266.465 157.665C263.202 160.761 258.736 165.002 257.814 173.462C257.661 174.869 257.461 177.878 257.231 181.361C256.804 187.817 256.09 198.573 255.481 199.8C255.299 199.957 255.226 200.219 255.324 200.453C255.415 200.675 255.631 200.81 255.857 200.81C255.929 200.81 256.002 200.795 256.075 200.766C256.892 200.431 257.293 197.855 258.379 181.438C258.609 177.966 258.806 174.971 258.959 173.586C259.79 165.939 263.713 161.884 266.789 158.943C264.624 164.277 260.639 175.226 260.26 176.672C260.18 176.978 260.362 177.292 260.669 177.372C260.716 177.386 260.767 177.39 260.814 177.39C261.07 177.39 261.303 177.219 261.369 176.964C262.028 174.453 268.346 157.701 268.948 156.845C268.948 156.845 268.948 156.845 268.951 156.841C269.33 156.444 269.673 156.058 269.968 155.664C270.158 155.409 270.107 155.052 269.852 154.863L269.848 154.852Z" fill="#FF6D01"/>
<path d="M395.472 155.413C397.24 169.608 381.71 234.034 392.625 244.764C400.849 252.848 410.813 254.932 410.813 254.932L450.374 263.895C450.374 263.895 461.934 259.753 463.195 249.894C467.22 218.447 445.733 136.671 445.733 136.671C445.733 136.671 435.923 133.789 426.776 132.066L395.469 155.413H395.472Z" fill="url(#paint16_linear_894_1105)"/>
<path d="M421.567 116.749C417.633 114.494 412.464 113.215 408.381 113C404.24 112.785 406.872 133.851 406.872 133.851C406.872 133.851 424.097 121.205 421.563 116.749H421.567Z" fill="#934625"/>
<path d="M360.198 121.125C360.8 119.897 370.537 115.54 375.51 115.609C380.478 115.678 380.755 133.104 380.755 133.104L365.699 138.11C365.699 138.11 359.455 125.162 360.202 121.125H360.198Z" fill="#934625"/>
<path d="M370.832 50.9893C368.259 51.6633 356.939 61.6681 368.736 71.079C380.537 80.4899 379.257 54.1627 379.257 54.1627L370.829 50.9893H370.832Z" fill="#7A4608"/>
<path d="M412.464 98.0549L415.814 135.163C412.056 143.896 382.301 155.191 376.895 143.965C376.512 143.171 376.435 142.26 376.658 141.408C379.771 129.483 378.787 112.29 378.787 112.29L412.464 98.0513V98.0549Z" fill="#FFCAAC"/>
<path d="M412.464 98.0549L378.787 112.293C378.787 112.293 379.48 124.47 377.846 135.436C408.188 136.118 412.464 98.0549 412.464 98.0549Z" fill="#A86854"/>
<path d="M385.145 123.409C399.129 124.203 413.908 113.484 413.908 82.9892C413.908 52.494 396.982 47.732 388.878 47.9689C380.774 48.2057 364.562 53.2117 366.946 92.2799C367.996 109.506 376.392 122.914 385.141 123.409H385.145Z" fill="#FFCAAC"/>
<path d="M404.725 58.4875C401.812 56.4071 387.161 53.8895 378.193 51.4812C375.889 53.1317 373.661 55.5254 371.791 58.972C372.469 59.453 378.441 66.8236 383.639 66.3171C393.413 65.3626 401.079 57.8608 404.728 58.4875H404.725Z" fill="#A86854"/>
<path d="M382.25 96.2696C381.051 96.2696 379.702 95.9052 378.991 94.4916C378.557 93.6281 378.579 92.648 379.049 91.6607C379.742 90.2033 381.346 88.9391 383.129 88.4144C383.325 79.7358 381.299 72.5219 381.277 72.449C381.189 72.143 381.368 71.826 381.67 71.7422C381.977 71.6548 382.294 71.8333 382.381 72.1357C382.403 72.2122 384.543 79.8342 384.262 88.8808C384.255 89.1431 384.069 89.3653 383.814 89.4236C382.217 89.7807 380.682 90.9029 380.085 92.1562C379.866 92.6153 379.676 93.3039 380.015 93.9815C380.989 95.9235 384.171 94.8086 384.204 94.7976C384.503 94.692 384.831 94.845 384.937 95.1438C385.043 95.4425 384.889 95.7704 384.59 95.8761C384.507 95.9052 383.453 96.2732 382.246 96.2769L382.25 96.2696Z" fill="#A86854"/>
<path d="M403.992 78.4859C403.416 79.3385 389.869 78.9632 389.913 75.4984C389.953 72.0335 394.696 72.7512 397.025 73.3305C401.579 74.4563 404.688 77.4621 403.992 78.4859Z" fill="#9B590D"/>
<path d="M368.353 81.0581C371.893 79.1234 375.911 76.1759 375.006 74.2996C373.501 71.1772 369.513 73.8405 367.646 75.3489C364.981 77.8009 366.563 80.548 368.357 81.0581H368.353Z" fill="#9B590D"/>
<path d="M393.737 87.7875C395.075 87.701 396.081 86.4214 395.985 84.9295C395.888 83.4375 394.725 82.2982 393.387 82.3847C392.049 82.4712 391.042 83.7507 391.139 85.2427C391.235 86.7346 392.398 87.874 393.737 87.7875Z" fill="#0058C0"/>
<path d="M375.357 87.6134C376.348 87.5494 377.08 86.3954 376.992 85.036C376.904 83.6766 376.029 82.6265 375.039 82.6905C374.048 82.7545 373.317 83.9084 373.405 85.2678C373.493 86.6273 374.367 87.6774 375.357 87.6134Z" fill="#0058C0"/>
<path d="M382.873 104.97C381.295 104.97 380.194 104.781 380.074 104.759C379.76 104.704 379.556 104.405 379.611 104.092C379.665 103.782 379.968 103.575 380.278 103.629C380.354 103.644 388.028 104.956 392.388 100.23C392.603 99.997 392.968 99.9824 393.198 100.197C393.431 100.412 393.445 100.777 393.23 101.006C390.146 104.347 385.724 104.967 382.87 104.967L382.873 104.97Z" fill="#734A19"/>
<path d="M415.187 86.5307C416.131 84.5013 426.302 64.4881 422.65 55.9116C418.993 47.335 408.48 49.4008 408.48 49.4008C408.48 49.4008 409.296 41.378 406.442 39.2357C401.95 35.8619 395.476 38.4415 395.476 38.4415C395.476 38.4415 400.314 29.3184 394.353 27.0121C388.17 24.6184 364.413 36.6453 366.713 47.9617C368.663 57.562 380.923 63.8688 388.958 62.8996C395.99 62.0507 401.75 56.9026 405.804 58.8336C412.464 66.0767 409.001 85.6053 407.59 91.2088C412.001 92.9941 415.187 86.5307 415.187 86.5307Z" fill="#9B590D"/>
<path d="M408.789 92.9029C408.899 91.5111 409.573 90.2323 410.656 89.3506C413.007 87.4378 417.426 84.5814 421.52 85.9731C427.462 87.9916 426.481 99.1294 418.738 101.042C414.094 102.19 411.327 100.448 409.858 98.8671C408.921 97.8615 408.505 96.4771 408.615 95.1071L408.789 92.9029Z" fill="#FFCAAC"/>
<path d="M412.84 97.0821C412.774 97.0821 412.712 97.0712 412.646 97.0493C412.347 96.9437 412.191 96.6158 412.3 96.317C413.674 92.4732 415.873 90.9466 417.477 90.3418C419.314 89.6496 421.14 89.8864 421.848 90.2799C422.125 90.4329 422.227 90.7827 422.074 91.0596C421.921 91.3365 421.571 91.4349 421.293 91.2855C420.962 91.1033 419.536 90.7936 417.881 91.4166C415.909 92.1635 414.352 93.9925 413.379 96.7069C413.295 96.94 413.073 97.0858 412.84 97.0858V97.0821Z" fill="#A86854"/>
<path d="M411.111 53.1136C410.878 53.1136 410.656 52.9678 410.572 52.7347C410.463 52.4359 410.616 52.108 410.915 51.9987C419.398 48.9091 421.545 45.9069 421.494 44.752C421.479 44.3949 421.242 44.1508 420.79 44.0306C418.927 43.5351 414.706 45.3495 411.144 50.9421C410.973 51.2081 410.619 51.2882 410.353 51.117C410.087 50.9458 410.007 50.5923 410.178 50.3264C414.298 43.8557 418.957 42.3546 421.089 42.923C422.022 43.1744 422.602 43.8375 422.642 44.701C422.73 46.723 419.802 49.9875 411.312 53.0771C411.246 53.099 411.181 53.1136 411.115 53.1136H411.111Z" fill="#5C240F"/>
<path d="M408.596 50.5705C408.345 50.5705 408.115 50.4066 408.046 50.1552C405.279 40.4091 407.834 35.1371 410.864 33.585C412.537 32.7251 414.323 33.053 415.41 34.4157C417.345 36.8495 416.984 42.3182 410.178 50.3701C409.974 50.6106 409.613 50.6434 409.369 50.4393C409.252 50.341 409.187 50.2098 409.168 50.0714C409.143 50.2936 408.986 50.4903 408.757 50.5523C408.706 50.5669 408.651 50.5741 408.6 50.5741L408.596 50.5705ZM412.723 34.2554C412.293 34.2554 411.837 34.3683 411.385 34.6015C409.256 35.6945 406.391 40.1322 409.15 49.8418C409.158 49.871 409.165 49.9001 409.168 49.9293C409.183 49.8236 409.223 49.7179 409.3 49.6305C415.26 42.5805 416.212 37.2684 414.509 35.1298C414.053 34.5541 413.419 34.259 412.727 34.259L412.723 34.2554Z" fill="#5C240F"/>
<path d="M405.804 59.4055C405.72 59.4055 405.632 59.3873 405.552 59.3472C405.268 59.2088 405.151 58.8626 405.29 58.5785C405.319 58.5202 408.119 52.8182 408.636 49.6048C408.687 49.2914 408.979 49.0801 409.292 49.1311C409.606 49.1821 409.817 49.4772 409.766 49.7869C409.223 53.168 406.438 58.8444 406.318 59.0849C406.219 59.2889 406.015 59.4055 405.804 59.4055Z" fill="#F7BD86"/>
<path d="M395.472 155.413C395.472 155.413 397.937 134.092 401.87 131.472C405.804 128.852 422.672 119.897 421.567 116.753C424.097 117.871 422.737 122.976 423.441 126.907C423.878 129.352 426.78 129.607 426.776 132.07C426.776 135.013 415.811 154.783 395.469 155.416L395.472 155.413Z" fill="#FF6D01"/>
<path d="M360.198 121.125C359.958 124.958 365.911 124.382 367.169 130.288C370.085 143.991 373.585 148.683 370.748 155.092C369.013 156.659 360.271 148.228 359.134 139.455C358.346 133.37 362.557 133.775 362.612 132.139C362.67 130.503 358.19 124.309 360.195 121.125H360.198Z" fill="#FF6D01"/>
<path d="M457.807 260.751C459.655 258.696 462.783 253.111 463.195 249.894C463.968 243.864 465.371 216.655 465.222 216.702C431.001 227.221 413.605 252.127 413.605 252.127L457.803 260.755L457.807 260.751Z" fill="#5C240F"/>
<path d="M462.575 222.554C461.172 209.419 458.62 194.703 455.919 181.212L434.235 177.63C436.681 189.967 450.093 212.738 462.575 222.554Z" fill="#5C240F"/>
<path d="M527.316 204.533C507.328 165.724 461.558 141.386 445.737 136.675C445.737 136.675 428.045 168.07 435.825 181.609C446.01 199.334 478.477 209.08 478.477 209.08L527.32 204.537L527.316 204.533Z" fill="url(#paint17_linear_894_1105)"/>
<path d="M398.968 249.781L399.552 252.775C399.552 252.775 422.409 257.953 448.372 268.566C448.916 268.457 449.955 260.798 448.916 259.581C447.877 258.364 403.974 249.125 398.965 249.781H398.968Z" fill="#FF6D01"/>
<path d="M399.169 155.653H399.161C398.844 155.653 398.589 155.391 398.593 155.074C398.68 147.197 404.025 130.219 404.251 129.501C404.345 129.199 404.666 129.031 404.972 129.126C405.275 129.221 405.443 129.545 405.348 129.847C405.293 130.022 399.829 147.383 399.745 155.089C399.745 155.402 399.486 155.657 399.172 155.657L399.169 155.653Z" fill="#934625"/>
<path d="M402.928 154.848C402.621 154.848 402.37 154.608 402.355 154.301C402.104 148.651 408.268 127.847 408.531 126.965C408.622 126.663 408.939 126.488 409.245 126.579C409.548 126.67 409.723 126.987 409.632 127.293C409.57 127.508 403.259 148.793 403.503 154.254C403.518 154.571 403.274 154.837 402.957 154.852C402.949 154.852 402.938 154.852 402.931 154.852L402.928 154.848Z" fill="#934625"/>
<path d="M527.826 204.271C516.285 181.864 491.44 164.172 477.66 155.617C465.977 148.366 453.972 142.515 443.772 138.905C444.694 137.72 445.372 137.247 445.74 137.247C446.057 137.247 446.313 136.988 446.313 136.671C446.313 136.354 446.054 136.099 445.74 136.099C444.858 136.099 443.819 136.912 442.634 138.507C435.872 136.194 429.963 134.904 425.559 134.904C425.216 134.904 424.95 135.152 424.95 135.48C424.95 135.797 425.209 136.052 425.522 136.052H425.555C425.767 136.052 425.989 136.059 426.208 136.066C426.208 136.07 426.208 136.077 426.208 136.081C426.208 136.187 426.117 146.381 419.686 157.282C419.587 156.189 419.606 155.099 419.77 154.014C419.817 153.7 419.602 153.409 419.289 153.362C418.979 153.314 418.683 153.529 418.636 153.842C418.22 156.553 418.618 159.289 419.525 161.931C416.489 168.23 411.469 172.65 404.608 175.065C404.309 175.171 404.152 175.499 404.258 175.798C404.342 176.034 404.561 176.18 404.798 176.18C404.86 176.18 404.925 176.169 404.987 176.147C411.793 173.75 416.864 169.462 420.076 163.385C424.199 173.295 434.884 181.609 435.471 182.061C435.573 182.141 435.697 182.181 435.821 182.181C435.956 182.181 436.091 182.133 436.2 182.039C436.404 181.86 436.455 181.558 436.32 181.321C430.313 170.864 437.224 149.875 442.077 141.473C442.43 140.861 442.766 140.329 443.079 139.863C453.246 143.43 465.306 149.299 477.055 156.593C490.737 165.082 515.391 182.633 526.806 204.795C526.908 204.992 527.108 205.105 527.316 205.105C527.403 205.105 527.495 205.083 527.578 205.043C527.859 204.897 527.972 204.551 527.826 204.271ZM441.085 140.897C436.459 148.906 430.039 168.154 434.231 179.525C430.71 176.442 423.386 169.36 420.67 161.65L419.956 159.053C427.053 147.776 427.345 136.861 427.356 136.121C431.344 136.401 436.339 137.571 441.96 139.477C441.676 139.91 441.388 140.38 441.089 140.897H441.085Z" fill="#FF6D01"/>
<path d="M388.236 138.482C388.119 138.482 387.999 138.445 387.897 138.373C384.864 136.154 384.703 133.716 385.101 132.066C385.651 129.789 387.58 127.894 388.615 127.73C388.929 127.679 389.224 127.894 389.271 128.207C389.322 128.521 389.107 128.816 388.794 128.863C388.407 128.925 386.705 130.31 386.216 132.335C385.753 134.245 386.548 135.964 388.575 137.447C388.83 137.633 388.885 137.994 388.699 138.249C388.586 138.402 388.411 138.482 388.236 138.482Z" fill="#F7BD86"/>
<path d="M398.939 250.334C398.833 250.334 398.728 250.305 398.633 250.243C396.285 248.749 394.131 247.041 392.228 245.168C384.966 238.027 388.994 208.413 392.228 184.615C393.992 171.633 395.52 160.422 394.904 155.478C394.863 155.165 395.086 154.877 395.403 154.837C395.72 154.801 396.005 155.023 396.045 155.336C396.679 160.426 395.144 171.706 393.365 184.768C390.161 208.311 386.176 237.612 393.03 244.348C394.878 246.163 396.967 247.82 399.245 249.274C399.511 249.445 399.592 249.799 399.42 250.065C399.311 250.236 399.125 250.331 398.935 250.331L398.939 250.334Z" fill="#F7BD86"/>
<path d="M357.067 236.063C356.925 236.063 356.786 236.012 356.673 235.906C356.444 235.688 356.433 235.327 356.648 235.094C357.041 234.675 356.476 232.216 355.878 229.611C353.235 218.094 347.049 191.129 370.267 154.782C370.439 154.517 370.792 154.436 371.058 154.608C371.324 154.779 371.405 155.132 371.233 155.398C348.274 191.34 354.387 217.977 356.998 229.356C357.862 233.123 358.295 235.014 357.482 235.881C357.369 236.001 357.216 236.063 357.063 236.063H357.067Z" fill="#F7BD86"/>
<path d="M414.604 91.5913C412.683 91.5913 411.126 93.147 411.126 95.0671C411.126 95.5845 411.243 96.0727 411.443 96.5135L407.145 100.853C406.668 101.334 406.671 102.11 407.153 102.587C407.393 102.824 407.703 102.944 408.016 102.944C408.33 102.944 408.647 102.824 408.888 102.58L413.186 98.2442C413.62 98.4373 414.097 98.5466 414.604 98.5466C416.525 98.5466 418.082 96.9908 418.082 95.0708C418.082 93.1507 416.525 91.5949 414.604 91.5949V91.5913Z" fill="white"/>
<path d="M387.624 59.4822C387.624 59.4822 387.613 59.4822 387.605 59.4822C370.821 59.0085 364.515 52.352 364.208 46.2821C363.815 38.4415 372.958 29.2638 391.196 26.9029C391.51 26.8628 391.798 27.085 391.838 27.3984C391.878 27.7117 391.656 27.9995 391.342 28.0396C383.275 29.0853 376.476 31.5846 371.678 35.2718C367.471 38.5035 365.164 42.4966 365.353 46.2275C365.634 51.7873 371.634 57.89 387.638 58.3418C387.955 58.3491 388.203 58.615 388.196 58.932C388.189 59.2417 387.933 59.4894 387.624 59.4894V59.4822Z" fill="#5C240F"/>
<path d="M321.224 137.247C320.94 137.247 320.696 137.035 320.655 136.748C319.35 126.808 288.17 126.655 265.4 126.542C246.896 126.451 237.232 126.258 237.086 123.129C236.75 115.922 264.474 94.0361 265.656 93.107C265.904 92.9102 266.264 92.954 266.461 93.2017C266.658 93.4495 266.614 93.8102 266.367 94.0069C258.456 100.226 237.979 117.576 238.234 123.074C238.249 123.384 238.847 124.44 245.915 124.958C250.913 125.322 257.953 125.358 265.408 125.395C289.891 125.515 320.36 125.668 321.793 136.598C321.833 136.912 321.614 137.199 321.297 137.243C321.272 137.243 321.246 137.247 321.221 137.247H321.224Z" fill="#070000"/>
<path d="M259.859 99.8146C259.502 99.8146 259.152 99.6616 258.908 99.3665C258.478 98.8418 258.554 98.0694 259.079 97.6395L265.229 92.6079C265.754 92.178 266.527 92.2545 266.957 92.7792C267.387 93.3038 267.311 94.0762 266.786 94.5062L260.636 99.5377C260.406 99.7235 260.133 99.8146 259.859 99.8146Z" fill="#8463BD"/>
<path d="M425.354 204.533C470.65 202.056 495.942 195.632 504.098 196.711C512.253 197.793 527.316 204.533 527.316 204.533C527.316 204.533 537.618 228.507 519.39 234.562C507.163 238.628 443.141 228.368 423.36 222.142L425.351 204.533H425.354Z" fill="#FFCAAC"/>
<path d="M460.22 201.611C460.22 201.611 461.831 193.876 464.423 193.603C467.015 193.33 474.11 198.649 474.11 198.649C474.11 198.649 473.858 194.335 476.417 192.24C481.747 187.879 498.797 186.185 518.169 195.512C543.407 207.663 540.006 239.55 528.475 243.638C516.944 247.729 507.419 234.974 505.497 235.487C503.576 236.001 484.204 239.411 482.294 237.637C480.383 235.866 476.02 231.91 474.11 232.321C472.199 232.729 459.105 236.682 458.831 229.935C458.558 223.187 460.22 201.611 460.22 201.611Z" fill="#934625"/>
<path d="M442.372 203.36L444.683 227.217L458.831 229.935C458.831 229.935 464.358 223.799 460.22 201.611C457.439 201.917 447.37 200.281 442.372 203.36Z" fill="#FF6D01"/>
<path d="M518.855 220.488C518.829 220.488 518.804 220.488 518.778 220.484C512.635 219.646 494.915 204.73 492.756 201.965C492.563 201.713 492.607 201.356 492.855 201.159C493.106 200.966 493.464 201.01 493.661 201.258C495.91 204.147 513.303 218.579 518.931 219.347C519.245 219.391 519.463 219.679 519.423 219.992C519.383 220.28 519.139 220.488 518.855 220.488Z" fill="#FF6D01"/>
<path d="M518.421 194.995C498.546 185.427 481.39 187.427 476.056 191.796C474.128 193.373 473.661 196.022 473.559 197.534C471.485 196.059 466.618 192.798 464.369 193.034C461.507 193.337 459.947 200.135 459.663 201.498C459.597 201.808 459.797 202.11 460.107 202.176C460.417 202.241 460.72 202.041 460.785 201.731C461.42 198.689 462.987 194.335 464.489 194.175C466.41 193.971 471.737 197.592 473.709 199.061C474.332 199.862 475.473 201.779 476.909 204.198C480.486 210.217 485.892 219.314 489.822 221.894C494.014 224.648 510.317 233.32 513.725 233.32C513.857 233.32 513.97 233.305 514.061 233.28C514.312 233.207 514.509 233.046 514.608 232.831C515.1 231.753 513.204 230.022 493.785 218.844C491.441 217.496 489.417 216.33 489.18 216.145C488.936 215.944 488.575 215.977 488.375 216.221C488.174 216.465 488.207 216.826 488.451 217.03C488.714 217.249 490.103 218.05 493.212 219.839C498.608 222.943 510.638 229.869 513.117 232.139C509.715 231.425 495.983 224.572 490.453 220.939C486.745 218.505 481.423 209.546 477.897 203.615C476.49 201.247 475.364 199.352 474.682 198.445C474.671 197.662 474.748 194.35 476.786 192.685C479.924 190.116 487.405 188.44 497.211 189.697C497.251 189.715 497.292 189.73 497.335 189.737C512.417 192.721 520.812 201.739 522.777 207.076C523.229 208.3 523.186 209.007 523.043 209.182C522.847 209.43 522.887 209.79 523.135 209.987C523.24 210.071 523.364 210.111 523.492 210.111C523.66 210.111 523.827 210.038 523.94 209.893C524.556 209.116 524.232 207.714 523.849 206.679C522.551 203.149 517.994 196.827 509.001 192.415C511.881 193.366 514.867 194.561 517.921 196.029C532.562 203.079 537.177 216.738 536.616 227.173C536.189 235.083 532.839 241.481 528.282 243.098C527.983 243.204 527.826 243.532 527.932 243.831C528.016 244.068 528.238 244.213 528.472 244.213C528.534 244.213 528.599 244.202 528.665 244.181C533.652 242.41 537.308 235.604 537.76 227.239C538.344 216.436 533.568 202.292 518.421 194.998V194.995Z" fill="#FF6D01"/>
<path d="M442.653 206.839C442.485 206.839 442.317 206.767 442.204 206.624C442.007 206.377 442.044 206.016 442.292 205.819C445.711 203.068 460.144 203.921 460.756 203.961C461.073 203.979 461.314 204.253 461.292 204.57C461.274 204.887 461.004 205.127 460.683 205.105C456.633 204.857 445.562 204.661 443.006 206.716C442.9 206.799 442.773 206.843 442.645 206.843L442.653 206.839Z" fill="#934625"/>
<path d="M442.999 210.417C442.835 210.417 442.674 210.348 442.561 210.217C442.357 209.976 442.383 209.616 442.627 209.408C445.456 206.996 459.673 207.703 461.285 207.794C461.602 207.812 461.842 208.082 461.824 208.399C461.806 208.716 461.533 208.963 461.219 208.938C456.965 208.705 445.47 208.486 443.371 210.279C443.261 210.37 443.13 210.417 442.999 210.417Z" fill="#934625"/>
<path d="M458.831 229.935C458.831 229.935 460.709 227.847 461.456 221.708C456.52 223.504 451.967 225.585 447.807 227.818L458.831 229.935Z" fill="#934625"/>
<path d="M442.372 203.36L441.825 226.641L444.683 227.221L442.372 203.36Z" fill="#A86854"/>
<path d="M542.317 230.412C505.497 195.512 448.405 204.529 439.339 256.266C415.289 249.438 397.682 254.291 384.711 262.459C383.333 260.521 381.076 259.257 378.517 259.257C374.321 259.257 370.916 262.656 370.916 266.853C370.916 268.759 371.623 270.5 372.786 271.834C361.945 282.134 355.853 292.915 352.186 293.396L378.619 313.58C378.619 313.58 549.747 297.764 542.317 230.416V230.412Z" fill="#E7DCFF"/>
<path d="M454.632 394.354C493.93 394.354 525.788 362.515 525.788 323.239C525.788 283.963 493.93 252.123 454.632 252.123C415.333 252.123 383.475 283.963 383.475 323.239C383.475 362.515 415.333 394.354 454.632 394.354Z" fill="url(#paint18_linear_894_1105)"/>
<path d="M493.041 263.367C505.877 276.232 513.809 293.979 513.809 313.58C513.809 352.856 481.951 384.696 442.653 384.696C428.504 384.696 415.322 380.568 404.243 373.456C417.127 386.368 434.942 394.358 454.632 394.358C493.93 394.358 525.788 362.518 525.788 323.243C525.788 298.107 512.737 276.017 493.041 263.367Z" fill="url(#paint19_linear_894_1105)"/>
<path d="M424.472 288.864C418.246 288.864 411.476 288.711 404.335 288.554C400.645 288.47 396.832 288.386 392.95 288.317C392.632 288.313 392.381 288.051 392.385 287.734C392.388 287.421 392.647 287.169 392.957 287.169C392.957 287.169 392.964 287.169 392.968 287.169C396.854 287.239 400.667 287.322 404.356 287.406C433.167 288.047 455.926 288.557 459.98 279.806C460.993 277.616 460.942 275.361 459.827 273.099C457.264 267.899 447.946 260.296 418.111 253.588C417.801 253.519 417.608 253.213 417.677 252.903C417.746 252.593 418.053 252.4 418.362 252.47C442.324 257.858 457.019 264.817 460.855 272.592C462.13 275.183 462.189 277.769 461.019 280.291C457.716 287.417 443.721 288.864 424.469 288.864H424.472Z" fill="#8463BD"/>
<path d="M390.368 293.242C390.336 293.242 390.303 293.242 390.266 293.235C382.625 291.891 370.074 290.065 358.288 288.586C357.974 288.546 357.752 288.258 357.789 287.945C357.825 287.632 358.117 287.409 358.43 287.446C370.234 288.925 382.808 290.754 390.467 292.102C390.78 292.157 390.988 292.455 390.934 292.765C390.886 293.042 390.642 293.239 390.368 293.239V293.242Z" fill="#8463BD"/>
<path d="M409.209 223.603L322.5 206.268L273.362 222.98L360.745 242.6L409.209 223.603Z" fill="#8463BD"/>
<path d="M360.155 245.769L407.903 226.605C408.407 226.405 408.771 225.956 408.869 225.424L409.209 223.603L360.741 242.599L360.155 245.769Z" fill="#3F2628"/>
<path d="M359.043 245.872L272.568 226.729C271.561 226.514 270.909 225.538 271.095 224.529L271.102 224.492C271.295 223.443 272.316 222.761 273.362 222.984L359.837 242.126C360.844 242.341 361.496 243.318 361.31 244.327L361.303 244.363C361.11 245.412 360.089 246.094 359.043 245.872Z" fill="#070000"/>
<path d="M384.725 230.307L337.968 220.36L309.573 230.299L357.712 241.109L384.784 231.097C385.17 230.955 385.13 230.394 384.725 230.307Z" fill="url(#paint20_linear_894_1105)"/>
<path d="M380.978 219.821L358.255 214.986C357.942 214.92 357.621 214.939 357.318 215.044L342.499 220.243L367.486 225.501C367.807 225.57 368.138 225.545 368.448 225.432L381.051 220.772C381.517 220.601 381.466 219.926 380.981 219.824L380.978 219.821Z" fill="url(#paint21_linear_894_1105)"/>
<path d="M362.79 237.867L340.695 169.815C340.235 168.402 339.011 167.374 337.541 167.163L251.383 154.903C249.845 154.684 248.635 156.193 249.185 157.646L272.17 218.444C272.724 219.912 273.986 221.001 275.52 221.344L360.716 240.155C362.057 240.45 363.217 239.178 362.79 237.87V237.867Z" fill="#8463BD"/>
<path d="M247.938 157.442L249.604 155.526L250.49 158.524L247.938 157.442Z" fill="#8463BD"/>
<path d="M361.23 239.659L339.135 171.608C338.675 170.194 337.45 169.167 335.981 168.956L249.823 156.696C248.285 156.477 247.075 157.985 247.625 159.439L270.61 220.236C271.164 221.705 272.425 222.794 273.96 223.137L359.156 241.947C360.497 242.243 361.657 240.971 361.23 239.663V239.659Z" fill="#3F2628"/>
<path d="M304.838 208.243C306.765 207.482 306.749 202.875 304.803 197.953C302.858 193.031 299.718 189.658 297.791 190.419C295.865 191.18 295.88 195.787 297.826 200.709C299.772 205.63 302.911 209.003 304.838 208.243Z" fill="#8463BD"/>
<path d="M361.23 239.659L356.801 226.022L256.531 183.001L270.606 220.236C271.16 221.705 272.422 222.794 273.957 223.136L359.152 241.947C360.494 242.242 361.653 240.971 361.226 239.663L361.23 239.659Z" fill="url(#paint22_linear_894_1105)"/>
<path d="M304.838 208.242C305.855 207.841 306.325 206.358 306.259 204.333L297.831 200.715C299.778 205.633 302.913 209 304.838 208.242Z" fill="#3F2628"/>
<path d="M311.305 243.667C299.512 237.313 281.853 223.974 276.793 221.668C276.793 221.668 272.925 220.105 268.244 220.4C269.283 223.737 270.512 228.237 270.512 228.237L311.305 243.671V243.667Z" fill="#4278E1"/>
<path d="M311.305 244.239C311.214 244.239 311.119 244.217 311.031 244.17C304.55 240.68 296.486 235.207 289.37 230.383C283.697 226.536 278.798 223.213 276.552 222.189C276.541 222.186 274.554 221.399 271.755 221.074C275.054 223.169 278.495 227.21 279.009 227.822C279.213 228.066 279.181 228.427 278.936 228.631C278.692 228.835 278.331 228.802 278.127 228.558C276.312 226.39 271.029 220.816 268.302 220.969C268.295 220.969 268.284 220.969 268.277 220.969C267.952 220.987 267.69 220.75 267.668 220.433C267.646 220.116 267.887 219.847 268.204 219.825C268.215 219.825 268.222 219.825 268.233 219.825C272.976 219.537 276.844 221.071 277.008 221.136C279.366 222.211 284.302 225.559 290.019 229.436C297.109 234.245 305.148 239.7 311.578 243.164C311.855 243.314 311.961 243.664 311.812 243.94C311.706 244.134 311.509 244.243 311.305 244.243V244.239Z" fill="#303539"/>
<path d="M374.871 244.196C374.828 244.196 374.78 244.196 374.737 244.188L365.871 243.215C365.196 243.143 364.711 242.534 364.784 241.864C364.857 241.19 365.466 240.705 366.137 240.778L375.003 241.751C375.677 241.824 376.162 242.432 376.089 243.102C376.02 243.729 375.488 244.196 374.871 244.196Z" fill="#8463BD"/>
<path d="M332.627 240.02C332.627 240.02 348.93 237.401 358.591 245.769C368.255 254.135 334.013 247.183 334.013 247.183L332.627 240.02Z" fill="#4278E1"/>
<path d="M456.433 293.254C435.974 293.254 406.325 289.727 374.132 285.898C306.937 277.904 230.779 268.85 222.332 291.436C222.223 291.731 221.891 291.88 221.592 291.771C221.297 291.662 221.144 291.33 221.257 291.031C223.39 285.33 229.376 281.362 239.55 278.91C248.409 276.771 260.253 275.835 275.757 276.05C304.324 276.44 339.878 280.67 374.266 284.758C405.64 288.488 435.985 292.099 456.688 292.099C470.883 292.099 480.544 290.405 482.903 285.887C484.2 283.406 484.215 280.998 482.943 278.52C472.221 257.625 375.757 243.671 374.784 243.532C374.471 243.489 374.252 243.197 374.296 242.884C374.339 242.571 374.631 242.352 374.944 242.396C375.189 242.432 399.668 245.944 425.172 252.025C459.546 260.223 479.326 268.963 483.96 277.992C485.393 280.786 485.378 283.617 483.916 286.415C481.317 291.381 471.299 293.247 456.425 293.247L456.433 293.254Z" fill="#070000"/>
<path d="M391.269 189.828C391.269 189.828 376.301 194.587 375.116 196.099C373.931 197.614 363.199 206.082 362.583 207.411C361.966 208.741 363.581 210.574 365.772 210.545C367.963 210.516 378.448 201.764 379.093 201.236C379.738 200.708 387.15 198.092 387.15 198.092L391.269 189.825V189.828Z" fill="url(#paint23_linear_894_1105)"/>
<path d="M427.863 204.471C427.068 204.337 409.267 190.317 407.473 189.912C405.676 189.504 391.717 188.896 389.822 190.313C387.926 191.73 381.371 201.327 380.785 204.409C380.314 206.891 385.447 220.244 386.143 220.539C388.681 221.614 389.074 219.019 389.074 219.019C389.074 219.019 389.756 220.91 391.455 221.158C392.334 221.286 393.321 220.324 393.321 220.324C393.321 220.324 394.524 222.058 396.169 221.949C397.481 221.861 398.199 220.998 398.378 219.304C398.68 216.436 398.932 211.321 398.932 211.321C398.932 211.321 407.338 221.125 413.146 224.189C417.469 226.47 424.545 224.725 426.368 223.024C427.268 221.359 427.855 204.468 427.855 204.468L427.863 204.471Z" fill="#FFCAAC"/>
<path d="M389.074 219.595C388.816 219.595 388.582 219.42 388.517 219.158C388.221 217.956 385.633 207.372 385.545 206.133C385.447 204.796 387.999 201.342 388.783 200.318C388.976 200.067 389.337 200.019 389.588 200.209C389.84 200.402 389.887 200.762 389.698 201.014C388.218 202.952 386.65 205.426 386.694 206.049C386.756 206.912 388.487 214.199 389.636 218.885C389.712 219.191 389.523 219.504 389.217 219.577C389.173 219.588 389.125 219.595 389.078 219.595H389.074Z" fill="#A86854"/>
<path d="M393.325 220.899C393.026 220.899 392.775 220.666 392.753 220.364C392.724 219.927 392.038 209.608 392.053 208.377C392.071 207.058 393.85 204.169 394.207 203.604C394.375 203.335 394.732 203.258 394.998 203.426C395.268 203.593 395.348 203.95 395.177 204.216C394.419 205.422 393.208 207.619 393.201 208.392C393.186 209.579 393.89 220.182 393.897 220.287C393.919 220.604 393.679 220.878 393.361 220.896C393.347 220.896 393.336 220.896 393.321 220.896L393.325 220.899Z" fill="#A86854"/>
<path d="M398.936 211.897C398.837 211.897 398.739 211.871 398.648 211.82C398.374 211.66 398.279 211.31 398.44 211.037C399.059 209.973 401.192 206.493 402.676 206.264C402.993 206.216 403.281 206.431 403.328 206.745C403.376 207.058 403.161 207.35 402.847 207.397C402.213 207.495 400.569 209.656 399.428 211.612C399.322 211.795 399.129 211.897 398.932 211.897H398.936Z" fill="#A86854"/>
<path d="M527.02 267.637C540.421 267.648 552.098 269.579 560.195 285.071H497.083C497.083 285.071 508.1 267.622 527.02 267.637Z" fill="#8463BD"/>
<path d="M575.068 280.465C575.006 280.465 574.948 280.454 574.886 280.436C574.587 280.334 574.423 280.01 574.522 279.711C574.58 279.533 580.354 261.895 573.052 256.383C569.137 253.428 561.788 254.907 554.679 256.335C549.149 257.446 543.925 258.496 540.52 257.384C537.173 256.291 535.872 250.863 534.49 245.11C533.116 239.379 531.694 233.455 528.315 232.781C525.748 232.27 522.132 233.899 519.843 238.701C519.708 238.985 519.365 239.109 519.077 238.971C518.789 238.836 518.669 238.493 518.807 238.206C521.363 232.846 525.537 231.054 528.537 231.651C532.638 232.471 534.144 238.756 535.606 244.837C536.853 250.028 538.139 255.395 540.874 256.288C543.99 257.304 549.072 256.288 554.449 255.206C561.806 253.726 569.414 252.2 573.741 255.464C581.7 261.472 575.863 279.314 575.608 280.072C575.528 280.312 575.305 280.465 575.065 280.465H575.068Z" fill="white"/>
<path d="M514.039 272.424C513.671 272.424 513.299 272.33 512.963 272.129C508.964 269.736 489.151 257.312 491.951 247.795C492.997 244.235 495.279 242.917 497.003 242.432C501.25 241.244 506.205 243.933 508.501 246.028C509.351 246.804 509.409 248.119 508.636 248.968C507.863 249.817 506.544 249.879 505.694 249.103C503.769 247.343 500.328 245.831 498.126 246.443C497.455 246.629 496.5 247.096 495.95 248.968C494.55 253.73 506.31 263.29 515.107 268.555C516.095 269.145 516.416 270.424 515.825 271.412C515.435 272.06 514.75 272.421 514.042 272.424H514.039Z" fill="#005788"/>
<path d="M551.839 241.488H505.424C503.594 271.204 518.876 277.941 518.876 277.941L538.66 277.871C538.66 277.871 554.274 268.537 551.839 241.492V241.488Z" fill="url(#paint24_linear_894_1105)"/>
<path d="M563.971 297.105L577.442 299.834L581.204 284.95L575.258 278.789L567.77 282.946L563.971 297.105Z" fill="#934625"/>
<path d="M567.799 296.937L581.375 297.247L581.674 284.16L575.258 278.789L568.098 283.854L567.799 296.937Z" fill="#FF6D01"/>
<path d="M528.639 245.216C541.454 245.216 551.843 243.547 551.843 241.488C551.843 239.43 541.454 237.761 528.639 237.761C515.824 237.761 505.435 239.43 505.435 241.488C505.435 243.547 515.824 245.216 528.639 245.216Z" fill="white"/>
<path d="M509.066 243.488C513.186 244.527 520.408 245.215 528.639 245.215C536.871 245.215 544.092 244.527 548.212 243.488C544.092 242.45 536.871 241.761 528.639 241.761C520.408 241.761 513.186 242.45 509.066 243.488Z" fill="#5C240F"/>
<path d="M517.342 244.6C517.258 244.6 517.17 244.585 517.086 244.553C516.711 244.411 516.521 243.992 516.66 243.616L518.843 237.805C518.986 237.43 519.405 237.24 519.78 237.379C520.156 237.521 520.345 237.94 520.207 238.315L518.023 244.126C517.914 244.418 517.637 244.6 517.342 244.6Z" fill="white"/>
<path d="M519.197 186.906C540.217 195.731 534.217 227.086 533.145 233.484C531.432 243.725 527.407 241.383 526.35 238.486C525.296 235.59 528.464 225.643 522.996 217.679C515.089 206.166 510.772 208.854 505.468 199.764C501.874 193.607 505.902 181.325 519.197 186.906Z" fill="url(#paint25_linear_894_1105)"/>
<path opacity="0.53" d="M514.695 171.987C517.863 168.435 507.448 154.335 501.516 158.816C495.585 163.294 509.292 178.046 514.695 171.987Z" fill="white"/>
<path opacity="0.53" d="M499.898 174.082C496.402 172.143 476.02 161.002 478.586 144.738C480.15 134.828 484.087 129.512 499.457 128.74C513.517 128.033 514.403 104.048 492.027 104.081C468.59 104.114 456.013 127.563 460.811 148.494C465.852 170.489 488.801 181.704 497.288 181.737C505.778 181.769 503.576 176.118 499.898 174.082Z" fill="white"/>
<path d="M544.26 276.385C544.384 275.958 544.453 275.51 544.453 275.044C544.453 272.366 542.281 270.198 539.605 270.198C536.929 270.198 534.888 272.246 534.767 274.818C532.78 274.643 530.735 274.552 528.643 274.552C510.098 274.552 495.064 281.719 495.064 290.561C495.064 299.404 510.098 306.57 528.643 306.57C547.187 306.57 562.222 299.404 562.222 290.561C562.222 284.408 554.941 279.07 544.264 276.388L544.26 276.385Z" fill="#E7DCFF"/>
<defs>
<linearGradient id="paint0_linear_894_1105" x1="313.955" y1="180.596" x2="313.955" y2="374.381" gradientUnits="userSpaceOnUse">
<stop stop-color="#E7DCFF"/>
<stop offset="1" stop-color="#8463BD"/>
</linearGradient>
<linearGradient id="paint1_linear_894_1105" x1="295.023" y1="280.208" x2="209.182" y2="114.916" gradientUnits="userSpaceOnUse">
<stop stop-color="#E7DCFF"/>
<stop offset="1" stop-color="white"/>
</linearGradient>
<linearGradient id="paint2_linear_894_1105" x1="185.567" y1="219.169" x2="150.151" y2="150.966" gradientUnits="userSpaceOnUse">
<stop stop-color="#E7DCFF"/>
<stop offset="1" stop-color="white"/>
</linearGradient>
<linearGradient id="paint3_linear_894_1105" x1="45.4232" y1="367.219" x2="167.453" y2="367.219" gradientUnits="userSpaceOnUse">
<stop stop-color="white"/>
<stop offset="1" stop-color="#8463BD"/>
</linearGradient>
<linearGradient id="paint4_linear_894_1105" x1="155.948" y1="297.998" x2="342.412" y2="297.998" gradientUnits="userSpaceOnUse">
<stop stop-color="#001A75"/>
<stop offset="1" stop-color="#3F2628"/>
</linearGradient>
<linearGradient id="paint5_linear_894_1105" x1="291.455" y1="241.612" x2="374.463" y2="241.612" gradientUnits="userSpaceOnUse">
<stop stop-color="#3F2628"/>
<stop offset="1" stop-color="#004B75"/>
</linearGradient>
<linearGradient id="paint6_linear_894_1105" x1="172.338" y1="308.265" x2="410.568" y2="308.265" gradientUnits="userSpaceOnUse">
<stop stop-color="#3F2628"/>
<stop offset="1" stop-color="#0043C5"/>
</linearGradient>
<linearGradient id="paint7_linear_894_1105" x1="255.661" y1="261.902" x2="271.601" y2="305.748" gradientUnits="userSpaceOnUse">
<stop stop-color="#3F2628"/>
<stop offset="1" stop-color="#0073DC"/>
</linearGradient>
<linearGradient id="paint8_linear_894_1105" x1="146.411" y1="328.078" x2="178.284" y2="328.078" gradientUnits="userSpaceOnUse">
<stop stop-color="#3F2628"/>
<stop offset="1" stop-color="#4278E1"/>
</linearGradient>
<linearGradient id="paint9_linear_894_1105" x1="340.09" y1="299.75" x2="404.452" y2="249.697" gradientUnits="userSpaceOnUse">
<stop stop-color="#3F2628"/>
<stop offset="1" stop-color="#90C3FF"/>
</linearGradient>
<linearGradient id="paint10_linear_894_1105" x1="364.008" y1="252.546" x2="388.743" y2="233.309" gradientUnits="userSpaceOnUse">
<stop stop-color="#3F2628"/>
<stop offset="1" stop-color="#007564"/>
</linearGradient>
<linearGradient id="paint11_linear_894_1105" x1="355.299" y1="162.969" x2="386.179" y2="216.448" gradientUnits="userSpaceOnUse">
<stop stop-color="white"/>
<stop offset="1" stop-color="#E7DCFF"/>
</linearGradient>
<linearGradient id="paint12_linear_894_1105" x1="367.075" y1="179.269" x2="413.513" y2="183.988" gradientUnits="userSpaceOnUse">
<stop stop-color="#E7DCFF"/>
<stop offset="1" stop-color="#8463BD"/>
</linearGradient>
<linearGradient id="paint13_linear_894_1105" x1="348.97" y1="173.67" x2="369.287" y2="234.394" gradientUnits="userSpaceOnUse">
<stop stop-color="#E7DCFF"/>
<stop offset="1" stop-color="#8463BD"/>
</linearGradient>
<linearGradient id="paint14_linear_894_1105" x1="324.797" y1="159.195" x2="339.512" y2="185.631" gradientUnits="userSpaceOnUse">
<stop stop-color="#934625"/>
<stop offset="1" stop-color="#5C240F"/>
</linearGradient>
<linearGradient id="paint15_linear_894_1105" x1="263.301" y1="84.6034" x2="296.664" y2="84.6034" gradientUnits="userSpaceOnUse">
<stop stop-color="#E7DCFF"/>
<stop offset="1" stop-color="#8463BD"/>
</linearGradient>
<linearGradient id="paint16_linear_894_1105" x1="367.792" y1="253.136" x2="453.315" y2="186.629" gradientUnits="userSpaceOnUse">
<stop stop-color="#5C240F"/>
<stop offset="1" stop-color="#934625"/>
</linearGradient>
<linearGradient id="paint17_linear_894_1105" x1="481.955" y1="178.519" x2="447.134" y2="238.904" gradientUnits="userSpaceOnUse">
<stop stop-color="#934625"/>
<stop offset="1" stop-color="#5C240F"/>
</linearGradient>
<linearGradient id="paint18_linear_894_1105" x1="456.144" y1="326.15" x2="420.724" y2="257.943" gradientUnits="userSpaceOnUse">
<stop stop-color="#E7DCFF"/>
<stop offset="1" stop-color="white"/>
</linearGradient>
<linearGradient id="paint19_linear_894_1105" x1="508.99" y1="311.467" x2="418.906" y2="378.647" gradientUnits="userSpaceOnUse">
<stop stop-color="#E7DCFF"/>
<stop offset="1" stop-color="#8463BD"/>
</linearGradient>
<linearGradient id="paint20_linear_894_1105" x1="335.201" y1="230.733" x2="410.678" y2="230.733" gradientUnits="userSpaceOnUse">
<stop stop-color="#3F2628"/>
<stop offset="1" stop-color="#8463BD"/>
</linearGradient>
<linearGradient id="paint21_linear_894_1105" x1="346.389" y1="220.243" x2="389.038" y2="220.243" gradientUnits="userSpaceOnUse">
<stop stop-color="#3F2628"/>
<stop offset="1" stop-color="#8463BD"/>
</linearGradient>
<linearGradient id="paint22_linear_894_1105" x1="256.535" y1="212.49" x2="361.321" y2="212.49" gradientUnits="userSpaceOnUse">
<stop stop-color="#3F2628"/>
<stop offset="1" stop-color="#070000"/>
</linearGradient>
<linearGradient id="paint23_linear_894_1105" x1="371.638" y1="198.716" x2="406.597" y2="206.656" gradientUnits="userSpaceOnUse">
<stop stop-color="#F7BD86"/>
<stop offset="1" stop-color="#BB6738"/>
</linearGradient>
<linearGradient id="paint24_linear_894_1105" x1="523.51" y1="259.698" x2="543.895" y2="259.627" gradientUnits="userSpaceOnUse">
<stop stop-color="#5C76FF"/>
<stop offset="1" stop-color="#3F2628"/>
</linearGradient>
<linearGradient id="paint25_linear_894_1105" x1="519.485" y1="240.964" x2="519.485" y2="185.489" gradientUnits="userSpaceOnUse">
<stop stop-color="white" stop-opacity="0.1"/>
<stop offset="1" stop-color="white" stop-opacity="0.5"/>
</linearGradient>
</defs>
</svg>
