<svg width="18" height="19" viewBox="0 0 18 19" fill="none" xmlns="http://www.w3.org/2000/svg">
<path d="M9.00096 0.5C6.55679 0.5 6.25005 0.510688 5.29008 0.554375C4.33198 0.59825 3.678 0.749938 3.10577 0.9725C2.51385 1.20238 2.01174 1.50988 1.5115 2.01031C1.01089 2.51056 0.703404 3.01269 0.472786 3.60444C0.249668 4.17687 0.0977977 4.83106 0.054674 5.78881C0.0117379 6.74881 0.000488281 7.05575 0.000488281 9.5C0.000488281 11.9443 0.0113631 12.2501 0.0548618 13.2101C0.0989229 14.1682 0.250606 14.8222 0.472974 15.3944C0.703029 15.9864 1.01052 16.4885 1.51094 16.9888C2.01099 17.4894 2.5131 17.7976 3.10464 18.0275C3.67725 18.2501 4.33142 18.4018 5.28933 18.4456C6.2493 18.4893 6.55585 18.5 8.99984 18.5C11.4442 18.5 11.75 18.4893 12.71 18.4456C13.6681 18.4018 14.3228 18.2501 14.8954 18.0275C15.4871 17.7976 15.9885 17.4894 16.4885 16.9888C16.9892 16.4885 17.2966 15.9864 17.5273 15.3946C17.7485 14.8222 17.9004 14.168 17.9454 13.2103C17.9885 12.2503 17.9998 11.9443 17.9998 9.5C17.9998 7.05575 17.9885 6.749 17.9454 5.789C17.9004 4.83087 17.7485 4.17687 17.5273 3.60462C17.2966 3.01269 16.9892 2.51056 16.4885 2.01031C15.9879 1.50969 15.4873 1.20219 14.8948 0.9725C14.3211 0.749938 13.6668 0.59825 12.7087 0.554375C11.7487 0.510688 11.4431 0.5 8.99815 0.5H9.00096ZM8.19361 2.12187C8.43323 2.1215 8.7006 2.12187 9.00096 2.12187C11.4039 2.12187 11.6887 2.1305 12.6376 2.17363C13.5151 2.21375 13.9913 2.36038 14.3086 2.48356C14.7285 2.64669 15.028 2.84169 15.3428 3.15669C15.6578 3.47169 15.8528 3.77169 16.0162 4.19169C16.1394 4.50856 16.2862 4.98481 16.3262 5.86231C16.3693 6.81106 16.3787 7.09606 16.3787 9.49794C16.3787 11.8998 16.3693 12.1848 16.3262 13.1336C16.2861 14.0111 16.1394 14.4873 16.0162 14.8042C15.8531 15.2242 15.6578 15.5233 15.3428 15.8381C15.0278 16.1531 14.7287 16.3481 14.3086 16.5112C13.9917 16.6349 13.5151 16.7812 12.6376 16.8213C11.6889 16.8644 11.4039 16.8738 9.00096 16.8738C6.59785 16.8738 6.31305 16.8644 5.36433 16.8213C4.48685 16.7808 4.01062 16.6342 3.69319 16.511C3.2732 16.3479 2.97321 16.1529 2.65822 15.8379C2.34323 15.5229 2.14824 15.2236 1.98474 14.8034C1.86156 14.4866 1.71475 14.0103 1.67481 13.1328C1.63169 12.1841 1.62306 11.8991 1.62306 9.49569C1.62306 7.09231 1.63169 6.80881 1.67481 5.86006C1.71494 4.98256 1.86156 4.50631 1.98474 4.18906C2.14786 3.76906 2.34323 3.46906 2.65822 3.15406C2.97321 2.83906 3.2732 2.64406 3.69319 2.48056C4.01043 2.35681 4.48685 2.21056 5.36433 2.17025C6.19455 2.13275 6.51629 2.1215 8.19361 2.11963V2.12187ZM13.8049 3.61625C13.2087 3.61625 12.725 4.09944 12.725 4.69587C12.725 5.29212 13.2087 5.77588 13.8049 5.77588C14.4012 5.77588 14.8849 5.29212 14.8849 4.69587C14.8849 4.09962 14.4012 3.61588 13.8049 3.61588V3.61625ZM9.00096 4.87812C6.4486 4.87812 4.37923 6.94756 4.37923 9.5C4.37923 12.0524 6.4486 14.1209 9.00096 14.1209C11.5533 14.1209 13.6219 12.0524 13.6219 9.5C13.6219 6.94756 11.5533 4.87812 9.00096 4.87812ZM9.00096 6.5C10.6577 6.5 12.0009 7.84306 12.0009 9.5C12.0009 11.1567 10.6577 12.5 9.00096 12.5C7.34408 12.5 6.00106 11.1567 6.00106 9.5C6.00106 7.84306 7.34408 6.5 9.00096 6.5Z" fill="#B0A3E7"/>
</svg>
