<svg width="18" height="19" viewBox="0 0 18 19" fill="none" xmlns="http://www.w3.org/2000/svg">
<path fill-rule="evenodd" clip-rule="evenodd" d="M18 18.5H14.3016V12.2007C14.3016 10.4736 13.6453 9.50849 12.2783 9.50849C10.7912 9.50849 10.0143 10.5129 10.0143 12.2007V18.5H6.45V6.5H10.0143V8.1164C10.0143 8.1164 11.0859 6.13338 13.6324 6.13338C16.1777 6.13338 18 7.6877 18 10.9023V18.5ZM2.19785 4.9287C0.983789 4.9287 0 3.93719 0 2.71435C0 1.49151 0.983789 0.5 2.19785 0.5C3.41191 0.5 4.39512 1.49151 4.39512 2.71435C4.39512 3.93719 3.41191 4.9287 2.19785 4.9287ZM0.357422 18.5H4.07402V6.5H0.357422V18.5Z" fill="#B0A3E7"/>
</svg>
